<svg xmlns="http://www.w3.org/2000/svg" xmlns:v="https://svgstorm.com"
viewBox = "0 0 512 512"
width="512"
height="512">
<g fill="None" fill-opacity="0.0" stroke="#000000" stroke-opacity="0.00" stroke-width="0.3"><path d="
M 0.00 512.00 
L 512.00 512.00
L 512.00 0.00
L 0.00 0.00
L 0.00 512.00
M 401.00 184.00 
C 407.82 175.36 417.18 168.56 424.00 160.00
C 418.81 157.06 406.23 162.19 400.00 161.00 C 393.77 159.81 385.94 164.96 379.78 165.78 C 373.61 166.59 367.14 170.05 361.31 172.31 C 355.47 174.56 350.01 178.39 344.75 181.75 C 339.50 185.12 335.11 188.02 330.25 192.25 C 325.39 196.49 322.85 200.07 317.75 204.75 C 312.66 209.44 311.65 212.23 305.75 217.75 C 299.86 223.28 300.43 223.89 293.25 231.25 C 286.06 238.60 276.18 249.72 269.25 257.25 C 262.31 264.78 262.20 264.73 256.75 270.75 C 251.30 276.77 249.40 278.25 244.75 283.75 C 240.10 289.25 237.06 291.04 232.75 296.75 C 228.44 302.45 225.22 303.14 220.70 309.70 C 216.17 316.25 213.94 314.82 207.75 322.75 C 201.56 330.68 190.55 341.39 182.75 347.75 C 174.96 354.12 174.45 354.25 167.77 358.77 C 161.09 363.29 158.18 364.36 151.77 367.77 C 145.36 371.18 140.69 372.89 133.98 374.98 C 127.26 377.07 122.15 379.83 114.93 380.93 C 107.70 382.03 99.70 383.93 92.00 384.00 C 84.30 384.07 74.76 384.27 67.00 384.00 C 59.24 383.73 49.69 384.95 42.33 383.67 C 34.97 382.39 31.94 374.20 32.00 368.00 C 32.06 361.80 34.52 354.25 41.70 352.70 C 48.87 351.14 58.23 351.93 66.00 352.00 C 73.77 352.07 82.35 351.12 90.00 351.00 C 97.65 350.88 105.22 348.83 112.22 347.22 C 119.23 345.61 124.74 343.99 131.08 341.08 C 137.41 338.16 141.65 336.53 147.70 332.70 C 153.74 328.87 156.05 327.44 162.25 322.25 C 168.44 317.05 168.58 317.16 175.75 309.75 C 182.92 302.35 192.99 291.40 199.75 283.75 C 206.52 276.10 207.23 276.39 212.25 270.25 C 217.27 264.11 220.35 262.77 224.25 257.25 C 228.16 251.74 233.22 249.72 236.30 244.30 C 239.39 238.88 245.77 236.98 248.75 231.75 C 251.74 226.52 257.76 223.07 261.25 218.25 C 264.74 213.43 269.36 209.73 273.25 205.25 C 277.14 200.76 280.86 196.40 285.25 192.25 C 289.64 188.09 292.97 182.62 297.75 178.75 C 302.54 174.89 305.42 169.95 310.25 166.25 C 315.08 162.55 319.60 159.17 324.70 155.70 C 329.79 152.22 334.39 148.88 340.23 146.23 C 346.07 143.58 351.74 140.13 358.08 138.08 C 364.41 136.02 370.21 133.66 377.07 132.07 C 383.94 130.48 390.79 129.35 398.22 128.22 C 405.65 127.09 416.26 128.61 424.00 128.00
C 415.50 113.93 401.42 113.06 397.01 95.99 C 392.60 78.92 417.81 71.24 427.25 83.75 C 436.69 96.26 448.31 103.15 457.25 113.75 C 466.19 124.35 486.17 134.34 480.22 149.22 C 474.27 164.10 461.84 168.92 451.75 180.75 C 441.67 192.58 433.09 199.45 420.92 209.92 C 408.74 220.38 383.84 196.59 401.00 184.00
M 98.00 128.00 
C 111.35 129.29 127.52 134.09 140.07 138.93 C 152.63 143.76 164.47 149.94 175.08 157.92 C 185.69 165.89 194.41 172.61 202.75 183.25 C 211.09 193.89 224.50 199.16 224.20 214.25 C 223.90 229.33 202.47 233.99 193.75 222.25 C 185.03 210.50 178.14 204.91 168.25 194.75 C 158.35 184.60 148.55 179.51 135.92 173.08 C 123.30 166.64 108.76 162.92 93.99 161.01 C 79.23 159.09 57.23 161.40 42.33 159.67 C 27.43 157.94 27.90 127.68 44.02 128.02 C 60.15 128.37 81.54 126.41 98.00 128.00
M 401.00 408.00 
C 407.82 399.36 417.18 392.56 424.00 384.00
C 417.49 380.31 403.90 386.03 396.78 383.22 C 389.66 380.41 379.82 382.18 372.98 379.02 C 366.13 375.86 358.43 375.28 351.98 372.02 C 345.52 368.77 339.41 365.94 333.31 362.70 C 327.20 359.45 322.18 355.20 316.75 351.25 C 311.33 347.29 306.24 343.41 301.75 338.25 C 297.26 333.09 291.93 329.66 287.75 324.25 C 283.58 318.84 278.79 315.26 274.25 309.75 C 269.71 304.24 271.03 294.91 275.25 289.25 C 279.48 283.60 289.34 280.97 295.68 284.32 C 302.01 287.67 304.94 293.37 309.75 298.25 C 314.56 303.13 318.26 307.88 323.25 312.75 C 328.23 317.63 332.56 321.81 338.23 325.77 C 343.90 329.73 348.81 333.52 355.23 336.77 C 361.65 340.02 367.98 342.44 375.07 344.93 C 382.16 347.42 390.05 349.23 398.00 350.00 C 405.96 350.77 415.68 351.90 424.00 352.00
C 415.50 337.93 401.42 337.06 397.01 319.99 C 392.60 302.92 417.80 295.24 427.25 307.75 C 436.69 320.26 448.31 327.15 457.25 337.75 C 466.19 348.35 486.17 358.34 480.22 373.22 C 474.27 388.10 461.84 392.92 451.75 404.75 C 441.67 416.58 433.09 423.45 420.92 433.92 C 408.74 444.38 383.84 420.59 401.00 408.00 Z"/>
</g>
<g fill="None" fill-opacity="0.0" stroke="#9D9D9D" stroke-opacity="0.96" stroke-width="0.3"><path d="
M 424.00 160.00 
C 425.29 160.73 416.02 169.16 413.75 171.75 C 411.48 174.35 403.64 181.15 401.00 184.00
C 383.84 196.59 408.74 220.38 420.92 209.92 C 433.09 199.45 441.67 192.58 451.75 180.75 C 461.84 168.92 474.27 164.10 480.22 149.22 C 486.17 134.34 466.19 124.35 457.25 113.75 C 448.31 103.15 436.69 96.26 427.25 83.75 C 417.81 71.24 392.60 78.92 397.01 95.99 C 401.42 113.06 415.50 113.93 424.00 128.00
C 416.26 128.61 405.65 127.09 398.22 128.22 C 390.79 129.35 383.94 130.48 377.07 132.07 C 370.21 133.66 364.41 136.02 358.08 138.08 C 351.74 140.13 346.07 143.58 340.23 146.23 C 334.39 148.88 329.79 152.22 324.70 155.70 C 319.60 159.17 315.08 162.55 310.25 166.25 C 305.42 169.95 302.54 174.89 297.75 178.75 C 292.97 182.62 289.64 188.09 285.25 192.25 C 280.86 196.40 277.14 200.76 273.25 205.25 C 269.36 209.73 264.74 213.43 261.25 218.25 C 257.76 223.07 251.74 226.52 248.75 231.75 C 245.77 236.98 239.39 238.88 236.30 244.30 C 233.22 249.72 228.16 251.74 224.25 257.25 C 220.35 262.77 217.27 264.11 212.25 270.25 C 207.23 276.39 206.52 276.10 199.75 283.75 C 192.99 291.40 182.92 302.35 175.75 309.75 C 168.58 317.16 168.44 317.05 162.25 322.25 C 156.05 327.44 153.74 328.87 147.70 332.70 C 141.65 336.53 137.41 338.16 131.08 341.08 C 124.74 343.99 119.23 345.61 112.22 347.22 C 105.22 348.83 97.65 350.88 90.00 351.00 C 82.35 351.12 73.77 352.07 66.00 352.00 C 58.23 351.93 48.87 351.14 41.70 352.70 C 34.52 354.25 32.06 361.80 32.00 368.00 C 31.94 374.20 34.97 382.39 42.33 383.67 C 49.69 384.95 59.24 383.73 67.00 384.00 C 74.76 384.27 84.30 384.07 92.00 384.00 C 99.70 383.93 107.70 382.03 114.93 380.93 C 122.15 379.83 127.26 377.07 133.98 374.98 C 140.69 372.89 145.36 371.18 151.77 367.77 C 158.18 364.36 161.09 363.29 167.77 358.77 C 174.45 354.25 174.96 354.12 182.75 347.75 C 190.55 341.39 201.56 330.68 207.75 322.75 C 213.94 314.82 216.17 316.25 220.70 309.70 C 225.22 303.14 228.44 302.45 232.75 296.75 C 237.06 291.04 240.10 289.25 244.75 283.75 C 249.40 278.25 251.30 276.77 256.75 270.75 C 262.20 264.73 262.31 264.78 269.25 257.25 C 276.18 249.72 286.06 238.60 293.25 231.25 C 300.43 223.89 299.86 223.28 305.75 217.75 C 311.65 212.23 312.66 209.44 317.75 204.75 C 322.85 200.07 325.39 196.49 330.25 192.25 C 335.11 188.02 339.50 185.12 344.75 181.75 C 350.01 178.39 355.47 174.56 361.31 172.31 C 367.14 170.05 373.61 166.59 379.78 165.78 C 385.94 164.96 393.77 159.81 400.00 161.00 C 406.23 162.19 418.81 157.06 424.00 160.00 Z"/>
</g>
<g fill="None" fill-opacity="0.0" stroke="#9D9D9D" stroke-opacity="0.96" stroke-width="0.3"><path d="
M 98.00 128.00 
C 81.54 126.41 60.15 128.37 44.02 128.02 C 27.90 127.68 27.43 157.94 42.33 159.67 C 57.23 161.40 79.23 159.09 93.99 161.01 C 108.76 162.92 123.30 166.64 135.92 173.08 C 148.55 179.51 158.35 184.60 168.25 194.75 C 178.14 204.91 185.03 210.50 193.75 222.25 C 202.47 233.99 223.90 229.33 224.20 214.25 C 224.50 199.16 211.09 193.89 202.75 183.25 C 194.41 172.61 185.69 165.89 175.08 157.92 C 164.47 149.94 152.63 143.76 140.07 138.93 C 127.52 134.09 111.35 129.29 98.00 128.00 Z"/>
</g>
<g fill="None" fill-opacity="0.0" stroke="#FFFFFF" stroke-opacity="0.00" stroke-width="0.3"><path d="
M 401.00 184.00 
C 403.64 181.15 411.48 174.35 413.75 171.75 C 416.02 169.16 425.29 160.73 424.00 160.00
C 417.18 168.56 407.82 175.36 401.00 184.00 Z"/>
</g>
<g fill="None" fill-opacity="0.0" stroke="#9D9D9D" stroke-opacity="0.96" stroke-width="0.3"><path d="
M 424.00 384.00 
C 425.29 384.73 416.02 393.16 413.75 395.75 C 411.48 398.35 403.64 405.15 401.00 408.00
C 383.84 420.59 408.74 444.38 420.92 433.92 C 433.09 423.45 441.67 416.58 451.75 404.75 C 461.84 392.92 474.27 388.10 480.22 373.22 C 486.17 358.34 466.19 348.35 457.25 337.75 C 448.31 327.15 436.69 320.26 427.25 307.75 C 417.80 295.24 392.60 302.92 397.01 319.99 C 401.42 337.06 415.50 337.93 424.00 352.00
C 415.68 351.90 405.96 350.77 398.00 350.00 C 390.05 349.23 382.16 347.42 375.07 344.93 C 367.98 342.44 361.65 340.02 355.23 336.77 C 348.81 333.52 343.90 329.73 338.23 325.77 C 332.56 321.81 328.23 317.63 323.25 312.75 C 318.26 307.88 314.56 303.13 309.75 298.25 C 304.94 293.37 302.01 287.67 295.68 284.32 C 289.34 280.97 279.48 283.60 275.25 289.25 C 271.03 294.91 269.71 304.24 274.25 309.75 C 278.79 315.26 283.58 318.84 287.75 324.25 C 291.93 329.66 297.26 333.09 301.75 338.25 C 306.24 343.41 311.33 347.29 316.75 351.25 C 322.18 355.20 327.20 359.45 333.31 362.70 C 339.41 365.94 345.52 368.77 351.98 372.02 C 358.43 375.28 366.13 375.86 372.98 379.02 C 379.82 382.18 389.66 380.41 396.78 383.22 C 403.90 386.03 417.49 380.31 424.00 384.00 Z"/>
</g>
<g fill="None" fill-opacity="0.0" stroke="#FFFFFF" stroke-opacity="0.00" stroke-width="0.3"><path d="
M 401.00 408.00 
C 403.64 405.15 411.48 398.35 413.75 395.75 C 416.02 393.16 425.29 384.73 424.00 384.00
C 417.18 392.56 407.82 399.36 401.00 408.00 Z"/>
</g>
<g fill="#000000" fill-opacity="0.00" stroke="None">
<path d="
M 0.00 512.00 
L 512.00 512.00
L 512.00 0.00
L 0.00 0.00
L 0.00 512.00
M 401.00 184.00 
C 407.82 175.36 417.18 168.56 424.00 160.00
C 418.81 157.06 406.23 162.19 400.00 161.00 C 393.77 159.81 385.94 164.96 379.78 165.78 C 373.61 166.59 367.14 170.05 361.31 172.31 C 355.47 174.56 350.01 178.39 344.75 181.75 C 339.50 185.12 335.11 188.02 330.25 192.25 C 325.39 196.49 322.85 200.07 317.75 204.75 C 312.66 209.44 311.65 212.23 305.75 217.75 C 299.86 223.28 300.43 223.89 293.25 231.25 C 286.06 238.60 276.18 249.72 269.25 257.25 C 262.31 264.78 262.20 264.73 256.75 270.75 C 251.30 276.77 249.40 278.25 244.75 283.75 C 240.10 289.25 237.06 291.04 232.75 296.75 C 228.44 302.45 225.22 303.14 220.70 309.70 C 216.17 316.25 213.94 314.82 207.75 322.75 C 201.56 330.68 190.55 341.39 182.75 347.75 C 174.96 354.12 174.45 354.25 167.77 358.77 C 161.09 363.29 158.18 364.36 151.77 367.77 C 145.36 371.18 140.69 372.89 133.98 374.98 C 127.26 377.07 122.15 379.83 114.93 380.93 C 107.70 382.03 99.70 383.93 92.00 384.00 C 84.30 384.07 74.76 384.27 67.00 384.00 C 59.24 383.73 49.69 384.95 42.33 383.67 C 34.97 382.39 31.94 374.20 32.00 368.00 C 32.06 361.80 34.52 354.25 41.70 352.70 C 48.87 351.14 58.23 351.93 66.00 352.00 C 73.77 352.07 82.35 351.12 90.00 351.00 C 97.65 350.88 105.22 348.83 112.22 347.22 C 119.23 345.61 124.74 343.99 131.08 341.08 C 137.41 338.16 141.65 336.53 147.70 332.70 C 153.74 328.87 156.05 327.44 162.25 322.25 C 168.44 317.05 168.58 317.16 175.75 309.75 C 182.92 302.35 192.99 291.40 199.75 283.75 C 206.52 276.10 207.23 276.39 212.25 270.25 C 217.27 264.11 220.35 262.77 224.25 257.25 C 228.16 251.74 233.22 249.72 236.30 244.30 C 239.39 238.88 245.77 236.98 248.75 231.75 C 251.74 226.52 257.76 223.07 261.25 218.25 C 264.74 213.43 269.36 209.73 273.25 205.25 C 277.14 200.76 280.86 196.40 285.25 192.25 C 289.64 188.09 292.97 182.62 297.75 178.75 C 302.54 174.89 305.42 169.95 310.25 166.25 C 315.08 162.55 319.60 159.17 324.70 155.70 C 329.79 152.22 334.39 148.88 340.23 146.23 C 346.07 143.58 351.74 140.13 358.08 138.08 C 364.41 136.02 370.21 133.66 377.07 132.07 C 383.94 130.48 390.79 129.35 398.22 128.22 C 405.65 127.09 416.26 128.61 424.00 128.00
C 415.50 113.93 401.42 113.06 397.01 95.99 C 392.60 78.92 417.81 71.24 427.25 83.75 C 436.69 96.26 448.31 103.15 457.25 113.75 C 466.19 124.35 486.17 134.34 480.22 149.22 C 474.27 164.10 461.84 168.92 451.75 180.75 C 441.67 192.58 433.09 199.45 420.92 209.92 C 408.74 220.38 383.84 196.59 401.00 184.00
M 98.00 128.00 
C 111.35 129.29 127.52 134.09 140.07 138.93 C 152.63 143.76 164.47 149.94 175.08 157.92 C 185.69 165.89 194.41 172.61 202.75 183.25 C 211.09 193.89 224.50 199.16 224.20 214.25 C 223.90 229.33 202.47 233.99 193.75 222.25 C 185.03 210.50 178.14 204.91 168.25 194.75 C 158.35 184.60 148.55 179.51 135.92 173.08 C 123.30 166.64 108.76 162.92 93.99 161.01 C 79.23 159.09 57.23 161.40 42.33 159.67 C 27.43 157.94 27.90 127.68 44.02 128.02 C 60.15 128.37 81.54 126.41 98.00 128.00
M 401.00 408.00 
C 407.82 399.36 417.18 392.56 424.00 384.00
C 417.49 380.31 403.90 386.03 396.78 383.22 C 389.66 380.41 379.82 382.18 372.98 379.02 C 366.13 375.86 358.43 375.28 351.98 372.02 C 345.52 368.77 339.41 365.94 333.31 362.70 C 327.20 359.45 322.18 355.20 316.75 351.25 C 311.33 347.29 306.24 343.41 301.75 338.25 C 297.26 333.09 291.93 329.66 287.75 324.25 C 283.58 318.84 278.79 315.26 274.25 309.75 C 269.71 304.24 271.03 294.91 275.25 289.25 C 279.48 283.60 289.34 280.97 295.68 284.32 C 302.01 287.67 304.94 293.37 309.75 298.25 C 314.56 303.13 318.26 307.88 323.25 312.75 C 328.23 317.63 332.56 321.81 338.23 325.77 C 343.90 329.73 348.81 333.52 355.23 336.77 C 361.65 340.02 367.98 342.44 375.07 344.93 C 382.16 347.42 390.05 349.23 398.00 350.00 C 405.96 350.77 415.68 351.90 424.00 352.00
C 415.50 337.93 401.42 337.06 397.01 319.99 C 392.60 302.92 417.80 295.24 427.25 307.75 C 436.69 320.26 448.31 327.15 457.25 337.75 C 466.19 348.35 486.17 358.34 480.22 373.22 C 474.27 388.10 461.84 392.92 451.75 404.75 C 441.67 416.58 433.09 423.45 420.92 433.92 C 408.74 444.38 383.84 420.59 401.00 408.00 Z"/>
</g>
<g fill="#9D9D9D" fill-opacity="0.96" stroke="None">
<path d="
M 424.00 160.00 
C 425.29 160.73 416.02 169.16 413.75 171.75 C 411.48 174.35 403.64 181.15 401.00 184.00
C 383.84 196.59 408.74 220.38 420.92 209.92 C 433.09 199.45 441.67 192.58 451.75 180.75 C 461.84 168.92 474.27 164.10 480.22 149.22 C 486.17 134.34 466.19 124.35 457.25 113.75 C 448.31 103.15 436.69 96.26 427.25 83.75 C 417.81 71.24 392.60 78.92 397.01 95.99 C 401.42 113.06 415.50 113.93 424.00 128.00
C 416.26 128.61 405.65 127.09 398.22 128.22 C 390.79 129.35 383.94 130.48 377.07 132.07 C 370.21 133.66 364.41 136.02 358.08 138.08 C 351.74 140.13 346.07 143.58 340.23 146.23 C 334.39 148.88 329.79 152.22 324.70 155.70 C 319.60 159.17 315.08 162.55 310.25 166.25 C 305.42 169.95 302.54 174.89 297.75 178.75 C 292.97 182.62 289.64 188.09 285.25 192.25 C 280.86 196.40 277.14 200.76 273.25 205.25 C 269.36 209.73 264.74 213.43 261.25 218.25 C 257.76 223.07 251.74 226.52 248.75 231.75 C 245.77 236.98 239.39 238.88 236.30 244.30 C 233.22 249.72 228.16 251.74 224.25 257.25 C 220.35 262.77 217.27 264.11 212.25 270.25 C 207.23 276.39 206.52 276.10 199.75 283.75 C 192.99 291.40 182.92 302.35 175.75 309.75 C 168.58 317.16 168.44 317.05 162.25 322.25 C 156.05 327.44 153.74 328.87 147.70 332.70 C 141.65 336.53 137.41 338.16 131.08 341.08 C 124.74 343.99 119.23 345.61 112.22 347.22 C 105.22 348.83 97.65 350.88 90.00 351.00 C 82.35 351.12 73.77 352.07 66.00 352.00 C 58.23 351.93 48.87 351.14 41.70 352.70 C 34.52 354.25 32.06 361.80 32.00 368.00 C 31.94 374.20 34.97 382.39 42.33 383.67 C 49.69 384.95 59.24 383.73 67.00 384.00 C 74.76 384.27 84.30 384.07 92.00 384.00 C 99.70 383.93 107.70 382.03 114.93 380.93 C 122.15 379.83 127.26 377.07 133.98 374.98 C 140.69 372.89 145.36 371.18 151.77 367.77 C 158.18 364.36 161.09 363.29 167.77 358.77 C 174.45 354.25 174.96 354.12 182.75 347.75 C 190.55 341.39 201.56 330.68 207.75 322.75 C 213.94 314.82 216.17 316.25 220.70 309.70 C 225.22 303.14 228.44 302.45 232.75 296.75 C 237.06 291.04 240.10 289.25 244.75 283.75 C 249.40 278.25 251.30 276.77 256.75 270.75 C 262.20 264.73 262.31 264.78 269.25 257.25 C 276.18 249.72 286.06 238.60 293.25 231.25 C 300.43 223.89 299.86 223.28 305.75 217.75 C 311.65 212.23 312.66 209.44 317.75 204.75 C 322.85 200.07 325.39 196.49 330.25 192.25 C 335.11 188.02 339.50 185.12 344.75 181.75 C 350.01 178.39 355.47 174.56 361.31 172.31 C 367.14 170.05 373.61 166.59 379.78 165.78 C 385.94 164.96 393.77 159.81 400.00 161.00 C 406.23 162.19 418.81 157.06 424.00 160.00 Z"/>
</g>
<g fill="#9D9D9D" fill-opacity="0.96" stroke="None">
<path d="
M 98.00 128.00 
C 81.54 126.41 60.15 128.37 44.02 128.02 C 27.90 127.68 27.43 157.94 42.33 159.67 C 57.23 161.40 79.23 159.09 93.99 161.01 C 108.76 162.92 123.30 166.64 135.92 173.08 C 148.55 179.51 158.35 184.60 168.25 194.75 C 178.14 204.91 185.03 210.50 193.75 222.25 C 202.47 233.99 223.90 229.33 224.20 214.25 C 224.50 199.16 211.09 193.89 202.75 183.25 C 194.41 172.61 185.69 165.89 175.08 157.92 C 164.47 149.94 152.63 143.76 140.07 138.93 C 127.52 134.09 111.35 129.29 98.00 128.00 Z"/>
</g>
<g fill="#FFFFFF" fill-opacity="0.00" stroke="None">
<path d="
M 401.00 184.00 
C 403.64 181.15 411.48 174.35 413.75 171.75 C 416.02 169.16 425.29 160.73 424.00 160.00
C 417.18 168.56 407.82 175.36 401.00 184.00 Z"/>
</g>
<g fill="#9D9D9D" fill-opacity="0.96" stroke="None">
<path d="
M 424.00 384.00 
C 425.29 384.73 416.02 393.16 413.75 395.75 C 411.48 398.35 403.64 405.15 401.00 408.00
C 383.84 420.59 408.74 444.38 420.92 433.92 C 433.09 423.45 441.67 416.58 451.75 404.75 C 461.84 392.92 474.27 388.10 480.22 373.22 C 486.17 358.34 466.19 348.35 457.25 337.75 C 448.31 327.15 436.69 320.26 427.25 307.75 C 417.80 295.24 392.60 302.92 397.01 319.99 C 401.42 337.06 415.50 337.93 424.00 352.00
C 415.68 351.90 405.96 350.77 398.00 350.00 C 390.05 349.23 382.16 347.42 375.07 344.93 C 367.98 342.44 361.65 340.02 355.23 336.77 C 348.81 333.52 343.90 329.73 338.23 325.77 C 332.56 321.81 328.23 317.63 323.25 312.75 C 318.26 307.88 314.56 303.13 309.75 298.25 C 304.94 293.37 302.01 287.67 295.68 284.32 C 289.34 280.97 279.48 283.60 275.25 289.25 C 271.03 294.91 269.71 304.24 274.25 309.75 C 278.79 315.26 283.58 318.84 287.75 324.25 C 291.93 329.66 297.26 333.09 301.75 338.25 C 306.24 343.41 311.33 347.29 316.75 351.25 C 322.18 355.20 327.20 359.45 333.31 362.70 C 339.41 365.94 345.52 368.77 351.98 372.02 C 358.43 375.28 366.13 375.86 372.98 379.02 C 379.82 382.18 389.66 380.41 396.78 383.22 C 403.90 386.03 417.49 380.31 424.00 384.00 Z"/>
</g>
<g fill="#FFFFFF" fill-opacity="0.00" stroke="None">
<path d="
M 401.00 408.00 
C 403.64 405.15 411.48 398.35 413.75 395.75 C 416.02 393.16 425.29 384.73 424.00 384.00
C 417.18 392.56 407.82 399.36 401.00 408.00 Z"/>
</g>
</svg>