<svg xmlns="http://www.w3.org/2000/svg" xmlns:v="https://svgstorm.com"
viewBox = "0 0 512 512"
width="512"
height="512">
<g fill="None" fill-opacity="0.0" stroke="#000000" stroke-opacity="0.00" stroke-width="0.3"><path d="
M 0.00 512.00 
L 512.00 512.00
L 512.00 0.00
L 0.00 0.00
L 0.00 512.00
M 264.00 68.00 
C 280.90 70.74 293.77 86.03 294.00 105.00 C 294.23 123.98 293.88 152.13 294.00 173.00 C 294.12 193.87 293.90 219.43 294.00 241.00 C 294.10 262.57 293.87 287.47 294.00 309.00 C 294.13 330.53 293.74 356.26 294.00 377.00 C 294.26 397.74 296.68 419.28 282.75 433.75 C 268.82 448.22 248.35 446.82 233.75 437.25 C 219.16 427.67 208.21 418.68 193.92 409.08 C 179.63 399.48 168.91 390.52 154.25 380.75 C 139.60 370.97 129.43 358.27 110.00 358.00 C 90.57 357.73 64.50 362.17 46.31 353.69 C 28.11 345.22 24.55 325.70 26.00 306.00 C 27.45 286.30 24.52 258.49 26.00 238.00 C 27.48 217.51 21.68 192.84 30.31 174.31 C 38.93 155.77 59.33 152.87 78.00 154.00 C 96.67 155.13 122.45 156.46 136.23 144.23 C 150.01 132.00 162.15 126.84 175.75 115.75 C 189.35 104.67 201.93 98.55 215.70 87.70 C 229.46 76.84 244.64 64.86 264.00 68.00
M 389.00 69.00 
C 401.38 72.07 409.90 86.49 420.25 94.75 C 430.59 103.02 438.11 115.73 446.30 126.70 C 454.50 137.67 461.06 150.78 466.92 164.08 C 472.79 177.37 477.64 191.87 480.93 207.07 C 484.21 222.28 486.08 243.56 486.00 260.00 C 485.92 276.44 482.62 295.99 479.07 311.07 C 475.53 326.16 470.87 340.18 464.23 353.23 C 457.59 366.28 452.23 379.30 443.08 390.08 C 433.94 400.86 427.66 412.79 416.25 421.25 C 404.84 429.71 396.61 445.84 380.00 443.00 C 363.39 440.16 366.18 416.12 379.25 409.25 C 392.31 402.37 398.40 390.59 408.30 380.30 C 418.21 370.02 424.39 358.14 431.31 345.31 C 438.22 332.47 443.21 318.89 446.98 303.98 C 450.74 289.06 453.33 268.33 453.00 252.00 C 452.67 235.67 449.40 216.81 445.07 201.93 C 440.75 187.04 436.04 174.46 428.70 161.31 C 421.35 148.15 414.66 138.78 404.75 127.25 C 394.84 115.72 387.25 109.07 374.75 99.25 C 362.26 89.42 368.83 64.00 389.00 69.00
M 347.00 144.00 
C 358.79 146.92 366.50 160.93 375.25 169.75 C 384.00 178.57 390.18 190.91 395.77 203.23 C 401.36 215.55 404.24 232.62 405.78 247.22 C 407.32 261.82 403.84 282.21 400.02 296.02 C 396.21 309.84 389.80 320.31 382.70 332.70 C 375.59 345.08 366.27 349.53 356.77 360.77 C 347.27 372.01 323.98 368.67 325.00 352.00 C 326.03 335.33 340.59 334.18 348.77 321.77 C 356.95 309.36 363.78 301.53 367.98 286.98 C 372.17 272.42 374.16 254.06 371.07 238.93 C 367.99 223.80 364.42 212.74 356.23 199.77 C 348.04 186.80 341.17 183.18 329.77 172.23 C 318.37 161.28 328.78 139.49 347.00 144.00 Z"/>
</g>
<g fill="None" fill-opacity="0.0" stroke="#FFFFFF" stroke-opacity="0.96" stroke-width="0.3"><path d="
M 264.00 68.00 
C 244.64 64.86 229.46 76.84 215.70 87.70 C 201.93 98.55 189.35 104.67 175.75 115.75 C 162.15 126.84 150.01 132.00 136.23 144.23 C 122.45 156.46 96.67 155.13 78.00 154.00 C 59.33 152.87 38.93 155.77 30.31 174.31 C 21.68 192.84 27.48 217.51 26.00 238.00 C 24.52 258.49 27.45 286.30 26.00 306.00 C 24.55 325.70 28.11 345.22 46.31 353.69 C 64.50 362.17 90.57 357.73 110.00 358.00 C 129.43 358.27 139.60 370.97 154.25 380.75 C 168.91 390.52 179.63 399.48 193.92 409.08 C 208.21 418.68 219.16 427.67 233.75 437.25 C 248.35 446.82 268.82 448.22 282.75 433.75 C 296.68 419.28 294.26 397.74 294.00 377.00 C 293.74 356.26 294.13 330.53 294.00 309.00 C 293.87 287.47 294.10 262.57 294.00 241.00 C 293.90 219.43 294.12 193.87 294.00 173.00 C 293.88 152.13 294.23 123.98 294.00 105.00 C 293.77 86.03 280.90 70.74 264.00 68.00
M 259.00 101.00 
C 264.43 103.78 259.91 115.99 261.00 122.00 C 262.09 128.01 260.51 138.90 261.00 146.00 C 261.49 153.10 260.78 162.42 261.00 170.00 C 261.22 177.58 260.90 186.22 261.00 194.00 C 261.10 201.78 260.96 210.17 261.00 218.00 C 261.04 225.83 260.99 233.13 261.00 241.00 C 261.01 248.87 261.01 257.07 261.00 265.00 C 260.99 272.93 261.03 281.05 261.00 289.00 C 260.97 296.95 261.08 305.08 261.00 313.00 C 260.92 320.92 261.18 329.15 261.00 337.00 C 260.82 344.85 261.42 352.23 261.00 360.00 C 260.58 367.77 261.89 376.35 261.00 384.00 C 260.11 391.65 263.10 400.46 260.67 407.67 C 258.24 414.88 250.15 408.85 245.77 405.23 C 241.39 401.61 237.53 399.55 231.77 395.23 C 226.01 390.91 225.63 390.93 217.77 385.23 C 209.91 379.53 198.28 371.25 190.30 365.70 C 182.33 360.15 182.53 360.04 176.30 355.70 C 170.08 351.35 167.81 349.53 162.30 345.70 C 156.79 341.87 153.66 339.37 148.30 335.70 C 142.95 332.03 140.34 329.59 133.92 327.08 C 127.51 324.57 119.51 325.14 112.00 325.00 C 104.49 324.86 95.75 325.55 88.00 325.00 C 80.25 324.45 71.82 326.32 64.00 325.00 C 56.18 323.68 59.39 312.50 59.00 306.00 C 58.61 299.50 59.09 290.23 59.00 283.00 C 58.91 275.77 58.87 266.49 59.00 259.00 C 59.13 251.51 58.57 242.42 59.00 235.00 C 59.43 227.58 57.98 217.95 59.00 211.00 C 60.02 204.05 55.90 193.73 60.75 188.75 C 65.61 183.78 76.24 188.11 83.00 187.00 C 89.76 185.89 98.81 187.43 106.00 187.00 C 113.19 186.57 122.18 187.49 129.07 186.07 C 135.96 184.66 139.44 182.13 145.25 178.25 C 151.06 174.36 152.85 172.59 159.25 168.25 C 165.64 163.91 165.11 163.71 173.25 158.25 C 181.39 152.79 193.02 144.59 201.08 139.08 C 209.14 133.57 208.88 133.18 215.08 129.08 C 221.28 124.98 223.72 122.30 229.08 119.08 C 234.44 115.86 238.11 111.34 243.08 109.08 C 248.05 106.82 252.98 97.92 259.00 101.00 Z"/>
</g>
<g fill="None" fill-opacity="0.0" stroke="#FFFFFF" stroke-opacity="0.96" stroke-width="0.3"><path d="
M 389.00 69.00 
C 368.83 64.00 362.26 89.42 374.75 99.25 C 387.25 109.07 394.84 115.72 404.75 127.25 C 414.66 138.78 421.35 148.15 428.70 161.31 C 436.04 174.46 440.75 187.04 445.07 201.93 C 449.40 216.81 452.67 235.67 453.00 252.00 C 453.33 268.33 450.74 289.06 446.98 303.98 C 443.21 318.89 438.22 332.47 431.31 345.31 C 424.39 358.14 418.21 370.02 408.30 380.30 C 398.40 390.59 392.31 402.37 379.25 409.25 C 366.18 416.12 363.39 440.16 380.00 443.00 C 396.61 445.84 404.84 429.71 416.25 421.25 C 427.66 412.79 433.94 400.86 443.08 390.08 C 452.23 379.30 457.59 366.28 464.23 353.23 C 470.87 340.18 475.53 326.16 479.07 311.07 C 482.62 295.99 485.92 276.44 486.00 260.00 C 486.08 243.56 484.21 222.28 480.93 207.07 C 477.64 191.87 472.79 177.37 466.92 164.08 C 461.06 150.78 454.50 137.67 446.30 126.70 C 438.11 115.73 430.59 103.02 420.25 94.75 C 409.90 86.49 401.38 72.07 389.00 69.00 Z"/>
</g>
<g fill="None" fill-opacity="0.0" stroke="#000000" stroke-opacity="0.00" stroke-width="0.3"><path d="
M 259.00 101.00 
C 252.98 97.92 248.05 106.82 243.08 109.08 C 238.11 111.34 234.44 115.86 229.08 119.08 C 223.72 122.30 221.28 124.98 215.08 129.08 C 208.88 133.18 209.14 133.57 201.08 139.08 C 193.02 144.59 181.39 152.79 173.25 158.25 C 165.11 163.71 165.64 163.91 159.25 168.25 C 152.85 172.59 151.06 174.36 145.25 178.25 C 139.44 182.13 135.96 184.66 129.07 186.07 C 122.18 187.49 113.19 186.57 106.00 187.00 C 98.81 187.43 89.76 185.89 83.00 187.00 C 76.24 188.11 65.61 183.78 60.75 188.75 C 55.90 193.73 60.02 204.05 59.00 211.00 C 57.98 217.95 59.43 227.58 59.00 235.00 C 58.57 242.42 59.13 251.51 59.00 259.00 C 58.87 266.49 58.91 275.77 59.00 283.00 C 59.09 290.23 58.61 299.50 59.00 306.00 C 59.39 312.50 56.18 323.68 64.00 325.00 C 71.82 326.32 80.25 324.45 88.00 325.00 C 95.75 325.55 104.49 324.86 112.00 325.00 C 119.51 325.14 127.51 324.57 133.92 327.08 C 140.34 329.59 142.95 332.03 148.30 335.70 C 153.66 339.37 156.79 341.87 162.30 345.70 C 167.81 349.53 170.08 351.35 176.30 355.70 C 182.53 360.04 182.33 360.15 190.30 365.70 C 198.28 371.25 209.91 379.53 217.77 385.23 C 225.63 390.93 226.01 390.91 231.77 395.23 C 237.53 399.55 241.39 401.61 245.77 405.23 C 250.15 408.85 258.24 414.88 260.67 407.67 C 263.10 400.46 260.11 391.65 261.00 384.00 C 261.89 376.35 260.58 367.77 261.00 360.00 C 261.42 352.23 260.82 344.85 261.00 337.00 C 261.18 329.15 260.92 320.92 261.00 313.00 C 261.08 305.08 260.97 296.95 261.00 289.00 C 261.03 281.05 260.99 272.93 261.00 265.00 C 261.01 257.07 261.01 248.87 261.00 241.00 C 260.99 233.13 261.04 225.83 261.00 218.00 C 260.96 210.17 261.10 201.78 261.00 194.00 C 260.90 186.22 261.22 177.58 261.00 170.00 C 260.78 162.42 261.49 153.10 261.00 146.00 C 260.51 138.90 262.09 128.01 261.00 122.00 C 259.91 115.99 264.43 103.78 259.00 101.00 Z"/>
</g>
<g fill="None" fill-opacity="0.0" stroke="#FFFFFF" stroke-opacity="0.96" stroke-width="0.3"><path d="
M 347.00 144.00 
C 328.78 139.49 318.37 161.28 329.77 172.23 C 341.17 183.18 348.04 186.80 356.23 199.77 C 364.42 212.74 367.99 223.80 371.07 238.93 C 374.16 254.06 372.17 272.42 367.98 286.98 C 363.78 301.53 356.95 309.36 348.77 321.77 C 340.59 334.18 326.03 335.33 325.00 352.00 C 323.98 368.67 347.27 372.01 356.77 360.77 C 366.27 349.53 375.59 345.08 382.70 332.70 C 389.80 320.31 396.21 309.84 400.02 296.02 C 403.84 282.21 407.32 261.82 405.78 247.22 C 404.24 232.62 401.36 215.55 395.77 203.23 C 390.18 190.91 384.00 178.57 375.25 169.75 C 366.50 160.93 358.79 146.92 347.00 144.00 Z"/>
</g>
<g fill="#000000" fill-opacity="0.00" stroke="None">
<path d="
M 0.00 512.00 
L 512.00 512.00
L 512.00 0.00
L 0.00 0.00
L 0.00 512.00
M 264.00 68.00 
C 280.90 70.74 293.77 86.03 294.00 105.00 C 294.23 123.98 293.88 152.13 294.00 173.00 C 294.12 193.87 293.90 219.43 294.00 241.00 C 294.10 262.57 293.87 287.47 294.00 309.00 C 294.13 330.53 293.74 356.26 294.00 377.00 C 294.26 397.74 296.68 419.28 282.75 433.75 C 268.82 448.22 248.35 446.82 233.75 437.25 C 219.16 427.67 208.21 418.68 193.92 409.08 C 179.63 399.48 168.91 390.52 154.25 380.75 C 139.60 370.97 129.43 358.27 110.00 358.00 C 90.57 357.73 64.50 362.17 46.31 353.69 C 28.11 345.22 24.55 325.70 26.00 306.00 C 27.45 286.30 24.52 258.49 26.00 238.00 C 27.48 217.51 21.68 192.84 30.31 174.31 C 38.93 155.77 59.33 152.87 78.00 154.00 C 96.67 155.13 122.45 156.46 136.23 144.23 C 150.01 132.00 162.15 126.84 175.75 115.75 C 189.35 104.67 201.93 98.55 215.70 87.70 C 229.46 76.84 244.64 64.86 264.00 68.00
M 389.00 69.00 
C 401.38 72.07 409.90 86.49 420.25 94.75 C 430.59 103.02 438.11 115.73 446.30 126.70 C 454.50 137.67 461.06 150.78 466.92 164.08 C 472.79 177.37 477.64 191.87 480.93 207.07 C 484.21 222.28 486.08 243.56 486.00 260.00 C 485.92 276.44 482.62 295.99 479.07 311.07 C 475.53 326.16 470.87 340.18 464.23 353.23 C 457.59 366.28 452.23 379.30 443.08 390.08 C 433.94 400.86 427.66 412.79 416.25 421.25 C 404.84 429.71 396.61 445.84 380.00 443.00 C 363.39 440.16 366.18 416.12 379.25 409.25 C 392.31 402.37 398.40 390.59 408.30 380.30 C 418.21 370.02 424.39 358.14 431.31 345.31 C 438.22 332.47 443.21 318.89 446.98 303.98 C 450.74 289.06 453.33 268.33 453.00 252.00 C 452.67 235.67 449.40 216.81 445.07 201.93 C 440.75 187.04 436.04 174.46 428.70 161.31 C 421.35 148.15 414.66 138.78 404.75 127.25 C 394.84 115.72 387.25 109.07 374.75 99.25 C 362.26 89.42 368.83 64.00 389.00 69.00
M 347.00 144.00 
C 358.79 146.92 366.50 160.93 375.25 169.75 C 384.00 178.57 390.18 190.91 395.77 203.23 C 401.36 215.55 404.24 232.62 405.78 247.22 C 407.32 261.82 403.84 282.21 400.02 296.02 C 396.21 309.84 389.80 320.31 382.70 332.70 C 375.59 345.08 366.27 349.53 356.77 360.77 C 347.27 372.01 323.98 368.67 325.00 352.00 C 326.03 335.33 340.59 334.18 348.77 321.77 C 356.95 309.36 363.78 301.53 367.98 286.98 C 372.17 272.42 374.16 254.06 371.07 238.93 C 367.99 223.80 364.42 212.74 356.23 199.77 C 348.04 186.80 341.17 183.18 329.77 172.23 C 318.37 161.28 328.78 139.49 347.00 144.00 Z"/>
</g>
<g fill="#FFFFFF" fill-opacity="0.96" stroke="None">
<path d="
M 264.00 68.00 
C 244.64 64.86 229.46 76.84 215.70 87.70 C 201.93 98.55 189.35 104.67 175.75 115.75 C 162.15 126.84 150.01 132.00 136.23 144.23 C 122.45 156.46 96.67 155.13 78.00 154.00 C 59.33 152.87 38.93 155.77 30.31 174.31 C 21.68 192.84 27.48 217.51 26.00 238.00 C 24.52 258.49 27.45 286.30 26.00 306.00 C 24.55 325.70 28.11 345.22 46.31 353.69 C 64.50 362.17 90.57 357.73 110.00 358.00 C 129.43 358.27 139.60 370.97 154.25 380.75 C 168.91 390.52 179.63 399.48 193.92 409.08 C 208.21 418.68 219.16 427.67 233.75 437.25 C 248.35 446.82 268.82 448.22 282.75 433.75 C 296.68 419.28 294.26 397.74 294.00 377.00 C 293.74 356.26 294.13 330.53 294.00 309.00 C 293.87 287.47 294.10 262.57 294.00 241.00 C 293.90 219.43 294.12 193.87 294.00 173.00 C 293.88 152.13 294.23 123.98 294.00 105.00 C 293.77 86.03 280.90 70.74 264.00 68.00
M 259.00 101.00 
C 264.43 103.78 259.91 115.99 261.00 122.00 C 262.09 128.01 260.51 138.90 261.00 146.00 C 261.49 153.10 260.78 162.42 261.00 170.00 C 261.22 177.58 260.90 186.22 261.00 194.00 C 261.10 201.78 260.96 210.17 261.00 218.00 C 261.04 225.83 260.99 233.13 261.00 241.00 C 261.01 248.87 261.01 257.07 261.00 265.00 C 260.99 272.93 261.03 281.05 261.00 289.00 C 260.97 296.95 261.08 305.08 261.00 313.00 C 260.92 320.92 261.18 329.15 261.00 337.00 C 260.82 344.85 261.42 352.23 261.00 360.00 C 260.58 367.77 261.89 376.35 261.00 384.00 C 260.11 391.65 263.10 400.46 260.67 407.67 C 258.24 414.88 250.15 408.85 245.77 405.23 C 241.39 401.61 237.53 399.55 231.77 395.23 C 226.01 390.91 225.63 390.93 217.77 385.23 C 209.91 379.53 198.28 371.25 190.30 365.70 C 182.33 360.15 182.53 360.04 176.30 355.70 C 170.08 351.35 167.81 349.53 162.30 345.70 C 156.79 341.87 153.66 339.37 148.30 335.70 C 142.95 332.03 140.34 329.59 133.92 327.08 C 127.51 324.57 119.51 325.14 112.00 325.00 C 104.49 324.86 95.75 325.55 88.00 325.00 C 80.25 324.45 71.82 326.32 64.00 325.00 C 56.18 323.68 59.39 312.50 59.00 306.00 C 58.61 299.50 59.09 290.23 59.00 283.00 C 58.91 275.77 58.87 266.49 59.00 259.00 C 59.13 251.51 58.57 242.42 59.00 235.00 C 59.43 227.58 57.98 217.95 59.00 211.00 C 60.02 204.05 55.90 193.73 60.75 188.75 C 65.61 183.78 76.24 188.11 83.00 187.00 C 89.76 185.89 98.81 187.43 106.00 187.00 C 113.19 186.57 122.18 187.49 129.07 186.07 C 135.96 184.66 139.44 182.13 145.25 178.25 C 151.06 174.36 152.85 172.59 159.25 168.25 C 165.64 163.91 165.11 163.71 173.25 158.25 C 181.39 152.79 193.02 144.59 201.08 139.08 C 209.14 133.57 208.88 133.18 215.08 129.08 C 221.28 124.98 223.72 122.30 229.08 119.08 C 234.44 115.86 238.11 111.34 243.08 109.08 C 248.05 106.82 252.98 97.92 259.00 101.00 Z"/>
</g>
<g fill="#FFFFFF" fill-opacity="0.96" stroke="None">
<path d="
M 389.00 69.00 
C 368.83 64.00 362.26 89.42 374.75 99.25 C 387.25 109.07 394.84 115.72 404.75 127.25 C 414.66 138.78 421.35 148.15 428.70 161.31 C 436.04 174.46 440.75 187.04 445.07 201.93 C 449.40 216.81 452.67 235.67 453.00 252.00 C 453.33 268.33 450.74 289.06 446.98 303.98 C 443.21 318.89 438.22 332.47 431.31 345.31 C 424.39 358.14 418.21 370.02 408.30 380.30 C 398.40 390.59 392.31 402.37 379.25 409.25 C 366.18 416.12 363.39 440.16 380.00 443.00 C 396.61 445.84 404.84 429.71 416.25 421.25 C 427.66 412.79 433.94 400.86 443.08 390.08 C 452.23 379.30 457.59 366.28 464.23 353.23 C 470.87 340.18 475.53 326.16 479.07 311.07 C 482.62 295.99 485.92 276.44 486.00 260.00 C 486.08 243.56 484.21 222.28 480.93 207.07 C 477.64 191.87 472.79 177.37 466.92 164.08 C 461.06 150.78 454.50 137.67 446.30 126.70 C 438.11 115.73 430.59 103.02 420.25 94.75 C 409.90 86.49 401.38 72.07 389.00 69.00 Z"/>
</g>
<g fill="#000000" fill-opacity="0.00" stroke="None">
<path d="
M 259.00 101.00 
C 252.98 97.92 248.05 106.82 243.08 109.08 C 238.11 111.34 234.44 115.86 229.08 119.08 C 223.72 122.30 221.28 124.98 215.08 129.08 C 208.88 133.18 209.14 133.57 201.08 139.08 C 193.02 144.59 181.39 152.79 173.25 158.25 C 165.11 163.71 165.64 163.91 159.25 168.25 C 152.85 172.59 151.06 174.36 145.25 178.25 C 139.44 182.13 135.96 184.66 129.07 186.07 C 122.18 187.49 113.19 186.57 106.00 187.00 C 98.81 187.43 89.76 185.89 83.00 187.00 C 76.24 188.11 65.61 183.78 60.75 188.75 C 55.90 193.73 60.02 204.05 59.00 211.00 C 57.98 217.95 59.43 227.58 59.00 235.00 C 58.57 242.42 59.13 251.51 59.00 259.00 C 58.87 266.49 58.91 275.77 59.00 283.00 C 59.09 290.23 58.61 299.50 59.00 306.00 C 59.39 312.50 56.18 323.68 64.00 325.00 C 71.82 326.32 80.25 324.45 88.00 325.00 C 95.75 325.55 104.49 324.86 112.00 325.00 C 119.51 325.14 127.51 324.57 133.92 327.08 C 140.34 329.59 142.95 332.03 148.30 335.70 C 153.66 339.37 156.79 341.87 162.30 345.70 C 167.81 349.53 170.08 351.35 176.30 355.70 C 182.53 360.04 182.33 360.15 190.30 365.70 C 198.28 371.25 209.91 379.53 217.77 385.23 C 225.63 390.93 226.01 390.91 231.77 395.23 C 237.53 399.55 241.39 401.61 245.77 405.23 C 250.15 408.85 258.24 414.88 260.67 407.67 C 263.10 400.46 260.11 391.65 261.00 384.00 C 261.89 376.35 260.58 367.77 261.00 360.00 C 261.42 352.23 260.82 344.85 261.00 337.00 C 261.18 329.15 260.92 320.92 261.00 313.00 C 261.08 305.08 260.97 296.95 261.00 289.00 C 261.03 281.05 260.99 272.93 261.00 265.00 C 261.01 257.07 261.01 248.87 261.00 241.00 C 260.99 233.13 261.04 225.83 261.00 218.00 C 260.96 210.17 261.10 201.78 261.00 194.00 C 260.90 186.22 261.22 177.58 261.00 170.00 C 260.78 162.42 261.49 153.10 261.00 146.00 C 260.51 138.90 262.09 128.01 261.00 122.00 C 259.91 115.99 264.43 103.78 259.00 101.00 Z"/>
</g>
<g fill="#FFFFFF" fill-opacity="0.96" stroke="None">
<path d="
M 347.00 144.00 
C 328.78 139.49 318.37 161.28 329.77 172.23 C 341.17 183.18 348.04 186.80 356.23 199.77 C 364.42 212.74 367.99 223.80 371.07 238.93 C 374.16 254.06 372.17 272.42 367.98 286.98 C 363.78 301.53 356.95 309.36 348.77 321.77 C 340.59 334.18 326.03 335.33 325.00 352.00 C 323.98 368.67 347.27 372.01 356.77 360.77 C 366.27 349.53 375.59 345.08 382.70 332.70 C 389.80 320.31 396.21 309.84 400.02 296.02 C 403.84 282.21 407.32 261.82 405.78 247.22 C 404.24 232.62 401.36 215.55 395.77 203.23 C 390.18 190.91 384.00 178.57 375.25 169.75 C 366.50 160.93 358.79 146.92 347.00 144.00 Z"/>
</g>
</svg>