<svg xmlns="http://www.w3.org/2000/svg" xmlns:v="https://svgstorm.com"
viewBox = "0 0 512 512"
width="512"
height="512">
<g fill="None" fill-opacity="0.0" stroke="#000000" stroke-opacity="0.00" stroke-width="0.3"><path d="
M 0.00 512.00 
L 512.00 512.00
L 512.00 0.00
L 0.00 0.00
L 0.00 512.00
M 381.00 104.00 
C 400.99 105.91 394.25 132.65 395.00 149.00 C 395.75 165.35 394.56 190.63 395.00 209.00 C 395.44 227.37 394.57 249.70 395.00 269.00 C 395.43 288.30 394.28 308.09 395.00 328.00 C 395.72 347.91 393.55 367.46 395.00 388.00 C 396.45 408.54 374.68 411.02 362.75 400.25 C 350.82 389.47 339.20 385.85 327.30 376.70 C 315.40 367.54 303.75 360.47 291.75 352.25 C 279.76 344.02 267.82 335.80 255.77 328.23 C 243.72 320.66 232.79 311.16 220.75 304.25 C 208.71 297.33 196.72 286.17 184.77 280.23 C 172.82 274.29 153.99 258.80 164.92 245.92 C 175.85 233.03 188.14 231.72 199.75 221.75 C 211.35 211.77 223.83 206.32 235.70 197.70 C 247.57 189.08 259.25 181.04 271.25 173.25 C 283.24 165.45 294.55 156.65 306.70 149.70 C 318.84 142.74 330.01 131.11 342.25 125.25 C 354.48 119.38 366.72 102.64 381.00 104.00
M 138.00 153.00 
C 154.27 157.03 148.44 179.64 149.00 194.00 C 149.56 208.36 149.15 231.21 149.00 247.00 C 148.85 262.79 149.97 284.04 149.00 300.00 C 148.03 315.96 152.31 336.68 147.07 351.07 C 141.84 365.47 116.47 359.87 117.02 343.98 C 117.58 328.08 116.94 307.50 117.00 291.00 C 117.06 274.50 117.42 254.32 117.00 238.00 C 116.58 221.68 118.19 200.25 117.00 185.00 C 115.81 169.75 117.96 148.04 138.00 153.00 Z"/>
</g>
<g fill="None" fill-opacity="0.0" stroke="#FFFFFF" stroke-opacity="0.98" stroke-width="0.3"><path d="
M 381.00 104.00 
C 366.72 102.64 354.48 119.38 342.25 125.25 C 330.01 131.11 318.84 142.74 306.70 149.70 C 294.55 156.65 283.24 165.45 271.25 173.25 C 259.25 181.04 247.57 189.08 235.70 197.70 C 223.83 206.32 211.35 211.77 199.75 221.75 C 188.14 231.72 175.85 233.03 164.92 245.92 C 153.99 258.80 172.82 274.29 184.77 280.23 C 196.72 286.17 208.71 297.33 220.75 304.25 C 232.79 311.16 243.72 320.66 255.77 328.23 C 267.82 335.80 279.76 344.02 291.75 352.25 C 303.75 360.47 315.40 367.54 327.30 376.70 C 339.20 385.85 350.82 389.47 362.75 400.25 C 374.68 411.02 396.45 408.54 395.00 388.00 C 393.55 367.46 395.72 347.91 395.00 328.00 C 394.28 308.09 395.43 288.30 395.00 269.00 C 394.57 249.70 395.44 227.37 395.00 209.00 C 394.56 190.63 395.75 165.35 395.00 149.00 C 394.25 132.65 400.99 105.91 381.00 104.00 Z"/>
</g>
<g fill="None" fill-opacity="0.0" stroke="#FFFFFF" stroke-opacity="0.96" stroke-width="0.3"><path d="
M 138.00 153.00 
C 117.96 148.04 115.81 169.75 117.00 185.00 C 118.19 200.25 116.58 221.68 117.00 238.00 C 117.42 254.32 117.06 274.50 117.00 291.00 C 116.94 307.50 117.58 328.08 117.02 343.98 C 116.47 359.87 141.84 365.47 147.07 351.07 C 152.31 336.68 148.03 315.96 149.00 300.00 C 149.97 284.04 148.85 262.79 149.00 247.00 C 149.15 231.21 149.56 208.36 149.00 194.00 C 148.44 179.64 154.27 157.03 138.00 153.00 Z"/>
</g>
<g fill="#000000" fill-opacity="0.00" stroke="None">
<path d="
M 0.00 512.00 
L 512.00 512.00
L 512.00 0.00
L 0.00 0.00
L 0.00 512.00
M 381.00 104.00 
C 400.99 105.91 394.25 132.65 395.00 149.00 C 395.75 165.35 394.56 190.63 395.00 209.00 C 395.44 227.37 394.57 249.70 395.00 269.00 C 395.43 288.30 394.28 308.09 395.00 328.00 C 395.72 347.91 393.55 367.46 395.00 388.00 C 396.45 408.54 374.68 411.02 362.75 400.25 C 350.82 389.47 339.20 385.85 327.30 376.70 C 315.40 367.54 303.75 360.47 291.75 352.25 C 279.76 344.02 267.82 335.80 255.77 328.23 C 243.72 320.66 232.79 311.16 220.75 304.25 C 208.71 297.33 196.72 286.17 184.77 280.23 C 172.82 274.29 153.99 258.80 164.92 245.92 C 175.85 233.03 188.14 231.72 199.75 221.75 C 211.35 211.77 223.83 206.32 235.70 197.70 C 247.57 189.08 259.25 181.04 271.25 173.25 C 283.24 165.45 294.55 156.65 306.70 149.70 C 318.84 142.74 330.01 131.11 342.25 125.25 C 354.48 119.38 366.72 102.64 381.00 104.00
M 138.00 153.00 
C 154.27 157.03 148.44 179.64 149.00 194.00 C 149.56 208.36 149.15 231.21 149.00 247.00 C 148.85 262.79 149.97 284.04 149.00 300.00 C 148.03 315.96 152.31 336.68 147.07 351.07 C 141.84 365.47 116.47 359.87 117.02 343.98 C 117.58 328.08 116.94 307.50 117.00 291.00 C 117.06 274.50 117.42 254.32 117.00 238.00 C 116.58 221.68 118.19 200.25 117.00 185.00 C 115.81 169.75 117.96 148.04 138.00 153.00 Z"/>
</g>
<g fill="#FFFFFF" fill-opacity="0.98" stroke="None">
<path d="
M 381.00 104.00 
C 366.72 102.64 354.48 119.38 342.25 125.25 C 330.01 131.11 318.84 142.74 306.70 149.70 C 294.55 156.65 283.24 165.45 271.25 173.25 C 259.25 181.04 247.57 189.08 235.70 197.70 C 223.83 206.32 211.35 211.77 199.75 221.75 C 188.14 231.72 175.85 233.03 164.92 245.92 C 153.99 258.80 172.82 274.29 184.77 280.23 C 196.72 286.17 208.71 297.33 220.75 304.25 C 232.79 311.16 243.72 320.66 255.77 328.23 C 267.82 335.80 279.76 344.02 291.75 352.25 C 303.75 360.47 315.40 367.54 327.30 376.70 C 339.20 385.85 350.82 389.47 362.75 400.25 C 374.68 411.02 396.45 408.54 395.00 388.00 C 393.55 367.46 395.72 347.91 395.00 328.00 C 394.28 308.09 395.43 288.30 395.00 269.00 C 394.57 249.70 395.44 227.37 395.00 209.00 C 394.56 190.63 395.75 165.35 395.00 149.00 C 394.25 132.65 400.99 105.91 381.00 104.00 Z"/>
</g>
<g fill="#FFFFFF" fill-opacity="0.96" stroke="None">
<path d="
M 138.00 153.00 
C 117.96 148.04 115.81 169.75 117.00 185.00 C 118.19 200.25 116.58 221.68 117.00 238.00 C 117.42 254.32 117.06 274.50 117.00 291.00 C 116.94 307.50 117.58 328.08 117.02 343.98 C 116.47 359.87 141.84 365.47 147.07 351.07 C 152.31 336.68 148.03 315.96 149.00 300.00 C 149.97 284.04 148.85 262.79 149.00 247.00 C 149.15 231.21 149.56 208.36 149.00 194.00 C 148.44 179.64 154.27 157.03 138.00 153.00 Z"/>
</g>
</svg>