<svg xmlns="http://www.w3.org/2000/svg" xmlns:v="https://svgstorm.com"
viewBox = "0 0 512 512"
width="512"
height="512">
<g fill="None" fill-opacity="0.0" stroke="#000000" stroke-opacity="0.00" stroke-width="0.3"><path d="
M 0.00 512.00 
L 512.00 512.00
L 512.00 0.00
L 0.00 0.00
L 0.00 512.00
M 304.00 68.00 
C 320.86 70.74 333.58 86.11 334.00 105.00 C 334.42 123.90 333.80 152.17 334.00 173.00 C 334.20 193.83 333.87 219.45 334.00 241.00 C 334.13 262.55 333.86 287.47 334.00 309.00 C 334.14 330.53 333.75 356.26 334.00 377.00 C 334.25 397.74 336.51 419.08 322.75 433.75 C 308.99 448.43 288.33 446.67 273.75 437.25 C 259.18 427.82 248.11 418.75 233.92 409.08 C 219.72 399.41 208.89 390.53 194.25 380.75 C 179.62 370.96 169.38 358.37 150.00 358.00 C 130.62 357.63 104.53 362.19 86.31 353.69 C 68.08 345.20 64.48 325.75 66.00 306.00 C 67.52 286.25 64.49 258.53 66.00 238.00 C 67.51 217.47 61.66 192.88 70.31 174.31 C 78.95 155.73 99.29 152.83 118.00 154.00 C 136.71 155.17 162.38 156.38 176.23 144.23 C 190.08 132.08 202.13 126.84 215.75 115.75 C 229.37 104.66 241.92 98.58 255.70 87.70 C 269.47 76.81 284.57 64.84 304.00 68.00
M 387.00 144.00 
C 398.74 146.73 406.45 160.96 415.25 169.75 C 424.06 178.53 430.27 190.90 435.77 203.23 C 441.27 215.56 444.57 232.29 445.98 247.02 C 447.38 261.76 443.99 282.20 440.07 296.07 C 436.16 309.94 429.75 320.25 422.70 332.70 C 415.64 345.14 406.19 349.52 396.77 360.77 C 387.35 372.02 364.01 368.61 365.00 352.00 C 365.99 335.39 380.72 334.18 388.92 321.92 C 397.12 309.66 403.70 301.40 407.98 286.98 C 412.25 272.55 414.33 253.89 411.22 238.78 C 408.11 223.67 404.20 212.82 396.23 199.77 C 388.26 186.72 381.03 183.27 369.77 172.23 C 358.51 161.19 368.97 139.80 387.00 144.00 Z"/>
</g>
<g fill="None" fill-opacity="0.0" stroke="#FFFFFF" stroke-opacity="0.96" stroke-width="0.3"><path d="
M 304.00 68.00 
C 284.57 64.84 269.47 76.81 255.70 87.70 C 241.92 98.58 229.37 104.66 215.75 115.75 C 202.13 126.84 190.08 132.08 176.23 144.23 C 162.38 156.38 136.71 155.17 118.00 154.00 C 99.29 152.83 78.95 155.73 70.31 174.31 C 61.66 192.88 67.51 217.47 66.00 238.00 C 64.49 258.53 67.52 286.25 66.00 306.00 C 64.48 325.75 68.08 345.20 86.31 353.69 C 104.53 362.19 130.62 357.63 150.00 358.00 C 169.38 358.37 179.62 370.96 194.25 380.75 C 208.89 390.53 219.72 399.41 233.92 409.08 C 248.11 418.75 259.18 427.82 273.75 437.25 C 288.33 446.67 308.99 448.43 322.75 433.75 C 336.51 419.08 334.25 397.74 334.00 377.00 C 333.75 356.26 334.14 330.53 334.00 309.00 C 333.86 287.47 334.13 262.55 334.00 241.00 C 333.87 219.45 334.20 193.83 334.00 173.00 C 333.80 152.17 334.42 123.90 334.00 105.00 C 333.58 86.11 320.86 70.74 304.00 68.00
M 299.00 101.00 
C 304.64 103.68 299.83 116.76 301.00 123.00 C 302.17 129.24 300.47 140.61 301.00 148.00 C 301.53 155.39 300.76 165.09 301.00 173.00 C 301.24 180.91 300.89 189.86 301.00 198.00 C 301.11 206.14 300.94 214.75 301.00 223.00 C 301.06 231.25 300.96 239.70 301.00 248.00 C 301.04 256.30 300.96 264.68 301.00 273.00 C 301.04 281.32 300.92 289.67 301.00 298.00 C 301.08 306.33 300.84 314.66 301.00 323.00 C 301.16 331.34 300.64 339.64 301.00 348.00 C 301.36 356.36 300.20 364.61 301.00 373.00 C 301.80 381.39 299.23 389.53 301.00 398.00 C 302.77 406.47 298.11 413.90 291.25 408.75 C 284.40 403.60 282.47 402.61 276.75 398.25 C 271.04 393.89 267.07 392.13 261.92 388.08 C 256.77 384.03 252.33 381.35 247.30 377.70 C 242.27 374.05 237.82 370.65 232.77 367.23 C 227.73 363.81 223.34 360.10 218.25 356.75 C 213.17 353.39 208.89 349.69 203.75 346.25 C 198.61 342.80 194.48 339.54 189.25 335.75 C 184.02 331.97 179.73 329.18 173.32 326.68 C 166.91 324.17 157.34 325.52 150.00 325.00 C 142.66 324.48 132.15 326.18 125.00 325.00 C 117.85 323.82 107.05 328.24 101.31 323.69 C 95.56 319.15 100.13 308.09 99.00 301.00 C 97.87 293.91 99.60 283.80 99.00 276.00 C 98.40 268.20 99.46 259.14 99.00 251.00 C 98.54 242.86 99.64 234.35 99.00 226.00 C 98.36 217.65 100.25 209.57 99.00 201.00 C 97.75 192.43 100.91 185.77 110.00 187.00 C 119.09 188.23 126.63 186.40 135.00 187.00 C 143.37 187.60 152.32 186.64 160.00 187.00 C 167.68 187.36 174.38 185.61 180.23 182.23 C 186.08 178.84 189.89 175.70 195.08 172.08 C 200.27 168.47 204.66 165.13 209.70 161.70 C 214.73 158.27 219.22 154.50 224.23 151.23 C 229.24 147.96 233.76 143.92 238.75 140.75 C 243.73 137.57 248.34 133.38 253.25 130.25 C 258.15 127.11 263.05 122.87 267.75 119.75 C 272.45 116.63 278.02 112.06 282.70 109.70 C 287.37 107.33 293.16 98.22 299.00 101.00 Z"/>
</g>
<g fill="None" fill-opacity="0.0" stroke="#000000" stroke-opacity="0.00" stroke-width="0.3"><path d="
M 299.00 101.00 
C 293.16 98.22 287.37 107.33 282.70 109.70 C 278.02 112.06 272.45 116.63 267.75 119.75 C 263.05 122.87 258.15 127.11 253.25 130.25 C 248.34 133.38 243.73 137.57 238.75 140.75 C 233.76 143.92 229.24 147.96 224.23 151.23 C 219.22 154.50 214.73 158.27 209.70 161.70 C 204.66 165.13 200.27 168.47 195.08 172.08 C 189.89 175.70 186.08 178.84 180.23 182.23 C 174.38 185.61 167.68 187.36 160.00 187.00 C 152.32 186.64 143.37 187.60 135.00 187.00 C 126.63 186.40 119.09 188.23 110.00 187.00 C 100.91 185.77 97.75 192.43 99.00 201.00 C 100.25 209.57 98.36 217.65 99.00 226.00 C 99.64 234.35 98.54 242.86 99.00 251.00 C 99.46 259.14 98.40 268.20 99.00 276.00 C 99.60 283.80 97.87 293.91 99.00 301.00 C 100.13 308.09 95.56 319.15 101.31 323.69 C 107.05 328.24 117.85 323.82 125.00 325.00 C 132.15 326.18 142.66 324.48 150.00 325.00 C 157.34 325.52 166.91 324.17 173.32 326.68 C 179.73 329.18 184.02 331.97 189.25 335.75 C 194.48 339.54 198.61 342.80 203.75 346.25 C 208.89 349.69 213.17 353.39 218.25 356.75 C 223.34 360.10 227.73 363.81 232.77 367.23 C 237.82 370.65 242.27 374.05 247.30 377.70 C 252.33 381.35 256.77 384.03 261.92 388.08 C 267.07 392.13 271.04 393.89 276.75 398.25 C 282.47 402.61 284.40 403.60 291.25 408.75 C 298.11 413.90 302.77 406.47 301.00 398.00 C 299.23 389.53 301.80 381.39 301.00 373.00 C 300.20 364.61 301.36 356.36 301.00 348.00 C 300.64 339.64 301.16 331.34 301.00 323.00 C 300.84 314.66 301.08 306.33 301.00 298.00 C 300.92 289.67 301.04 281.32 301.00 273.00 C 300.96 264.68 301.04 256.30 301.00 248.00 C 300.96 239.70 301.06 231.25 301.00 223.00 C 300.94 214.75 301.11 206.14 301.00 198.00 C 300.89 189.86 301.24 180.91 301.00 173.00 C 300.76 165.09 301.53 155.39 301.00 148.00 C 300.47 140.61 302.17 129.24 301.00 123.00 C 299.83 116.76 304.64 103.68 299.00 101.00 Z"/>
</g>
<g fill="None" fill-opacity="0.0" stroke="#FFFFFF" stroke-opacity="0.96" stroke-width="0.3"><path d="
M 387.00 144.00 
C 368.97 139.80 358.51 161.19 369.77 172.23 C 381.03 183.27 388.26 186.72 396.23 199.77 C 404.20 212.82 408.11 223.67 411.22 238.78 C 414.33 253.89 412.25 272.55 407.98 286.98 C 403.70 301.40 397.12 309.66 388.92 321.92 C 380.72 334.18 365.99 335.39 365.00 352.00 C 364.01 368.61 387.35 372.02 396.77 360.77 C 406.19 349.52 415.64 345.14 422.70 332.70 C 429.75 320.25 436.16 309.94 440.07 296.07 C 443.99 282.20 447.38 261.76 445.98 247.02 C 444.57 232.29 441.27 215.56 435.77 203.23 C 430.27 190.90 424.06 178.53 415.25 169.75 C 406.45 160.96 398.74 146.73 387.00 144.00 Z"/>
</g>
<g fill="#000000" fill-opacity="0.00" stroke="None">
<path d="
M 0.00 512.00 
L 512.00 512.00
L 512.00 0.00
L 0.00 0.00
L 0.00 512.00
M 304.00 68.00 
C 320.86 70.74 333.58 86.11 334.00 105.00 C 334.42 123.90 333.80 152.17 334.00 173.00 C 334.20 193.83 333.87 219.45 334.00 241.00 C 334.13 262.55 333.86 287.47 334.00 309.00 C 334.14 330.53 333.75 356.26 334.00 377.00 C 334.25 397.74 336.51 419.08 322.75 433.75 C 308.99 448.43 288.33 446.67 273.75 437.25 C 259.18 427.82 248.11 418.75 233.92 409.08 C 219.72 399.41 208.89 390.53 194.25 380.75 C 179.62 370.96 169.38 358.37 150.00 358.00 C 130.62 357.63 104.53 362.19 86.31 353.69 C 68.08 345.20 64.48 325.75 66.00 306.00 C 67.52 286.25 64.49 258.53 66.00 238.00 C 67.51 217.47 61.66 192.88 70.31 174.31 C 78.95 155.73 99.29 152.83 118.00 154.00 C 136.71 155.17 162.38 156.38 176.23 144.23 C 190.08 132.08 202.13 126.84 215.75 115.75 C 229.37 104.66 241.92 98.58 255.70 87.70 C 269.47 76.81 284.57 64.84 304.00 68.00
M 387.00 144.00 
C 398.74 146.73 406.45 160.96 415.25 169.75 C 424.06 178.53 430.27 190.90 435.77 203.23 C 441.27 215.56 444.57 232.29 445.98 247.02 C 447.38 261.76 443.99 282.20 440.07 296.07 C 436.16 309.94 429.75 320.25 422.70 332.70 C 415.64 345.14 406.19 349.52 396.77 360.77 C 387.35 372.02 364.01 368.61 365.00 352.00 C 365.99 335.39 380.72 334.18 388.92 321.92 C 397.12 309.66 403.70 301.40 407.98 286.98 C 412.25 272.55 414.33 253.89 411.22 238.78 C 408.11 223.67 404.20 212.82 396.23 199.77 C 388.26 186.72 381.03 183.27 369.77 172.23 C 358.51 161.19 368.97 139.80 387.00 144.00 Z"/>
</g>
<g fill="#FFFFFF" fill-opacity="0.96" stroke="None">
<path d="
M 304.00 68.00 
C 284.57 64.84 269.47 76.81 255.70 87.70 C 241.92 98.58 229.37 104.66 215.75 115.75 C 202.13 126.84 190.08 132.08 176.23 144.23 C 162.38 156.38 136.71 155.17 118.00 154.00 C 99.29 152.83 78.95 155.73 70.31 174.31 C 61.66 192.88 67.51 217.47 66.00 238.00 C 64.49 258.53 67.52 286.25 66.00 306.00 C 64.48 325.75 68.08 345.20 86.31 353.69 C 104.53 362.19 130.62 357.63 150.00 358.00 C 169.38 358.37 179.62 370.96 194.25 380.75 C 208.89 390.53 219.72 399.41 233.92 409.08 C 248.11 418.75 259.18 427.82 273.75 437.25 C 288.33 446.67 308.99 448.43 322.75 433.75 C 336.51 419.08 334.25 397.74 334.00 377.00 C 333.75 356.26 334.14 330.53 334.00 309.00 C 333.86 287.47 334.13 262.55 334.00 241.00 C 333.87 219.45 334.20 193.83 334.00 173.00 C 333.80 152.17 334.42 123.90 334.00 105.00 C 333.58 86.11 320.86 70.74 304.00 68.00
M 299.00 101.00 
C 304.64 103.68 299.83 116.76 301.00 123.00 C 302.17 129.24 300.47 140.61 301.00 148.00 C 301.53 155.39 300.76 165.09 301.00 173.00 C 301.24 180.91 300.89 189.86 301.00 198.00 C 301.11 206.14 300.94 214.75 301.00 223.00 C 301.06 231.25 300.96 239.70 301.00 248.00 C 301.04 256.30 300.96 264.68 301.00 273.00 C 301.04 281.32 300.92 289.67 301.00 298.00 C 301.08 306.33 300.84 314.66 301.00 323.00 C 301.16 331.34 300.64 339.64 301.00 348.00 C 301.36 356.36 300.20 364.61 301.00 373.00 C 301.80 381.39 299.23 389.53 301.00 398.00 C 302.77 406.47 298.11 413.90 291.25 408.75 C 284.40 403.60 282.47 402.61 276.75 398.25 C 271.04 393.89 267.07 392.13 261.92 388.08 C 256.77 384.03 252.33 381.35 247.30 377.70 C 242.27 374.05 237.82 370.65 232.77 367.23 C 227.73 363.81 223.34 360.10 218.25 356.75 C 213.17 353.39 208.89 349.69 203.75 346.25 C 198.61 342.80 194.48 339.54 189.25 335.75 C 184.02 331.97 179.73 329.18 173.32 326.68 C 166.91 324.17 157.34 325.52 150.00 325.00 C 142.66 324.48 132.15 326.18 125.00 325.00 C 117.85 323.82 107.05 328.24 101.31 323.69 C 95.56 319.15 100.13 308.09 99.00 301.00 C 97.87 293.91 99.60 283.80 99.00 276.00 C 98.40 268.20 99.46 259.14 99.00 251.00 C 98.54 242.86 99.64 234.35 99.00 226.00 C 98.36 217.65 100.25 209.57 99.00 201.00 C 97.75 192.43 100.91 185.77 110.00 187.00 C 119.09 188.23 126.63 186.40 135.00 187.00 C 143.37 187.60 152.32 186.64 160.00 187.00 C 167.68 187.36 174.38 185.61 180.23 182.23 C 186.08 178.84 189.89 175.70 195.08 172.08 C 200.27 168.47 204.66 165.13 209.70 161.70 C 214.73 158.27 219.22 154.50 224.23 151.23 C 229.24 147.96 233.76 143.92 238.75 140.75 C 243.73 137.57 248.34 133.38 253.25 130.25 C 258.15 127.11 263.05 122.87 267.75 119.75 C 272.45 116.63 278.02 112.06 282.70 109.70 C 287.37 107.33 293.16 98.22 299.00 101.00 Z"/>
</g>
<g fill="#000000" fill-opacity="0.00" stroke="None">
<path d="
M 299.00 101.00 
C 293.16 98.22 287.37 107.33 282.70 109.70 C 278.02 112.06 272.45 116.63 267.75 119.75 C 263.05 122.87 258.15 127.11 253.25 130.25 C 248.34 133.38 243.73 137.57 238.75 140.75 C 233.76 143.92 229.24 147.96 224.23 151.23 C 219.22 154.50 214.73 158.27 209.70 161.70 C 204.66 165.13 200.27 168.47 195.08 172.08 C 189.89 175.70 186.08 178.84 180.23 182.23 C 174.38 185.61 167.68 187.36 160.00 187.00 C 152.32 186.64 143.37 187.60 135.00 187.00 C 126.63 186.40 119.09 188.23 110.00 187.00 C 100.91 185.77 97.75 192.43 99.00 201.00 C 100.25 209.57 98.36 217.65 99.00 226.00 C 99.64 234.35 98.54 242.86 99.00 251.00 C 99.46 259.14 98.40 268.20 99.00 276.00 C 99.60 283.80 97.87 293.91 99.00 301.00 C 100.13 308.09 95.56 319.15 101.31 323.69 C 107.05 328.24 117.85 323.82 125.00 325.00 C 132.15 326.18 142.66 324.48 150.00 325.00 C 157.34 325.52 166.91 324.17 173.32 326.68 C 179.73 329.18 184.02 331.97 189.25 335.75 C 194.48 339.54 198.61 342.80 203.75 346.25 C 208.89 349.69 213.17 353.39 218.25 356.75 C 223.34 360.10 227.73 363.81 232.77 367.23 C 237.82 370.65 242.27 374.05 247.30 377.70 C 252.33 381.35 256.77 384.03 261.92 388.08 C 267.07 392.13 271.04 393.89 276.75 398.25 C 282.47 402.61 284.40 403.60 291.25 408.75 C 298.11 413.90 302.77 406.47 301.00 398.00 C 299.23 389.53 301.80 381.39 301.00 373.00 C 300.20 364.61 301.36 356.36 301.00 348.00 C 300.64 339.64 301.16 331.34 301.00 323.00 C 300.84 314.66 301.08 306.33 301.00 298.00 C 300.92 289.67 301.04 281.32 301.00 273.00 C 300.96 264.68 301.04 256.30 301.00 248.00 C 300.96 239.70 301.06 231.25 301.00 223.00 C 300.94 214.75 301.11 206.14 301.00 198.00 C 300.89 189.86 301.24 180.91 301.00 173.00 C 300.76 165.09 301.53 155.39 301.00 148.00 C 300.47 140.61 302.17 129.24 301.00 123.00 C 299.83 116.76 304.64 103.68 299.00 101.00 Z"/>
</g>
<g fill="#FFFFFF" fill-opacity="0.96" stroke="None">
<path d="
M 387.00 144.00 
C 368.97 139.80 358.51 161.19 369.77 172.23 C 381.03 183.27 388.26 186.72 396.23 199.77 C 404.20 212.82 408.11 223.67 411.22 238.78 C 414.33 253.89 412.25 272.55 407.98 286.98 C 403.70 301.40 397.12 309.66 388.92 321.92 C 380.72 334.18 365.99 335.39 365.00 352.00 C 364.01 368.61 387.35 372.02 396.77 360.77 C 406.19 349.52 415.64 345.14 422.70 332.70 C 429.75 320.25 436.16 309.94 440.07 296.07 C 443.99 282.20 447.38 261.76 445.98 247.02 C 444.57 232.29 441.27 215.56 435.77 203.23 C 430.27 190.90 424.06 178.53 415.25 169.75 C 406.45 160.96 398.74 146.73 387.00 144.00 Z"/>
</g>
</svg>