<svg xmlns="http://www.w3.org/2000/svg" xmlns:v="https://svgstorm.com"
viewBox = "0 0 512 512"
width="512"
height="512">
<g fill="None" fill-opacity="0.0" stroke="#000000" stroke-opacity="0.00" stroke-width="0.3"><path d="
M 0.00 512.00 
L 512.00 512.00
L 512.00 0.00
L 0.00 0.00
L 0.00 512.00
M 286.00 69.00 
C 306.20 71.89 326.24 84.79 332.92 107.08 C 339.61 129.37 334.75 164.30 336.00 190.00 C 337.25 215.70 334.94 248.61 336.00 275.00 C 337.06 301.39 334.42 335.32 336.00 361.00 C 337.58 386.68 335.64 410.95 317.75 427.75 C 299.86 444.55 272.53 447.59 252.31 437.69 C 232.08 427.80 221.15 414.47 202.77 402.23 C 184.39 389.99 172.54 378.35 153.75 365.25 C 134.97 352.14 99.23 360.90 76.99 357.01 C 54.76 353.12 36.94 340.84 29.68 318.32 C 22.41 295.81 27.49 261.24 26.00 237.00 C 24.51 212.76 26.18 186.11 44.75 169.75 C 63.33 153.39 89.27 150.62 114.00 154.00 C 138.73 157.38 158.99 145.32 176.08 130.08 C 193.18 114.84 207.55 108.22 224.70 93.70 C 241.84 79.17 261.62 65.52 286.00 69.00
M 451.00 255.00 
C 458.42 270.25 499.50 289.82 480.75 309.75 C 462.01 329.68 441.36 289.29 428.00 280.00
C 411.76 287.13 393.41 329.81 372.75 311.25 C 352.09 292.68 393.07 270.39 403.00 257.00
C 396.32 248.51 388.92 240.20 380.25 232.75 C 371.58 225.31 361.75 212.40 371.77 201.77 C 381.79 191.14 395.37 199.38 402.75 208.25 C 410.14 217.12 419.06 223.04 426.00 232.00
C 439.17 220.75 445.46 215.13 458.25 201.25 C 471.03 187.37 495.19 208.43 483.08 223.08 C 470.97 237.73 463.30 242.08 451.00 255.00 Z"/>
</g>
<g fill="None" fill-opacity="0.0" stroke="#FFFFFF" stroke-opacity="0.97" stroke-width="0.3"><path d="
M 286.00 69.00 
C 261.62 65.52 241.84 79.17 224.70 93.70 C 207.55 108.22 193.18 114.84 176.08 130.08 C 158.99 145.32 138.73 157.38 114.00 154.00 C 89.27 150.62 63.33 153.39 44.75 169.75 C 26.18 186.11 24.51 212.76 26.00 237.00 C 27.49 261.24 22.41 295.81 29.68 318.32 C 36.94 340.84 54.76 353.12 76.99 357.01 C 99.23 360.90 134.97 352.14 153.75 365.25 C 172.54 378.35 184.39 389.99 202.77 402.23 C 221.15 414.47 232.08 427.80 252.31 437.69 C 272.53 447.59 299.86 444.55 317.75 427.75 C 335.64 410.95 337.58 386.68 336.00 361.00 C 334.42 335.32 337.06 301.39 336.00 275.00 C 334.94 248.61 337.25 215.70 336.00 190.00 C 334.75 164.30 339.61 129.37 332.92 107.08 C 326.24 84.79 306.20 71.89 286.00 69.00
M 283.00 102.00 
C 308.65 107.31 304.22 137.51 304.00 160.00 C 303.78 182.49 304.75 214.64 304.00 239.00 C 303.25 263.36 305.78 293.07 304.00 318.00 C 302.22 342.93 309.24 370.52 301.22 394.22 C 293.21 417.93 265.20 409.66 251.25 396.75 C 237.30 383.84 221.84 374.95 205.92 363.08 C 190.00 351.22 179.39 339.44 159.92 330.08 C 140.46 320.71 109.95 326.20 86.00 325.00 C 62.05 323.80 54.03 295.11 59.00 273.00 C 63.97 250.89 50.56 217.89 63.77 198.77 C 76.98 179.65 109.95 186.72 131.00 187.00 C 152.05 187.28 171.40 176.31 186.70 163.70 C 201.99 151.09 216.24 139.92 231.75 129.75 C 247.25 119.57 262.79 97.81 283.00 102.00 Z"/>
</g>
<g fill="None" fill-opacity="0.0" stroke="#000000" stroke-opacity="0.00" stroke-width="0.3"><path d="
M 283.00 102.00 
C 262.79 97.81 247.25 119.57 231.75 129.75 C 216.24 139.92 201.99 151.09 186.70 163.70 C 171.40 176.31 152.05 187.28 131.00 187.00 C 109.95 186.72 76.98 179.65 63.77 198.77 C 50.56 217.89 63.97 250.89 59.00 273.00 C 54.03 295.11 62.05 323.80 86.00 325.00 C 109.95 326.20 140.46 320.71 159.92 330.08 C 179.39 339.44 190.00 351.22 205.92 363.08 C 221.84 374.95 237.30 383.84 251.25 396.75 C 265.20 409.66 293.21 417.93 301.22 394.22 C 309.24 370.52 302.22 342.93 304.00 318.00 C 305.78 293.07 303.25 263.36 304.00 239.00 C 304.75 214.64 303.78 182.49 304.00 160.00 C 304.22 137.51 308.65 107.31 283.00 102.00 Z"/>
</g>
<g fill="None" fill-opacity="0.0" stroke="#FFFFFF" stroke-opacity="0.96" stroke-width="0.3"><path d="
M 451.00 255.00 
C 463.30 242.08 470.97 237.73 483.08 223.08 C 495.19 208.43 471.03 187.37 458.25 201.25 C 445.46 215.13 439.17 220.75 426.00 232.00
C 419.06 223.04 410.14 217.12 402.75 208.25 C 395.37 199.38 381.79 191.14 371.77 201.77 C 361.75 212.40 371.58 225.31 380.25 232.75 C 388.92 240.20 396.32 248.51 403.00 257.00
C 393.07 270.39 352.09 292.68 372.75 311.25 C 393.41 329.81 411.76 287.13 428.00 280.00
C 441.36 289.29 462.01 329.68 480.75 309.75 C 499.50 289.82 458.42 270.25 451.00 255.00 Z"/>
</g>
<g fill="#000000" fill-opacity="0.00" stroke="None">
<path d="
M 0.00 512.00 
L 512.00 512.00
L 512.00 0.00
L 0.00 0.00
L 0.00 512.00
M 286.00 69.00 
C 306.20 71.89 326.24 84.79 332.92 107.08 C 339.61 129.37 334.75 164.30 336.00 190.00 C 337.25 215.70 334.94 248.61 336.00 275.00 C 337.06 301.39 334.42 335.32 336.00 361.00 C 337.58 386.68 335.64 410.95 317.75 427.75 C 299.86 444.55 272.53 447.59 252.31 437.69 C 232.08 427.80 221.15 414.47 202.77 402.23 C 184.39 389.99 172.54 378.35 153.75 365.25 C 134.97 352.14 99.23 360.90 76.99 357.01 C 54.76 353.12 36.94 340.84 29.68 318.32 C 22.41 295.81 27.49 261.24 26.00 237.00 C 24.51 212.76 26.18 186.11 44.75 169.75 C 63.33 153.39 89.27 150.62 114.00 154.00 C 138.73 157.38 158.99 145.32 176.08 130.08 C 193.18 114.84 207.55 108.22 224.70 93.70 C 241.84 79.17 261.62 65.52 286.00 69.00
M 451.00 255.00 
C 458.42 270.25 499.50 289.82 480.75 309.75 C 462.01 329.68 441.36 289.29 428.00 280.00
C 411.76 287.13 393.41 329.81 372.75 311.25 C 352.09 292.68 393.07 270.39 403.00 257.00
C 396.32 248.51 388.92 240.20 380.25 232.75 C 371.58 225.31 361.75 212.40 371.77 201.77 C 381.79 191.14 395.37 199.38 402.75 208.25 C 410.14 217.12 419.06 223.04 426.00 232.00
C 439.17 220.75 445.46 215.13 458.25 201.25 C 471.03 187.37 495.19 208.43 483.08 223.08 C 470.97 237.73 463.30 242.08 451.00 255.00 Z"/>
</g>
<g fill="#FFFFFF" fill-opacity="0.97" stroke="None">
<path d="
M 286.00 69.00 
C 261.62 65.52 241.84 79.17 224.70 93.70 C 207.55 108.22 193.18 114.84 176.08 130.08 C 158.99 145.32 138.73 157.38 114.00 154.00 C 89.27 150.62 63.33 153.39 44.75 169.75 C 26.18 186.11 24.51 212.76 26.00 237.00 C 27.49 261.24 22.41 295.81 29.68 318.32 C 36.94 340.84 54.76 353.12 76.99 357.01 C 99.23 360.90 134.97 352.14 153.75 365.25 C 172.54 378.35 184.39 389.99 202.77 402.23 C 221.15 414.47 232.08 427.80 252.31 437.69 C 272.53 447.59 299.86 444.55 317.75 427.75 C 335.64 410.95 337.58 386.68 336.00 361.00 C 334.42 335.32 337.06 301.39 336.00 275.00 C 334.94 248.61 337.25 215.70 336.00 190.00 C 334.75 164.30 339.61 129.37 332.92 107.08 C 326.24 84.79 306.20 71.89 286.00 69.00
M 283.00 102.00 
C 308.65 107.31 304.22 137.51 304.00 160.00 C 303.78 182.49 304.75 214.64 304.00 239.00 C 303.25 263.36 305.78 293.07 304.00 318.00 C 302.22 342.93 309.24 370.52 301.22 394.22 C 293.21 417.93 265.20 409.66 251.25 396.75 C 237.30 383.84 221.84 374.95 205.92 363.08 C 190.00 351.22 179.39 339.44 159.92 330.08 C 140.46 320.71 109.95 326.20 86.00 325.00 C 62.05 323.80 54.03 295.11 59.00 273.00 C 63.97 250.89 50.56 217.89 63.77 198.77 C 76.98 179.65 109.95 186.72 131.00 187.00 C 152.05 187.28 171.40 176.31 186.70 163.70 C 201.99 151.09 216.24 139.92 231.75 129.75 C 247.25 119.57 262.79 97.81 283.00 102.00 Z"/>
</g>
<g fill="#000000" fill-opacity="0.00" stroke="None">
<path d="
M 283.00 102.00 
C 262.79 97.81 247.25 119.57 231.75 129.75 C 216.24 139.92 201.99 151.09 186.70 163.70 C 171.40 176.31 152.05 187.28 131.00 187.00 C 109.95 186.72 76.98 179.65 63.77 198.77 C 50.56 217.89 63.97 250.89 59.00 273.00 C 54.03 295.11 62.05 323.80 86.00 325.00 C 109.95 326.20 140.46 320.71 159.92 330.08 C 179.39 339.44 190.00 351.22 205.92 363.08 C 221.84 374.95 237.30 383.84 251.25 396.75 C 265.20 409.66 293.21 417.93 301.22 394.22 C 309.24 370.52 302.22 342.93 304.00 318.00 C 305.78 293.07 303.25 263.36 304.00 239.00 C 304.75 214.64 303.78 182.49 304.00 160.00 C 304.22 137.51 308.65 107.31 283.00 102.00 Z"/>
</g>
<g fill="#FFFFFF" fill-opacity="0.96" stroke="None">
<path d="
M 451.00 255.00 
C 463.30 242.08 470.97 237.73 483.08 223.08 C 495.19 208.43 471.03 187.37 458.25 201.25 C 445.46 215.13 439.17 220.75 426.00 232.00
C 419.06 223.04 410.14 217.12 402.75 208.25 C 395.37 199.38 381.79 191.14 371.77 201.77 C 361.75 212.40 371.58 225.31 380.25 232.75 C 388.92 240.20 396.32 248.51 403.00 257.00
C 393.07 270.39 352.09 292.68 372.75 311.25 C 393.41 329.81 411.76 287.13 428.00 280.00
C 441.36 289.29 462.01 329.68 480.75 309.75 C 499.50 289.82 458.42 270.25 451.00 255.00 Z"/>
</g>
</svg>