<svg xmlns="http://www.w3.org/2000/svg" xmlns:v="https://svgstorm.com"
viewBox = "0 0 512 512"
width="512"
height="512">
<g fill="None" fill-opacity="0.0" stroke="#000000" stroke-opacity="0.00" stroke-width="0.3"><path d="
M 0.00 512.00 
L 512.00 512.00
L 512.00 0.00
L 0.00 0.00
L 0.00 512.00
M 264.00 68.00 
C 280.90 70.74 293.77 86.03 294.00 105.00 C 294.23 123.98 293.88 152.13 294.00 173.00 C 294.12 193.87 293.90 219.43 294.00 241.00 C 294.10 262.57 293.87 287.47 294.00 309.00 C 294.13 330.53 293.74 356.26 294.00 377.00 C 294.26 397.74 296.68 419.28 282.75 433.75 C 268.82 448.22 248.35 446.82 233.75 437.25 C 219.16 427.67 208.21 418.68 193.92 409.08 C 179.63 399.48 168.91 390.52 154.25 380.75 C 139.60 370.97 129.43 358.27 110.00 358.00 C 90.57 357.73 64.50 362.17 46.31 353.69 C 28.11 345.22 24.55 325.70 26.00 306.00 C 27.45 286.30 24.52 258.49 26.00 238.00 C 27.48 217.51 21.68 192.84 30.31 174.31 C 38.93 155.77 59.33 152.87 78.00 154.00 C 96.67 155.13 122.45 156.46 136.23 144.23 C 150.01 132.00 162.15 126.84 175.75 115.75 C 189.35 104.67 201.93 98.55 215.70 87.70 C 229.46 76.84 244.64 64.86 264.00 68.00
M 404.00 232.00 
C 416.00 223.25 427.80 209.02 438.75 198.75 C 449.71 188.48 465.10 165.56 480.75 180.25 C 496.40 194.94 474.17 210.08 463.75 220.75 C 453.33 231.42 440.04 244.69 429.00 255.00
C 437.35 267.24 452.52 278.47 462.25 289.75 C 471.98 301.03 496.08 314.81 481.75 330.75 C 467.43 346.69 450.61 325.70 440.25 314.75 C 429.89 303.80 416.08 291.44 406.00 280.00
C 394.12 288.42 382.04 303.42 371.25 313.25 C 360.46 323.08 345.27 346.74 329.77 332.23 C 314.27 317.72 336.32 300.99 346.75 290.75 C 357.18 280.51 369.99 266.95 381.00 257.00
C 372.63 245.07 357.51 233.11 347.75 222.25 C 338.00 211.39 314.54 196.52 328.77 180.77 C 343.00 165.02 360.13 187.25 370.25 197.75 C 380.37 208.26 394.14 220.93 404.00 232.00 Z"/>
</g>
<g fill="None" fill-opacity="0.0" stroke="#FFFFFF" stroke-opacity="0.96" stroke-width="0.3"><path d="
M 264.00 68.00 
C 244.64 64.86 229.46 76.84 215.70 87.70 C 201.93 98.55 189.35 104.67 175.75 115.75 C 162.15 126.84 150.01 132.00 136.23 144.23 C 122.45 156.46 96.67 155.13 78.00 154.00 C 59.33 152.87 38.93 155.77 30.31 174.31 C 21.68 192.84 27.48 217.51 26.00 238.00 C 24.52 258.49 27.45 286.30 26.00 306.00 C 24.55 325.70 28.11 345.22 46.31 353.69 C 64.50 362.17 90.57 357.73 110.00 358.00 C 129.43 358.27 139.60 370.97 154.25 380.75 C 168.91 390.52 179.63 399.48 193.92 409.08 C 208.21 418.68 219.16 427.67 233.75 437.25 C 248.35 446.82 268.82 448.22 282.75 433.75 C 296.68 419.28 294.26 397.74 294.00 377.00 C 293.74 356.26 294.13 330.53 294.00 309.00 C 293.87 287.47 294.10 262.57 294.00 241.00 C 293.90 219.43 294.12 193.87 294.00 173.00 C 293.88 152.13 294.23 123.98 294.00 105.00 C 293.77 86.03 280.90 70.74 264.00 68.00
M 259.00 101.00 
C 264.43 103.78 259.91 115.99 261.00 122.00 C 262.09 128.01 260.51 138.90 261.00 146.00 C 261.49 153.10 260.78 162.42 261.00 170.00 C 261.22 177.58 260.90 186.22 261.00 194.00 C 261.10 201.78 260.96 210.17 261.00 218.00 C 261.04 225.83 260.99 233.13 261.00 241.00 C 261.01 248.87 261.01 257.07 261.00 265.00 C 260.99 272.93 261.03 281.05 261.00 289.00 C 260.97 296.95 261.08 305.08 261.00 313.00 C 260.92 320.92 261.18 329.15 261.00 337.00 C 260.82 344.85 261.42 352.23 261.00 360.00 C 260.58 367.77 261.89 376.35 261.00 384.00 C 260.11 391.65 263.10 400.46 260.67 407.67 C 258.24 414.88 250.15 408.85 245.77 405.23 C 241.39 401.61 237.53 399.55 231.77 395.23 C 226.01 390.91 225.63 390.93 217.77 385.23 C 209.91 379.53 198.28 371.25 190.30 365.70 C 182.33 360.15 182.53 360.04 176.30 355.70 C 170.08 351.35 167.81 349.53 162.30 345.70 C 156.79 341.87 153.66 339.37 148.30 335.70 C 142.95 332.03 140.34 329.59 133.92 327.08 C 127.51 324.57 119.51 325.14 112.00 325.00 C 104.49 324.86 95.75 325.55 88.00 325.00 C 80.25 324.45 71.82 326.32 64.00 325.00 C 56.18 323.68 59.39 312.50 59.00 306.00 C 58.61 299.50 59.09 290.23 59.00 283.00 C 58.91 275.77 58.87 266.49 59.00 259.00 C 59.13 251.51 58.56 242.42 59.00 235.00 C 59.44 227.58 57.97 217.96 59.00 211.00 C 60.03 204.04 55.86 193.75 60.75 188.75 C 65.65 183.76 76.16 188.15 83.00 187.00 C 89.84 185.85 98.63 187.53 106.00 187.00 C 113.37 186.47 121.80 187.71 129.07 186.07 C 136.34 184.44 138.62 182.61 145.25 178.25 C 151.88 173.89 151.03 173.65 159.25 168.25 C 167.47 162.84 178.89 154.45 187.08 149.08 C 195.27 143.71 194.82 143.24 201.08 139.08 C 207.34 134.92 209.69 132.58 215.08 129.08 C 220.47 125.58 224.09 122.04 229.08 119.08 C 234.07 116.12 238.27 111.27 243.08 109.08 C 247.89 106.90 253.06 97.96 259.00 101.00 Z"/>
</g>
<g fill="None" fill-opacity="0.0" stroke="#000000" stroke-opacity="0.00" stroke-width="0.3"><path d="
M 259.00 101.00 
C 253.06 97.96 247.89 106.90 243.08 109.08 C 238.27 111.27 234.07 116.12 229.08 119.08 C 224.09 122.04 220.47 125.58 215.08 129.08 C 209.69 132.58 207.34 134.92 201.08 139.08 C 194.82 143.24 195.27 143.71 187.08 149.08 C 178.89 154.45 167.47 162.84 159.25 168.25 C 151.03 173.65 151.88 173.89 145.25 178.25 C 138.62 182.61 136.34 184.44 129.07 186.07 C 121.80 187.71 113.37 186.47 106.00 187.00 C 98.63 187.53 89.84 185.85 83.00 187.00 C 76.16 188.15 65.65 183.76 60.75 188.75 C 55.86 193.75 60.03 204.04 59.00 211.00 C 57.97 217.96 59.44 227.58 59.00 235.00 C 58.56 242.42 59.13 251.51 59.00 259.00 C 58.87 266.49 58.91 275.77 59.00 283.00 C 59.09 290.23 58.61 299.50 59.00 306.00 C 59.39 312.50 56.18 323.68 64.00 325.00 C 71.82 326.32 80.25 324.45 88.00 325.00 C 95.75 325.55 104.49 324.86 112.00 325.00 C 119.51 325.14 127.51 324.57 133.92 327.08 C 140.34 329.59 142.95 332.03 148.30 335.70 C 153.66 339.37 156.79 341.87 162.30 345.70 C 167.81 349.53 170.08 351.35 176.30 355.70 C 182.53 360.04 182.33 360.15 190.30 365.70 C 198.28 371.25 209.91 379.53 217.77 385.23 C 225.63 390.93 226.01 390.91 231.77 395.23 C 237.53 399.55 241.39 401.61 245.77 405.23 C 250.15 408.85 258.24 414.88 260.67 407.67 C 263.10 400.46 260.11 391.65 261.00 384.00 C 261.89 376.35 260.58 367.77 261.00 360.00 C 261.42 352.23 260.82 344.85 261.00 337.00 C 261.18 329.15 260.92 320.92 261.00 313.00 C 261.08 305.08 260.97 296.95 261.00 289.00 C 261.03 281.05 260.99 272.93 261.00 265.00 C 261.01 257.07 261.01 248.87 261.00 241.00 C 260.99 233.13 261.04 225.83 261.00 218.00 C 260.96 210.17 261.10 201.78 261.00 194.00 C 260.90 186.22 261.22 177.58 261.00 170.00 C 260.78 162.42 261.49 153.10 261.00 146.00 C 260.51 138.90 262.09 128.01 261.00 122.00 C 259.91 115.99 264.43 103.78 259.00 101.00 Z"/>
</g>
<g fill="None" fill-opacity="0.0" stroke="#FFFFFF" stroke-opacity="0.96" stroke-width="0.3"><path d="
M 404.00 232.00 
C 394.14 220.93 380.37 208.26 370.25 197.75 C 360.13 187.25 343.00 165.02 328.77 180.77 C 314.54 196.52 338.00 211.39 347.75 222.25 C 357.51 233.11 372.63 245.07 381.00 257.00
C 369.99 266.95 357.18 280.51 346.75 290.75 C 336.32 300.99 314.27 317.72 329.77 332.23 C 345.27 346.74 360.46 323.08 371.25 313.25 C 382.04 303.42 394.12 288.42 406.00 280.00
C 416.08 291.44 429.89 303.80 440.25 314.75 C 450.61 325.70 467.43 346.69 481.75 330.75 C 496.08 314.81 471.98 301.03 462.25 289.75 C 452.52 278.47 437.35 267.24 429.00 255.00
C 440.04 244.69 453.33 231.42 463.75 220.75 C 474.17 210.08 496.40 194.94 480.75 180.25 C 465.10 165.56 449.71 188.48 438.75 198.75 C 427.80 209.02 416.00 223.25 404.00 232.00 Z"/>
</g>
<g fill="#000000" fill-opacity="0.00" stroke="None">
<path d="
M 0.00 512.00 
L 512.00 512.00
L 512.00 0.00
L 0.00 0.00
L 0.00 512.00
M 264.00 68.00 
C 280.90 70.74 293.77 86.03 294.00 105.00 C 294.23 123.98 293.88 152.13 294.00 173.00 C 294.12 193.87 293.90 219.43 294.00 241.00 C 294.10 262.57 293.87 287.47 294.00 309.00 C 294.13 330.53 293.74 356.26 294.00 377.00 C 294.26 397.74 296.68 419.28 282.75 433.75 C 268.82 448.22 248.35 446.82 233.75 437.25 C 219.16 427.67 208.21 418.68 193.92 409.08 C 179.63 399.48 168.91 390.52 154.25 380.75 C 139.60 370.97 129.43 358.27 110.00 358.00 C 90.57 357.73 64.50 362.17 46.31 353.69 C 28.11 345.22 24.55 325.70 26.00 306.00 C 27.45 286.30 24.52 258.49 26.00 238.00 C 27.48 217.51 21.68 192.84 30.31 174.31 C 38.93 155.77 59.33 152.87 78.00 154.00 C 96.67 155.13 122.45 156.46 136.23 144.23 C 150.01 132.00 162.15 126.84 175.75 115.75 C 189.35 104.67 201.93 98.55 215.70 87.70 C 229.46 76.84 244.64 64.86 264.00 68.00
M 404.00 232.00 
C 416.00 223.25 427.80 209.02 438.75 198.75 C 449.71 188.48 465.10 165.56 480.75 180.25 C 496.40 194.94 474.17 210.08 463.75 220.75 C 453.33 231.42 440.04 244.69 429.00 255.00
C 437.35 267.24 452.52 278.47 462.25 289.75 C 471.98 301.03 496.08 314.81 481.75 330.75 C 467.43 346.69 450.61 325.70 440.25 314.75 C 429.89 303.80 416.08 291.44 406.00 280.00
C 394.12 288.42 382.04 303.42 371.25 313.25 C 360.46 323.08 345.27 346.74 329.77 332.23 C 314.27 317.72 336.32 300.99 346.75 290.75 C 357.18 280.51 369.99 266.95 381.00 257.00
C 372.63 245.07 357.51 233.11 347.75 222.25 C 338.00 211.39 314.54 196.52 328.77 180.77 C 343.00 165.02 360.13 187.25 370.25 197.75 C 380.37 208.26 394.14 220.93 404.00 232.00 Z"/>
</g>
<g fill="#FFFFFF" fill-opacity="0.96" stroke="None">
<path d="
M 264.00 68.00 
C 244.64 64.86 229.46 76.84 215.70 87.70 C 201.93 98.55 189.35 104.67 175.75 115.75 C 162.15 126.84 150.01 132.00 136.23 144.23 C 122.45 156.46 96.67 155.13 78.00 154.00 C 59.33 152.87 38.93 155.77 30.31 174.31 C 21.68 192.84 27.48 217.51 26.00 238.00 C 24.52 258.49 27.45 286.30 26.00 306.00 C 24.55 325.70 28.11 345.22 46.31 353.69 C 64.50 362.17 90.57 357.73 110.00 358.00 C 129.43 358.27 139.60 370.97 154.25 380.75 C 168.91 390.52 179.63 399.48 193.92 409.08 C 208.21 418.68 219.16 427.67 233.75 437.25 C 248.35 446.82 268.82 448.22 282.75 433.75 C 296.68 419.28 294.26 397.74 294.00 377.00 C 293.74 356.26 294.13 330.53 294.00 309.00 C 293.87 287.47 294.10 262.57 294.00 241.00 C 293.90 219.43 294.12 193.87 294.00 173.00 C 293.88 152.13 294.23 123.98 294.00 105.00 C 293.77 86.03 280.90 70.74 264.00 68.00
M 259.00 101.00 
C 264.43 103.78 259.91 115.99 261.00 122.00 C 262.09 128.01 260.51 138.90 261.00 146.00 C 261.49 153.10 260.78 162.42 261.00 170.00 C 261.22 177.58 260.90 186.22 261.00 194.00 C 261.10 201.78 260.96 210.17 261.00 218.00 C 261.04 225.83 260.99 233.13 261.00 241.00 C 261.01 248.87 261.01 257.07 261.00 265.00 C 260.99 272.93 261.03 281.05 261.00 289.00 C 260.97 296.95 261.08 305.08 261.00 313.00 C 260.92 320.92 261.18 329.15 261.00 337.00 C 260.82 344.85 261.42 352.23 261.00 360.00 C 260.58 367.77 261.89 376.35 261.00 384.00 C 260.11 391.65 263.10 400.46 260.67 407.67 C 258.24 414.88 250.15 408.85 245.77 405.23 C 241.39 401.61 237.53 399.55 231.77 395.23 C 226.01 390.91 225.63 390.93 217.77 385.23 C 209.91 379.53 198.28 371.25 190.30 365.70 C 182.33 360.15 182.53 360.04 176.30 355.70 C 170.08 351.35 167.81 349.53 162.30 345.70 C 156.79 341.87 153.66 339.37 148.30 335.70 C 142.95 332.03 140.34 329.59 133.92 327.08 C 127.51 324.57 119.51 325.14 112.00 325.00 C 104.49 324.86 95.75 325.55 88.00 325.00 C 80.25 324.45 71.82 326.32 64.00 325.00 C 56.18 323.68 59.39 312.50 59.00 306.00 C 58.61 299.50 59.09 290.23 59.00 283.00 C 58.91 275.77 58.87 266.49 59.00 259.00 C 59.13 251.51 58.56 242.42 59.00 235.00 C 59.44 227.58 57.97 217.96 59.00 211.00 C 60.03 204.04 55.86 193.75 60.75 188.75 C 65.65 183.76 76.16 188.15 83.00 187.00 C 89.84 185.85 98.63 187.53 106.00 187.00 C 113.37 186.47 121.80 187.71 129.07 186.07 C 136.34 184.44 138.62 182.61 145.25 178.25 C 151.88 173.89 151.03 173.65 159.25 168.25 C 167.47 162.84 178.89 154.45 187.08 149.08 C 195.27 143.71 194.82 143.24 201.08 139.08 C 207.34 134.92 209.69 132.58 215.08 129.08 C 220.47 125.58 224.09 122.04 229.08 119.08 C 234.07 116.12 238.27 111.27 243.08 109.08 C 247.89 106.90 253.06 97.96 259.00 101.00 Z"/>
</g>
<g fill="#000000" fill-opacity="0.00" stroke="None">
<path d="
M 259.00 101.00 
C 253.06 97.96 247.89 106.90 243.08 109.08 C 238.27 111.27 234.07 116.12 229.08 119.08 C 224.09 122.04 220.47 125.58 215.08 129.08 C 209.69 132.58 207.34 134.92 201.08 139.08 C 194.82 143.24 195.27 143.71 187.08 149.08 C 178.89 154.45 167.47 162.84 159.25 168.25 C 151.03 173.65 151.88 173.89 145.25 178.25 C 138.62 182.61 136.34 184.44 129.07 186.07 C 121.80 187.71 113.37 186.47 106.00 187.00 C 98.63 187.53 89.84 185.85 83.00 187.00 C 76.16 188.15 65.65 183.76 60.75 188.75 C 55.86 193.75 60.03 204.04 59.00 211.00 C 57.97 217.96 59.44 227.58 59.00 235.00 C 58.56 242.42 59.13 251.51 59.00 259.00 C 58.87 266.49 58.91 275.77 59.00 283.00 C 59.09 290.23 58.61 299.50 59.00 306.00 C 59.39 312.50 56.18 323.68 64.00 325.00 C 71.82 326.32 80.25 324.45 88.00 325.00 C 95.75 325.55 104.49 324.86 112.00 325.00 C 119.51 325.14 127.51 324.57 133.92 327.08 C 140.34 329.59 142.95 332.03 148.30 335.70 C 153.66 339.37 156.79 341.87 162.30 345.70 C 167.81 349.53 170.08 351.35 176.30 355.70 C 182.53 360.04 182.33 360.15 190.30 365.70 C 198.28 371.25 209.91 379.53 217.77 385.23 C 225.63 390.93 226.01 390.91 231.77 395.23 C 237.53 399.55 241.39 401.61 245.77 405.23 C 250.15 408.85 258.24 414.88 260.67 407.67 C 263.10 400.46 260.11 391.65 261.00 384.00 C 261.89 376.35 260.58 367.77 261.00 360.00 C 261.42 352.23 260.82 344.85 261.00 337.00 C 261.18 329.15 260.92 320.92 261.00 313.00 C 261.08 305.08 260.97 296.95 261.00 289.00 C 261.03 281.05 260.99 272.93 261.00 265.00 C 261.01 257.07 261.01 248.87 261.00 241.00 C 260.99 233.13 261.04 225.83 261.00 218.00 C 260.96 210.17 261.10 201.78 261.00 194.00 C 260.90 186.22 261.22 177.58 261.00 170.00 C 260.78 162.42 261.49 153.10 261.00 146.00 C 260.51 138.90 262.09 128.01 261.00 122.00 C 259.91 115.99 264.43 103.78 259.00 101.00 Z"/>
</g>
<g fill="#FFFFFF" fill-opacity="0.96" stroke="None">
<path d="
M 404.00 232.00 
C 394.14 220.93 380.37 208.26 370.25 197.75 C 360.13 187.25 343.00 165.02 328.77 180.77 C 314.54 196.52 338.00 211.39 347.75 222.25 C 357.51 233.11 372.63 245.07 381.00 257.00
C 369.99 266.95 357.18 280.51 346.75 290.75 C 336.32 300.99 314.27 317.72 329.77 332.23 C 345.27 346.74 360.46 323.08 371.25 313.25 C 382.04 303.42 394.12 288.42 406.00 280.00
C 416.08 291.44 429.89 303.80 440.25 314.75 C 450.61 325.70 467.43 346.69 481.75 330.75 C 496.08 314.81 471.98 301.03 462.25 289.75 C 452.52 278.47 437.35 267.24 429.00 255.00
C 440.04 244.69 453.33 231.42 463.75 220.75 C 474.17 210.08 496.40 194.94 480.75 180.25 C 465.10 165.56 449.71 188.48 438.75 198.75 C 427.80 209.02 416.00 223.25 404.00 232.00 Z"/>
</g>
</svg>