<svg xmlns="http://www.w3.org/2000/svg" xmlns:v="https://svgstorm.com"
viewBox = "0 0 512 512"
width="512"
height="512">
<g fill="None" fill-opacity="0.0" stroke="#000000" stroke-opacity="0.00" stroke-width="0.3"><path d="
M 0.00 512.00 
L 512.00 512.00
L 512.00 0.00
L 0.00 0.00
L 0.00 512.00
M 455.00 64.00 
C 472.22 68.01 470.11 87.69 470.00 103.00 C 469.89 118.31 470.06 140.21 470.00 157.00 C 469.94 173.79 470.05 193.53 470.00 211.00 C 469.95 228.47 470.07 247.20 470.00 265.00 C 469.93 282.80 470.14 301.02 470.00 319.00 C 469.86 336.98 470.29 354.84 470.00 373.00 C 469.71 391.16 470.64 408.55 470.00 427.00 C 469.36 445.45 452.64 449.48 436.00 448.00 C 419.36 446.52 399.38 448.69 382.00 448.00 C 364.62 447.31 345.72 448.36 328.00 448.00 C 310.28 447.64 291.86 448.27 274.00 448.00 C 256.14 447.73 237.92 448.36 220.00 448.00 C 202.08 447.64 183.93 448.70 166.00 448.00 C 148.07 447.30 129.88 449.49 112.00 448.00 C 94.12 446.51 74.90 451.37 57.33 447.67 C 39.76 443.97 41.81 424.38 42.00 409.00 C 42.19 393.62 41.91 371.82 42.00 355.00 C 42.09 338.18 41.94 318.49 42.00 301.00 C 42.06 283.51 41.93 264.81 42.00 247.00 C 42.07 229.20 41.88 210.99 42.00 193.00 C 42.12 175.01 41.74 157.18 42.00 139.00 C 42.26 120.82 41.43 103.48 42.00 85.00 C 42.57 66.52 59.36 62.53 76.00 64.00 C 92.64 65.47 112.62 63.31 130.00 64.00 C 147.38 64.69 166.29 63.63 184.00 64.00 C 201.71 64.37 220.15 63.70 238.00 64.00 C 255.85 64.30 274.12 63.56 292.00 64.00 C 309.88 64.44 328.16 63.14 346.00 64.00 C 363.84 64.86 382.31 62.14 400.00 64.00 C 417.69 65.86 437.75 59.99 455.00 64.00 Z"/>
</g>
<g fill="None" fill-opacity="0.0" stroke="#FFFFFF" stroke-opacity="0.98" stroke-width="0.3"><path d="
M 455.00 64.00 
C 437.75 59.99 417.69 65.86 400.00 64.00 C 382.31 62.14 363.84 64.86 346.00 64.00 C 328.16 63.14 309.88 64.44 292.00 64.00 C 274.12 63.56 255.85 64.30 238.00 64.00 C 220.15 63.70 201.71 64.37 184.00 64.00 C 166.29 63.63 147.38 64.69 130.00 64.00 C 112.62 63.31 92.64 65.47 76.00 64.00 C 59.36 62.53 42.57 66.52 42.00 85.00 C 41.43 103.48 42.26 120.82 42.00 139.00 C 41.74 157.18 42.12 175.01 42.00 193.00 C 41.88 210.99 42.07 229.20 42.00 247.00 C 41.93 264.81 42.06 283.51 42.00 301.00 C 41.94 318.49 42.09 338.18 42.00 355.00 C 41.91 371.82 42.19 393.62 42.00 409.00 C 41.81 424.38 39.76 443.97 57.33 447.67 C 74.90 451.37 94.12 446.51 112.00 448.00 C 129.88 449.49 148.07 447.30 166.00 448.00 C 183.93 448.70 202.08 447.64 220.00 448.00 C 237.92 448.36 256.14 447.73 274.00 448.00 C 291.86 448.27 310.28 447.64 328.00 448.00 C 345.72 448.36 364.62 447.31 382.00 448.00 C 399.38 448.69 419.36 446.52 436.00 448.00 C 452.64 449.48 469.36 445.45 470.00 427.00 C 470.64 408.55 469.71 391.16 470.00 373.00 C 470.29 354.84 469.86 336.98 470.00 319.00 C 470.14 301.02 469.93 282.80 470.00 265.00 C 470.07 247.20 469.95 228.47 470.00 211.00 C 470.05 193.53 469.94 173.79 470.00 157.00 C 470.06 140.21 469.89 118.31 470.00 103.00 C 470.11 87.69 472.22 68.01 455.00 64.00
M 426.00 107.00 
C 426.00 206.33 426.00 305.67 426.00 405.00
C 312.67 405.00 199.33 405.00 86.00 405.00
C 86.00 305.67 86.00 206.33 86.00 107.00
C 199.33 107.00 312.67 107.00 426.00 107.00 Z"/>
</g>
<g fill="None" fill-opacity="0.0" stroke="#000000" stroke-opacity="0.00" stroke-width="0.3"><path d="
M 426.00 107.00 
C 312.67 107.00 199.33 107.00 86.00 107.00
C 86.00 206.33 86.00 305.67 86.00 405.00
C 199.33 405.00 312.67 405.00 426.00 405.00
C 426.00 305.67 426.00 206.33 426.00 107.00
M 226.00 178.00 
C 235.22 180.50 241.90 190.75 251.08 194.92 C 260.26 199.09 267.51 207.15 276.75 212.25 C 285.98 217.36 292.93 223.70 302.70 229.30 C 312.46 234.91 317.28 240.56 328.25 246.75 C 339.21 252.95 332.40 265.17 322.30 269.30 C 312.21 273.44 305.92 282.07 296.75 286.75 C 287.59 291.44 279.33 299.12 270.77 303.77 C 262.21 308.42 253.05 317.45 244.92 320.92 C 236.79 324.39 226.16 340.24 216.93 333.07 C 207.70 325.90 214.58 305.62 213.00 294.00 C 211.42 282.38 213.71 263.22 213.00 251.00 C 212.29 238.78 213.31 219.41 213.00 208.00 C 212.69 196.59 208.94 173.38 226.00 178.00 Z"/>
</g>
<g fill="None" fill-opacity="0.0" stroke="#FFFFFF" stroke-opacity="0.98" stroke-width="0.3"><path d="
M 226.00 178.00 
C 208.94 173.38 212.69 196.59 213.00 208.00 C 213.31 219.41 212.29 238.78 213.00 251.00 C 213.71 263.22 211.42 282.38 213.00 294.00 C 214.58 305.62 207.70 325.90 216.93 333.07 C 226.16 340.24 236.79 324.39 244.92 320.92 C 253.05 317.45 262.21 308.42 270.77 303.77 C 279.33 299.12 287.59 291.44 296.75 286.75 C 305.92 282.07 312.21 273.44 322.30 269.30 C 332.40 265.17 339.21 252.95 328.25 246.75 C 317.28 240.56 312.46 234.91 302.70 229.30 C 292.93 223.70 285.98 217.36 276.75 212.25 C 267.51 207.15 260.26 199.09 251.08 194.92 C 241.90 190.75 235.22 180.50 226.00 178.00 Z"/>
</g>
<g fill="#000000" fill-opacity="0.00" stroke="None">
<path d="
M 0.00 512.00 
L 512.00 512.00
L 512.00 0.00
L 0.00 0.00
L 0.00 512.00
M 455.00 64.00 
C 472.22 68.01 470.11 87.69 470.00 103.00 C 469.89 118.31 470.06 140.21 470.00 157.00 C 469.94 173.79 470.05 193.53 470.00 211.00 C 469.95 228.47 470.07 247.20 470.00 265.00 C 469.93 282.80 470.14 301.02 470.00 319.00 C 469.86 336.98 470.29 354.84 470.00 373.00 C 469.71 391.16 470.64 408.55 470.00 427.00 C 469.36 445.45 452.64 449.48 436.00 448.00 C 419.36 446.52 399.38 448.69 382.00 448.00 C 364.62 447.31 345.72 448.36 328.00 448.00 C 310.28 447.64 291.86 448.27 274.00 448.00 C 256.14 447.73 237.92 448.36 220.00 448.00 C 202.08 447.64 183.93 448.70 166.00 448.00 C 148.07 447.30 129.88 449.49 112.00 448.00 C 94.12 446.51 74.90 451.37 57.33 447.67 C 39.76 443.97 41.81 424.38 42.00 409.00 C 42.19 393.62 41.91 371.82 42.00 355.00 C 42.09 338.18 41.94 318.49 42.00 301.00 C 42.06 283.51 41.93 264.81 42.00 247.00 C 42.07 229.20 41.88 210.99 42.00 193.00 C 42.12 175.01 41.74 157.18 42.00 139.00 C 42.26 120.82 41.43 103.48 42.00 85.00 C 42.57 66.52 59.36 62.53 76.00 64.00 C 92.64 65.47 112.62 63.31 130.00 64.00 C 147.38 64.69 166.29 63.63 184.00 64.00 C 201.71 64.37 220.15 63.70 238.00 64.00 C 255.85 64.30 274.12 63.56 292.00 64.00 C 309.88 64.44 328.16 63.14 346.00 64.00 C 363.84 64.86 382.31 62.14 400.00 64.00 C 417.69 65.86 437.75 59.99 455.00 64.00 Z"/>
</g>
<g fill="#FFFFFF" fill-opacity="0.98" stroke="None">
<path d="
M 455.00 64.00 
C 437.75 59.99 417.69 65.86 400.00 64.00 C 382.31 62.14 363.84 64.86 346.00 64.00 C 328.16 63.14 309.88 64.44 292.00 64.00 C 274.12 63.56 255.85 64.30 238.00 64.00 C 220.15 63.70 201.71 64.37 184.00 64.00 C 166.29 63.63 147.38 64.69 130.00 64.00 C 112.62 63.31 92.64 65.47 76.00 64.00 C 59.36 62.53 42.57 66.52 42.00 85.00 C 41.43 103.48 42.26 120.82 42.00 139.00 C 41.74 157.18 42.12 175.01 42.00 193.00 C 41.88 210.99 42.07 229.20 42.00 247.00 C 41.93 264.81 42.06 283.51 42.00 301.00 C 41.94 318.49 42.09 338.18 42.00 355.00 C 41.91 371.82 42.19 393.62 42.00 409.00 C 41.81 424.38 39.76 443.97 57.33 447.67 C 74.90 451.37 94.12 446.51 112.00 448.00 C 129.88 449.49 148.07 447.30 166.00 448.00 C 183.93 448.70 202.08 447.64 220.00 448.00 C 237.92 448.36 256.14 447.73 274.00 448.00 C 291.86 448.27 310.28 447.64 328.00 448.00 C 345.72 448.36 364.62 447.31 382.00 448.00 C 399.38 448.69 419.36 446.52 436.00 448.00 C 452.64 449.48 469.36 445.45 470.00 427.00 C 470.64 408.55 469.71 391.16 470.00 373.00 C 470.29 354.84 469.86 336.98 470.00 319.00 C 470.14 301.02 469.93 282.80 470.00 265.00 C 470.07 247.20 469.95 228.47 470.00 211.00 C 470.05 193.53 469.94 173.79 470.00 157.00 C 470.06 140.21 469.89 118.31 470.00 103.00 C 470.11 87.69 472.22 68.01 455.00 64.00
M 426.00 107.00 
C 426.00 206.33 426.00 305.67 426.00 405.00
C 312.67 405.00 199.33 405.00 86.00 405.00
C 86.00 305.67 86.00 206.33 86.00 107.00
C 199.33 107.00 312.67 107.00 426.00 107.00 Z"/>
</g>
<g fill="#000000" fill-opacity="0.00" stroke="None">
<path d="
M 426.00 107.00 
C 312.67 107.00 199.33 107.00 86.00 107.00
C 86.00 206.33 86.00 305.67 86.00 405.00
C 199.33 405.00 312.67 405.00 426.00 405.00
C 426.00 305.67 426.00 206.33 426.00 107.00
M 226.00 178.00 
C 235.22 180.50 241.90 190.75 251.08 194.92 C 260.26 199.09 267.51 207.15 276.75 212.25 C 285.98 217.36 292.93 223.70 302.70 229.30 C 312.46 234.91 317.28 240.56 328.25 246.75 C 339.21 252.95 332.40 265.17 322.30 269.30 C 312.21 273.44 305.92 282.07 296.75 286.75 C 287.59 291.44 279.33 299.12 270.77 303.77 C 262.21 308.42 253.05 317.45 244.92 320.92 C 236.79 324.39 226.16 340.24 216.93 333.07 C 207.70 325.90 214.58 305.62 213.00 294.00 C 211.42 282.38 213.71 263.22 213.00 251.00 C 212.29 238.78 213.31 219.41 213.00 208.00 C 212.69 196.59 208.94 173.38 226.00 178.00 Z"/>
</g>
<g fill="#FFFFFF" fill-opacity="0.98" stroke="None">
<path d="
M 226.00 178.00 
C 208.94 173.38 212.69 196.59 213.00 208.00 C 213.31 219.41 212.29 238.78 213.00 251.00 C 213.71 263.22 211.42 282.38 213.00 294.00 C 214.58 305.62 207.70 325.90 216.93 333.07 C 226.16 340.24 236.79 324.39 244.92 320.92 C 253.05 317.45 262.21 308.42 270.77 303.77 C 279.33 299.12 287.59 291.44 296.75 286.75 C 305.92 282.07 312.21 273.44 322.30 269.30 C 332.40 265.17 339.21 252.95 328.25 246.75 C 317.28 240.56 312.46 234.91 302.70 229.30 C 292.93 223.70 285.98 217.36 276.75 212.25 C 267.51 207.15 260.26 199.09 251.08 194.92 C 241.90 190.75 235.22 180.50 226.00 178.00 Z"/>
</g>
</svg>