<svg xmlns="http://www.w3.org/2000/svg" xmlns:v="https://svgstorm.com"
viewBox = "0 0 512 512"
width="512"
height="512">
<g fill="None" fill-opacity="0.0" stroke="#000000" stroke-opacity="0.00" stroke-width="0.3"><path d="
M 0.00 512.00 
L 112.00 512.00
C 101.50 504.43 91.82 492.87 82.25 483.75 C 72.67 474.63 62.01 463.06 52.75 454.25 C 43.49 445.43 25.88 431.68 33.92 418.92 C 41.97 406.17 53.26 399.39 62.75 388.75 C 72.24 378.11 82.71 369.07 92.25 359.25 C 101.79 349.42 114.06 333.06 127.75 345.25 C 141.44 357.44 125.25 372.27 115.25 381.25 C 105.25 390.23 95.40 401.46 86.00 411.00
C 106.75 410.99 127.22 411.02 148.00 411.00 C 168.78 410.98 190.23 411.03 211.00 411.00 C 231.77 410.97 253.39 411.07 274.00 411.00 C 294.61 410.93 316.81 411.15 337.00 411.00 C 357.19 410.85 380.78 411.33 400.00 411.00 C 419.22 410.67 430.11 404.24 440.92 388.92 C 451.73 373.60 449.15 353.73 449.00 334.00 C 448.85 314.27 449.67 291.69 449.00 271.00 C 448.33 250.31 480.86 250.34 480.00 271.00 C 479.14 291.66 480.50 313.30 480.00 333.00 C 479.50 352.70 482.07 374.34 475.07 391.07 C 468.08 407.80 462.11 416.11 447.77 426.77 C 433.43 437.43 419.26 442.30 400.00 442.00 C 380.74 441.70 357.21 442.14 337.00 442.00 C 316.79 441.86 294.64 442.06 274.00 442.00 C 253.36 441.94 231.83 442.03 211.00 442.00 C 190.17 441.97 168.91 442.01 148.00 442.00 C 127.09 441.99 105.93 442.01 85.00 442.00
C 96.02 452.27 104.93 464.65 116.75 474.25 C 128.57 483.84 142.51 502.41 123.00 512.00
L 512.00 512.00
L 512.00 0.00
L 400.00 0.00
C 410.50 7.57 420.18 19.13 429.75 28.25 C 439.33 37.37 449.99 48.94 459.25 57.75 C 468.51 66.57 486.12 80.32 478.08 93.08 C 470.03 105.83 458.74 112.61 449.25 123.25 C 439.76 133.89 429.29 142.93 419.75 152.75 C 410.21 162.58 397.94 178.94 384.25 166.75 C 370.56 154.56 386.75 139.73 396.75 130.75 C 406.75 121.77 416.60 110.54 426.00 101.00
C 404.09 101.07 381.89 100.91 360.00 101.00 C 338.11 101.09 315.78 100.83 294.00 101.00 C 272.22 101.17 248.43 100.63 227.00 101.00 C 205.57 101.37 181.55 100.18 161.00 101.00 C 140.45 101.82 115.33 98.14 97.32 103.32 C 79.31 108.50 69.95 121.23 65.07 138.07 C 60.20 154.92 66.79 185.98 64.00 203.00 C 61.21 220.02 73.18 252.32 50.00 255.00 C 26.81 257.67 32.70 224.09 33.00 207.00 C 33.30 189.91 31.72 158.57 33.00 141.00 C 34.28 123.43 41.02 107.97 53.25 95.25 C 65.49 82.54 77.62 74.20 96.07 71.07 C 114.52 67.94 140.42 70.71 161.00 70.00 C 181.58 69.29 205.54 70.32 227.00 70.00 C 248.46 69.68 272.15 70.15 294.00 70.00 C 315.85 69.85 337.97 70.08 360.00 70.00 C 382.03 69.92 404.90 70.06 427.00 70.00
C 415.98 59.73 407.07 47.35 395.25 37.75 C 383.43 28.16 369.49 9.59 389.00 0.00
L 0.00 0.00
L 0.00 512.00 Z"/>
</g>
<g fill="None" fill-opacity="0.0" stroke="#FFFFFF" stroke-opacity="0.96" stroke-width="0.3"><path d="
M 400.00 0.00 
L 389.00 0.00
C 369.49 9.59 383.43 28.16 395.25 37.75 C 407.07 47.35 415.98 59.73 427.00 70.00
C 404.90 70.06 382.03 69.92 360.00 70.00 C 337.97 70.08 315.85 69.85 294.00 70.00 C 272.15 70.15 248.46 69.68 227.00 70.00 C 205.54 70.32 181.58 69.29 161.00 70.00 C 140.42 70.71 114.52 67.94 96.07 71.07 C 77.62 74.20 65.49 82.54 53.25 95.25 C 41.02 107.97 34.28 123.43 33.00 141.00 C 31.72 158.57 33.30 189.91 33.00 207.00 C 32.70 224.09 26.81 257.67 50.00 255.00 C 73.18 252.32 61.21 220.02 64.00 203.00 C 66.79 185.98 60.20 154.92 65.07 138.07 C 69.95 121.23 79.31 108.50 97.32 103.32 C 115.33 98.14 140.45 101.82 161.00 101.00 C 181.55 100.18 205.57 101.37 227.00 101.00 C 248.43 100.63 272.22 101.17 294.00 101.00 C 315.78 100.83 338.11 101.09 360.00 101.00 C 381.89 100.91 404.09 101.07 426.00 101.00
C 416.60 110.54 406.75 121.77 396.75 130.75 C 386.75 139.73 370.56 154.56 384.25 166.75 C 397.94 178.94 410.21 162.58 419.75 152.75 C 429.29 142.93 439.76 133.89 449.25 123.25 C 458.74 112.61 470.03 105.83 478.08 93.08 C 486.12 80.32 468.51 66.57 459.25 57.75 C 449.99 48.94 439.33 37.37 429.75 28.25 C 420.18 19.13 410.50 7.57 400.00 0.00 Z"/>
</g>
<g fill="None" fill-opacity="0.0" stroke="#FFFFFF" stroke-opacity="0.96" stroke-width="0.3"><path d="
M 112.00 512.00 
L 123.00 512.00
C 142.51 502.41 128.57 483.84 116.75 474.25 C 104.93 464.65 96.02 452.27 85.00 442.00
C 105.93 442.01 127.09 441.99 148.00 442.00 C 168.91 442.01 190.17 441.97 211.00 442.00 C 231.83 442.03 253.36 441.94 274.00 442.00 C 294.64 442.06 316.79 441.86 337.00 442.00 C 357.21 442.14 380.74 441.70 400.00 442.00 C 419.26 442.30 433.43 437.43 447.77 426.77 C 462.11 416.11 468.08 407.80 475.07 391.07 C 482.07 374.34 479.50 352.70 480.00 333.00 C 480.50 313.30 479.14 291.66 480.00 271.00 C 480.86 250.34 448.33 250.31 449.00 271.00 C 449.67 291.69 448.85 314.27 449.00 334.00 C 449.15 353.73 451.73 373.60 440.92 388.92 C 430.11 404.24 419.22 410.67 400.00 411.00 C 380.78 411.33 357.19 410.85 337.00 411.00 C 316.81 411.15 294.61 410.93 274.00 411.00 C 253.39 411.07 231.77 410.97 211.00 411.00 C 190.23 411.03 168.78 410.98 148.00 411.00 C 127.22 411.02 106.75 410.99 86.00 411.00
C 95.40 401.46 105.25 390.23 115.25 381.25 C 125.25 372.27 141.44 357.44 127.75 345.25 C 114.06 333.06 101.79 349.42 92.25 359.25 C 82.71 369.07 72.24 378.11 62.75 388.75 C 53.26 399.39 41.97 406.17 33.92 418.92 C 25.88 431.68 43.49 445.43 52.75 454.25 C 62.01 463.06 72.67 474.63 82.25 483.75 C 91.82 492.87 101.50 504.43 112.00 512.00 Z"/>
</g>
<g fill="#000000" fill-opacity="0.00" stroke="None">
<path d="
M 0.00 512.00 
L 112.00 512.00
C 101.50 504.43 91.82 492.87 82.25 483.75 C 72.67 474.63 62.01 463.06 52.75 454.25 C 43.49 445.43 25.88 431.68 33.92 418.92 C 41.97 406.17 53.26 399.39 62.75 388.75 C 72.24 378.11 82.71 369.07 92.25 359.25 C 101.79 349.42 114.06 333.06 127.75 345.25 C 141.44 357.44 125.25 372.27 115.25 381.25 C 105.25 390.23 95.40 401.46 86.00 411.00
C 106.75 410.99 127.22 411.02 148.00 411.00 C 168.78 410.98 190.23 411.03 211.00 411.00 C 231.77 410.97 253.39 411.07 274.00 411.00 C 294.61 410.93 316.81 411.15 337.00 411.00 C 357.19 410.85 380.78 411.33 400.00 411.00 C 419.22 410.67 430.11 404.24 440.92 388.92 C 451.73 373.60 449.15 353.73 449.00 334.00 C 448.85 314.27 449.67 291.69 449.00 271.00 C 448.33 250.31 480.86 250.34 480.00 271.00 C 479.14 291.66 480.50 313.30 480.00 333.00 C 479.50 352.70 482.07 374.34 475.07 391.07 C 468.08 407.80 462.11 416.11 447.77 426.77 C 433.43 437.43 419.26 442.30 400.00 442.00 C 380.74 441.70 357.21 442.14 337.00 442.00 C 316.79 441.86 294.64 442.06 274.00 442.00 C 253.36 441.94 231.83 442.03 211.00 442.00 C 190.17 441.97 168.91 442.01 148.00 442.00 C 127.09 441.99 105.93 442.01 85.00 442.00
C 96.02 452.27 104.93 464.65 116.75 474.25 C 128.57 483.84 142.51 502.41 123.00 512.00
L 512.00 512.00
L 512.00 0.00
L 400.00 0.00
C 410.50 7.57 420.18 19.13 429.75 28.25 C 439.33 37.37 449.99 48.94 459.25 57.75 C 468.51 66.57 486.12 80.32 478.08 93.08 C 470.03 105.83 458.74 112.61 449.25 123.25 C 439.76 133.89 429.29 142.93 419.75 152.75 C 410.21 162.58 397.94 178.94 384.25 166.75 C 370.56 154.56 386.75 139.73 396.75 130.75 C 406.75 121.77 416.60 110.54 426.00 101.00
C 404.09 101.07 381.89 100.91 360.00 101.00 C 338.11 101.09 315.78 100.83 294.00 101.00 C 272.22 101.17 248.43 100.63 227.00 101.00 C 205.57 101.37 181.55 100.18 161.00 101.00 C 140.45 101.82 115.33 98.14 97.32 103.32 C 79.31 108.50 69.95 121.23 65.07 138.07 C 60.20 154.92 66.79 185.98 64.00 203.00 C 61.21 220.02 73.18 252.32 50.00 255.00 C 26.81 257.67 32.70 224.09 33.00 207.00 C 33.30 189.91 31.72 158.57 33.00 141.00 C 34.28 123.43 41.02 107.97 53.25 95.25 C 65.49 82.54 77.62 74.20 96.07 71.07 C 114.52 67.94 140.42 70.71 161.00 70.00 C 181.58 69.29 205.54 70.32 227.00 70.00 C 248.46 69.68 272.15 70.15 294.00 70.00 C 315.85 69.85 337.97 70.08 360.00 70.00 C 382.03 69.92 404.90 70.06 427.00 70.00
C 415.98 59.73 407.07 47.35 395.25 37.75 C 383.43 28.16 369.49 9.59 389.00 0.00
L 0.00 0.00
L 0.00 512.00 Z"/>
</g>
<g fill="#FFFFFF" fill-opacity="0.96" stroke="None">
<path d="
M 400.00 0.00 
L 389.00 0.00
C 369.49 9.59 383.43 28.16 395.25 37.75 C 407.07 47.35 415.98 59.73 427.00 70.00
C 404.90 70.06 382.03 69.92 360.00 70.00 C 337.97 70.08 315.85 69.85 294.00 70.00 C 272.15 70.15 248.46 69.68 227.00 70.00 C 205.54 70.32 181.58 69.29 161.00 70.00 C 140.42 70.71 114.52 67.94 96.07 71.07 C 77.62 74.20 65.49 82.54 53.25 95.25 C 41.02 107.97 34.28 123.43 33.00 141.00 C 31.72 158.57 33.30 189.91 33.00 207.00 C 32.70 224.09 26.81 257.67 50.00 255.00 C 73.18 252.32 61.21 220.02 64.00 203.00 C 66.79 185.98 60.20 154.92 65.07 138.07 C 69.95 121.23 79.31 108.50 97.32 103.32 C 115.33 98.14 140.45 101.82 161.00 101.00 C 181.55 100.18 205.57 101.37 227.00 101.00 C 248.43 100.63 272.22 101.17 294.00 101.00 C 315.78 100.83 338.11 101.09 360.00 101.00 C 381.89 100.91 404.09 101.07 426.00 101.00
C 416.60 110.54 406.75 121.77 396.75 130.75 C 386.75 139.73 370.56 154.56 384.25 166.75 C 397.94 178.94 410.21 162.58 419.75 152.75 C 429.29 142.93 439.76 133.89 449.25 123.25 C 458.74 112.61 470.03 105.83 478.08 93.08 C 486.12 80.32 468.51 66.57 459.25 57.75 C 449.99 48.94 439.33 37.37 429.75 28.25 C 420.18 19.13 410.50 7.57 400.00 0.00 Z"/>
</g>
<g fill="#FFFFFF" fill-opacity="0.96" stroke="None">
<path d="
M 112.00 512.00 
L 123.00 512.00
C 142.51 502.41 128.57 483.84 116.75 474.25 C 104.93 464.65 96.02 452.27 85.00 442.00
C 105.93 442.01 127.09 441.99 148.00 442.00 C 168.91 442.01 190.17 441.97 211.00 442.00 C 231.83 442.03 253.36 441.94 274.00 442.00 C 294.64 442.06 316.79 441.86 337.00 442.00 C 357.21 442.14 380.74 441.70 400.00 442.00 C 419.26 442.30 433.43 437.43 447.77 426.77 C 462.11 416.11 468.08 407.80 475.07 391.07 C 482.07 374.34 479.50 352.70 480.00 333.00 C 480.50 313.30 479.14 291.66 480.00 271.00 C 480.86 250.34 448.33 250.31 449.00 271.00 C 449.67 291.69 448.85 314.27 449.00 334.00 C 449.15 353.73 451.73 373.60 440.92 388.92 C 430.11 404.24 419.22 410.67 400.00 411.00 C 380.78 411.33 357.19 410.85 337.00 411.00 C 316.81 411.15 294.61 410.93 274.00 411.00 C 253.39 411.07 231.77 410.97 211.00 411.00 C 190.23 411.03 168.78 410.98 148.00 411.00 C 127.22 411.02 106.75 410.99 86.00 411.00
C 95.40 401.46 105.25 390.23 115.25 381.25 C 125.25 372.27 141.44 357.44 127.75 345.25 C 114.06 333.06 101.79 349.42 92.25 359.25 C 82.71 369.07 72.24 378.11 62.75 388.75 C 53.26 399.39 41.97 406.17 33.92 418.92 C 25.88 431.68 43.49 445.43 52.75 454.25 C 62.01 463.06 72.67 474.63 82.25 483.75 C 91.82 492.87 101.50 504.43 112.00 512.00 Z"/>
</g>
</svg>