<svg xmlns="http://www.w3.org/2000/svg" xmlns:v="https://svgstorm.com"
viewBox = "0 0 512 512"
width="512"
height="512">
<g fill="None" fill-opacity="0.0" stroke="#000000" stroke-opacity="0.00" stroke-width="0.3"><path d="
M 0.00 191.00 
C 8.15 92.45 96.93 7.00 195.00 0.00
L 0.00 0.00
L 0.00 191.00 Z"/>
</g>
<g fill="None" fill-opacity="0.0" stroke="#FEFFFF" stroke-opacity="0.96" stroke-width="0.3"><path d="
M 0.00 191.00 
L 0.00 232.00
C 8.86 365.85 162.65 461.79 288.07 412.07 C 316.01 412.29 342.80 363.00 364.25 390.75 C 406.07 430.70 446.59 473.43 489.00 512.00
L 501.00 512.00
C 505.64 510.23 509.33 506.10 512.00 502.00
L 512.00 490.00
C 468.94 443.72 421.66 399.08 376.00 355.00
C 496.80 234.98 404.30 6.53 236.00 0.00
L 214.00 0.00
C 211.39 1.56 205.54 1.72 203.00 0.00
L 195.00 0.00
C 96.93 7.00 8.15 92.45 0.00 191.00
M 227.00 33.00 
C 359.41 35.22 447.72 204.57 366.08 312.08 C 295.87 421.60 116.87 413.61 56.25 298.75 C -16.23 181.68 91.06 18.48 227.00 33.00 Z"/>
</g>
<g fill="None" fill-opacity="0.0" stroke="#FEFFFF" stroke-opacity="0.83" stroke-width="0.3"><path d="
M 214.00 0.00 
L 203.00 0.00
C 205.54 1.72 211.39 1.56 214.00 0.00 Z"/>
</g>
<g fill="None" fill-opacity="0.0" stroke="#000000" stroke-opacity="0.00" stroke-width="0.3"><path d="
M 512.00 490.00 
L 512.00 0.00
L 236.00 0.00
C 404.30 6.53 496.80 234.98 376.00 355.00
C 421.66 399.08 468.94 443.72 512.00 490.00 Z"/>
</g>
<g fill="None" fill-opacity="0.0" stroke="#000000" stroke-opacity="0.00" stroke-width="0.3"><path d="
M 227.00 33.00 
C 91.06 18.48 -16.23 181.68 56.25 298.75 C 116.87 413.61 295.87 421.60 366.08 312.08 C 447.72 204.57 359.41 35.22 227.00 33.00 Z"/>
</g>
<g fill="None" fill-opacity="0.0" stroke="#000000" stroke-opacity="0.00" stroke-width="0.3"><path d="
M 0.00 512.00 
L 489.00 512.00
C 446.59 473.43 406.07 430.70 364.25 390.75 C 342.80 363.00 316.01 412.29 288.07 412.07 C 162.65 461.79 8.86 365.85 0.00 232.00
L 0.00 512.00 Z"/>
</g>
<g fill="None" fill-opacity="0.0" stroke="#000000" stroke-opacity="0.00" stroke-width="0.3"><path d="
M 501.00 512.00 
L 512.00 512.00
L 512.00 502.00
C 509.33 506.10 505.64 510.23 501.00 512.00 Z"/>
</g>
<g fill="#000000" fill-opacity="0.00" stroke="None">
<path d="
M 0.00 191.00 
C 8.15 92.45 96.93 7.00 195.00 0.00
L 0.00 0.00
L 0.00 191.00 Z"/>
</g>
<g fill="#FEFFFF" fill-opacity="0.96" stroke="None">
<path d="
M 0.00 191.00 
L 0.00 232.00
C 8.86 365.85 162.65 461.79 288.07 412.07 C 316.01 412.29 342.80 363.00 364.25 390.75 C 406.07 430.70 446.59 473.43 489.00 512.00
L 501.00 512.00
C 505.64 510.23 509.33 506.10 512.00 502.00
L 512.00 490.00
C 468.94 443.72 421.66 399.08 376.00 355.00
C 496.80 234.98 404.30 6.53 236.00 0.00
L 214.00 0.00
C 211.39 1.56 205.54 1.72 203.00 0.00
L 195.00 0.00
C 96.93 7.00 8.15 92.45 0.00 191.00
M 227.00 33.00 
C 359.41 35.22 447.72 204.57 366.08 312.08 C 295.87 421.60 116.87 413.61 56.25 298.75 C -16.23 181.68 91.06 18.48 227.00 33.00 Z"/>
</g>
<g fill="#FEFFFF" fill-opacity="0.83" stroke="None">
<path d="
M 214.00 0.00 
L 203.00 0.00
C 205.54 1.72 211.39 1.56 214.00 0.00 Z"/>
</g>
<g fill="#000000" fill-opacity="0.00" stroke="None">
<path d="
M 512.00 490.00 
L 512.00 0.00
L 236.00 0.00
C 404.30 6.53 496.80 234.98 376.00 355.00
C 421.66 399.08 468.94 443.72 512.00 490.00 Z"/>
</g>
<g fill="#000000" fill-opacity="0.00" stroke="None">
<path d="
M 227.00 33.00 
C 91.06 18.48 -16.23 181.68 56.25 298.75 C 116.87 413.61 295.87 421.60 366.08 312.08 C 447.72 204.57 359.41 35.22 227.00 33.00 Z"/>
</g>
<g fill="#000000" fill-opacity="0.00" stroke="None">
<path d="
M 0.00 512.00 
L 489.00 512.00
C 446.59 473.43 406.07 430.70 364.25 390.75 C 342.80 363.00 316.01 412.29 288.07 412.07 C 162.65 461.79 8.86 365.85 0.00 232.00
L 0.00 512.00 Z"/>
</g>
<g fill="#000000" fill-opacity="0.00" stroke="None">
<path d="
M 501.00 512.00 
L 512.00 512.00
L 512.00 502.00
C 509.33 506.10 505.64 510.23 501.00 512.00 Z"/>
</g>
</svg>