<svg xmlns="http://www.w3.org/2000/svg" xmlns:v="https://svgstorm.com"
viewBox = "0 0 512 512"
width="512"
height="512">
<g fill="None" fill-opacity="0.0" stroke="#000000" stroke-opacity="0.00" stroke-width="0.3"><path d="
M 0.00 512.00 
L 512.00 512.00
L 512.00 0.00
L 0.00 0.00
L 0.00 512.00
M 262.00 64.00 
C 277.62 67.24 283.17 86.49 289.93 99.07 C 296.68 111.66 302.00 130.25 307.92 144.08 C 313.85 157.90 318.19 177.59 336.07 179.93 C 353.95 182.26 376.30 183.09 394.00 185.00 C 411.70 186.91 429.78 187.12 442.75 200.25 C 455.72 213.38 444.58 233.39 434.70 244.70 C 424.81 256.00 412.25 264.93 401.75 275.75 C 391.25 286.58 377.17 291.79 369.25 306.25 C 361.33 320.70 369.67 342.94 373.93 359.07 C 378.18 375.21 380.85 394.33 384.00 412.00 C 387.15 429.67 375.43 452.25 356.00 448.00 C 336.57 443.75 327.96 438.16 312.92 428.08 C 297.88 418.00 288.91 413.35 274.25 402.75 C 259.60 392.14 244.64 397.40 230.92 406.92 C 217.20 416.44 206.38 424.09 192.25 432.25 C 178.13 440.42 163.38 452.05 145.00 448.00 C 126.62 443.95 125.82 417.51 128.99 401.99 C 132.17 386.47 135.56 365.36 140.00 350.00 C 144.44 334.63 150.82 312.07 137.75 300.25 C 124.68 288.44 117.49 280.49 104.75 270.25 C 92.01 260.01 82.93 250.68 72.70 238.30 C 62.47 225.93 59.17 204.59 75.23 195.23 C 91.29 185.87 110.27 186.47 128.00 184.00 C 145.73 181.53 168.69 184.77 184.22 177.22 C 199.75 169.68 200.00 149.70 206.98 135.98 C 213.95 122.25 217.97 105.04 225.31 91.31 C 232.64 77.57 243.27 60.12 262.00 64.00 Z"/>
</g>
<g fill="None" fill-opacity="0.0" stroke="#FEFEFF" stroke-opacity="0.97" stroke-width="0.3"><path d="
M 262.00 64.00 
C 243.27 60.12 232.64 77.57 225.31 91.31 C 217.97 105.04 213.95 122.25 206.98 135.98 C 200.00 149.70 199.75 169.68 184.22 177.22 C 168.69 184.77 145.73 181.53 128.00 184.00 C 110.27 186.47 91.29 185.87 75.23 195.23 C 59.17 204.59 62.47 225.93 72.70 238.30 C 82.93 250.68 92.01 260.01 104.75 270.25 C 117.49 280.49 124.68 288.44 137.75 300.25 C 150.82 312.07 144.44 334.63 140.00 350.00 C 135.56 365.36 132.17 386.47 128.99 401.99 C 125.82 417.51 126.62 443.95 145.00 448.00 C 163.38 452.05 178.13 440.42 192.25 432.25 C 206.38 424.09 217.20 416.44 230.92 406.92 C 244.64 397.40 259.60 392.14 274.25 402.75 C 288.91 413.35 297.88 418.00 312.92 428.08 C 327.96 438.16 336.57 443.75 356.00 448.00 C 375.43 452.25 387.15 429.67 384.00 412.00 C 380.85 394.33 378.18 375.21 373.93 359.07 C 369.67 342.94 361.33 320.70 369.25 306.25 C 377.17 291.79 391.25 286.58 401.75 275.75 C 412.25 264.93 424.81 256.00 434.70 244.70 C 444.58 233.39 455.72 213.38 442.75 200.25 C 429.78 187.12 411.70 186.91 394.00 185.00 C 376.30 183.09 353.95 182.26 336.07 179.93 C 318.19 177.59 313.85 157.90 307.92 144.08 C 302.00 130.25 296.68 111.66 289.93 99.07 C 283.17 86.49 277.62 67.24 262.00 64.00
M 257.00 86.00 
C 263.22 92.84 266.96 99.87 270.77 108.23 C 274.58 116.59 277.92 126.02 281.31 134.69 C 284.69 143.37 287.68 152.79 291.77 161.23 C 295.86 169.67 297.59 178.72 303.77 186.23 C 309.95 193.74 316.65 198.69 326.22 200.78 C 335.80 202.86 347.74 203.85 358.01 204.99 C 368.27 206.13 382.95 205.42 393.00 207.00 C 403.05 208.58 415.23 208.35 423.69 213.31 C 432.16 218.26 419.05 228.82 414.25 234.25 C 409.45 239.68 401.13 246.81 395.25 252.25 C 389.37 257.68 382.03 262.89 375.75 268.75 C 369.47 274.61 362.97 279.90 356.75 286.75 C 350.53 293.61 345.00 301.72 344.67 311.67 C 344.34 321.62 345.19 334.07 348.00 344.00 C 350.81 353.94 352.22 363.66 355.32 373.68 C 358.43 383.69 358.74 392.60 361.98 403.02 C 365.21 413.45 363.35 429.74 351.93 424.07 C 340.51 418.40 336.91 416.97 327.77 411.23 C 318.63 405.49 314.11 401.69 305.75 396.25 C 297.40 390.80 291.06 387.52 282.77 382.23 C 274.48 376.94 265.18 372.85 255.00 373.00 C 244.82 373.15 237.10 377.82 228.75 382.75 C 220.41 387.69 214.06 391.43 205.77 396.77 C 197.48 402.11 192.71 406.00 183.75 411.75 C 174.80 417.51 170.55 419.03 159.32 424.32 C 148.09 429.62 146.96 412.00 150.00 402.00 C 153.04 392.00 153.83 382.74 156.93 372.93 C 160.03 363.11 161.20 352.86 163.98 342.98 C 166.76 333.10 167.79 320.80 167.07 310.93 C 166.35 301.05 161.29 292.98 154.75 286.25 C 148.22 279.52 142.17 274.16 135.75 268.25 C 129.33 262.34 122.40 257.12 116.30 251.70 C 110.20 246.28 102.24 239.48 97.25 233.75 C 92.26 228.02 79.87 217.58 89.08 213.08 C 98.28 208.57 109.62 208.35 120.01 207.01 C 130.40 205.66 143.85 205.26 154.22 204.22 C 164.59 203.18 176.97 203.04 186.22 200.22 C 195.48 197.40 203.07 193.88 208.75 185.75 C 214.44 177.62 216.78 169.41 220.78 160.78 C 224.77 152.14 227.42 142.59 230.93 133.93 C 234.43 125.26 237.60 115.92 241.77 107.77 C 245.94 99.62 248.39 90.19 257.00 86.00 Z"/>
</g>
<g fill="None" fill-opacity="0.0" stroke="#A2C7FF" stroke-opacity="1.00" stroke-width="0.3"><path d="
M 257.00 86.00 
C 248.39 90.19 245.94 99.62 241.77 107.77 C 237.60 115.92 234.43 125.26 230.93 133.93 C 227.42 142.59 224.77 152.14 220.78 160.78 C 216.78 169.41 214.44 177.62 208.75 185.75 C 203.07 193.88 195.48 197.40 186.22 200.22 C 176.97 203.04 164.59 203.18 154.22 204.22 C 143.85 205.26 130.40 205.66 120.01 207.01 C 109.62 208.35 98.28 208.57 89.08 213.08 C 79.87 217.58 92.26 228.02 97.25 233.75 C 102.24 239.48 110.20 246.28 116.30 251.70 C 122.40 257.12 129.33 262.34 135.75 268.25 C 142.17 274.16 148.22 279.52 154.75 286.25 C 161.29 292.98 166.35 301.05 167.07 310.93 C 167.79 320.80 166.76 333.10 163.98 342.98 C 161.20 352.86 160.03 363.11 156.93 372.93 C 153.83 382.74 153.04 392.00 150.00 402.00 C 146.96 412.00 148.09 429.62 159.32 424.32 C 170.55 419.03 174.80 417.51 183.75 411.75 C 192.71 406.00 197.48 402.11 205.77 396.77 C 214.06 391.43 220.41 387.69 228.75 382.75 C 237.10 377.82 244.82 373.15 255.00 373.00 C 265.18 372.85 274.48 376.94 282.77 382.23 C 291.06 387.52 297.40 390.80 305.75 396.25 C 314.11 401.69 318.63 405.49 327.77 411.23 C 336.91 416.97 340.51 418.40 351.93 424.07 C 363.35 429.74 365.21 413.45 361.98 403.02 C 358.74 392.60 358.43 383.69 355.32 373.68 C 352.22 363.66 350.81 353.94 348.00 344.00 C 345.19 334.07 344.34 321.62 344.67 311.67 C 345.00 301.72 350.53 293.61 356.75 286.75 C 362.97 279.90 369.47 274.61 375.75 268.75 C 382.03 262.89 389.37 257.68 395.25 252.25 C 401.13 246.81 409.45 239.68 414.25 234.25 C 419.05 228.82 432.16 218.26 423.69 213.31 C 415.23 208.35 403.05 208.58 393.00 207.00 C 382.95 205.42 368.27 206.13 358.01 204.99 C 347.74 203.85 335.80 202.86 326.22 200.78 C 316.65 198.69 309.95 193.74 303.77 186.23 C 297.59 178.72 295.86 169.67 291.77 161.23 C 287.68 152.79 284.69 143.37 281.31 134.69 C 277.92 126.02 274.58 116.59 270.77 108.23 C 266.96 99.87 263.22 92.84 257.00 86.00 Z"/>
</g>
<g fill="#000000" fill-opacity="0.00" stroke="None">
<path d="
M 0.00 512.00 
L 512.00 512.00
L 512.00 0.00
L 0.00 0.00
L 0.00 512.00
M 262.00 64.00 
C 277.62 67.24 283.17 86.49 289.93 99.07 C 296.68 111.66 302.00 130.25 307.92 144.08 C 313.85 157.90 318.19 177.59 336.07 179.93 C 353.95 182.26 376.30 183.09 394.00 185.00 C 411.70 186.91 429.78 187.12 442.75 200.25 C 455.72 213.38 444.58 233.39 434.70 244.70 C 424.81 256.00 412.25 264.93 401.75 275.75 C 391.25 286.58 377.17 291.79 369.25 306.25 C 361.33 320.70 369.67 342.94 373.93 359.07 C 378.18 375.21 380.85 394.33 384.00 412.00 C 387.15 429.67 375.43 452.25 356.00 448.00 C 336.57 443.75 327.96 438.16 312.92 428.08 C 297.88 418.00 288.91 413.35 274.25 402.75 C 259.60 392.14 244.64 397.40 230.92 406.92 C 217.20 416.44 206.38 424.09 192.25 432.25 C 178.13 440.42 163.38 452.05 145.00 448.00 C 126.62 443.95 125.82 417.51 128.99 401.99 C 132.17 386.47 135.56 365.36 140.00 350.00 C 144.44 334.63 150.82 312.07 137.75 300.25 C 124.68 288.44 117.49 280.49 104.75 270.25 C 92.01 260.01 82.93 250.68 72.70 238.30 C 62.47 225.93 59.17 204.59 75.23 195.23 C 91.29 185.87 110.27 186.47 128.00 184.00 C 145.73 181.53 168.69 184.77 184.22 177.22 C 199.75 169.68 200.00 149.70 206.98 135.98 C 213.95 122.25 217.97 105.04 225.31 91.31 C 232.64 77.57 243.27 60.12 262.00 64.00 Z"/>
</g>
<g fill="#FEFEFF" fill-opacity="0.97" stroke="None">
<path d="
M 262.00 64.00 
C 243.27 60.12 232.64 77.57 225.31 91.31 C 217.97 105.04 213.95 122.25 206.98 135.98 C 200.00 149.70 199.75 169.68 184.22 177.22 C 168.69 184.77 145.73 181.53 128.00 184.00 C 110.27 186.47 91.29 185.87 75.23 195.23 C 59.17 204.59 62.47 225.93 72.70 238.30 C 82.93 250.68 92.01 260.01 104.75 270.25 C 117.49 280.49 124.68 288.44 137.75 300.25 C 150.82 312.07 144.44 334.63 140.00 350.00 C 135.56 365.36 132.17 386.47 128.99 401.99 C 125.82 417.51 126.62 443.95 145.00 448.00 C 163.38 452.05 178.13 440.42 192.25 432.25 C 206.38 424.09 217.20 416.44 230.92 406.92 C 244.64 397.40 259.60 392.14 274.25 402.75 C 288.91 413.35 297.88 418.00 312.92 428.08 C 327.96 438.16 336.57 443.75 356.00 448.00 C 375.43 452.25 387.15 429.67 384.00 412.00 C 380.85 394.33 378.18 375.21 373.93 359.07 C 369.67 342.94 361.33 320.70 369.25 306.25 C 377.17 291.79 391.25 286.58 401.75 275.75 C 412.25 264.93 424.81 256.00 434.70 244.70 C 444.58 233.39 455.72 213.38 442.75 200.25 C 429.78 187.12 411.70 186.91 394.00 185.00 C 376.30 183.09 353.95 182.26 336.07 179.93 C 318.19 177.59 313.85 157.90 307.92 144.08 C 302.00 130.25 296.68 111.66 289.93 99.07 C 283.17 86.49 277.62 67.24 262.00 64.00
M 257.00 86.00 
C 263.22 92.84 266.96 99.87 270.77 108.23 C 274.58 116.59 277.92 126.02 281.31 134.69 C 284.69 143.37 287.68 152.79 291.77 161.23 C 295.86 169.67 297.59 178.72 303.77 186.23 C 309.95 193.74 316.65 198.69 326.22 200.78 C 335.80 202.86 347.74 203.85 358.01 204.99 C 368.27 206.13 382.95 205.42 393.00 207.00 C 403.05 208.58 415.23 208.35 423.69 213.31 C 432.16 218.26 419.05 228.82 414.25 234.25 C 409.45 239.68 401.13 246.81 395.25 252.25 C 389.37 257.68 382.03 262.89 375.75 268.75 C 369.47 274.61 362.97 279.90 356.75 286.75 C 350.53 293.61 345.00 301.72 344.67 311.67 C 344.34 321.62 345.19 334.07 348.00 344.00 C 350.81 353.94 352.22 363.66 355.32 373.68 C 358.43 383.69 358.74 392.60 361.98 403.02 C 365.21 413.45 363.35 429.74 351.93 424.07 C 340.51 418.40 336.91 416.97 327.77 411.23 C 318.63 405.49 314.11 401.69 305.75 396.25 C 297.40 390.80 291.06 387.52 282.77 382.23 C 274.48 376.94 265.18 372.85 255.00 373.00 C 244.82 373.15 237.10 377.82 228.75 382.75 C 220.41 387.69 214.06 391.43 205.77 396.77 C 197.48 402.11 192.71 406.00 183.75 411.75 C 174.80 417.51 170.55 419.03 159.32 424.32 C 148.09 429.62 146.96 412.00 150.00 402.00 C 153.04 392.00 153.83 382.74 156.93 372.93 C 160.03 363.11 161.20 352.86 163.98 342.98 C 166.76 333.10 167.79 320.80 167.07 310.93 C 166.35 301.05 161.29 292.98 154.75 286.25 C 148.22 279.52 142.17 274.16 135.75 268.25 C 129.33 262.34 122.40 257.12 116.30 251.70 C 110.20 246.28 102.24 239.48 97.25 233.75 C 92.26 228.02 79.87 217.58 89.08 213.08 C 98.28 208.57 109.62 208.35 120.01 207.01 C 130.40 205.66 143.85 205.26 154.22 204.22 C 164.59 203.18 176.97 203.04 186.22 200.22 C 195.48 197.40 203.07 193.88 208.75 185.75 C 214.44 177.62 216.78 169.41 220.78 160.78 C 224.77 152.14 227.42 142.59 230.93 133.93 C 234.43 125.26 237.60 115.92 241.77 107.77 C 245.94 99.62 248.39 90.19 257.00 86.00 Z"/>
</g>
<g fill="#A2C7FF" fill-opacity="1.00" stroke="None">
<path d="
M 257.00 86.00 
C 248.39 90.19 245.94 99.62 241.77 107.77 C 237.60 115.92 234.43 125.26 230.93 133.93 C 227.42 142.59 224.77 152.14 220.78 160.78 C 216.78 169.41 214.44 177.62 208.75 185.75 C 203.07 193.88 195.48 197.40 186.22 200.22 C 176.97 203.04 164.59 203.18 154.22 204.22 C 143.85 205.26 130.40 205.66 120.01 207.01 C 109.62 208.35 98.28 208.57 89.08 213.08 C 79.87 217.58 92.26 228.02 97.25 233.75 C 102.24 239.48 110.20 246.28 116.30 251.70 C 122.40 257.12 129.33 262.34 135.75 268.25 C 142.17 274.16 148.22 279.52 154.75 286.25 C 161.29 292.98 166.35 301.05 167.07 310.93 C 167.79 320.80 166.76 333.10 163.98 342.98 C 161.20 352.86 160.03 363.11 156.93 372.93 C 153.83 382.74 153.04 392.00 150.00 402.00 C 146.96 412.00 148.09 429.62 159.32 424.32 C 170.55 419.03 174.80 417.51 183.75 411.75 C 192.71 406.00 197.48 402.11 205.77 396.77 C 214.06 391.43 220.41 387.69 228.75 382.75 C 237.10 377.82 244.82 373.15 255.00 373.00 C 265.18 372.85 274.48 376.94 282.77 382.23 C 291.06 387.52 297.40 390.80 305.75 396.25 C 314.11 401.69 318.63 405.49 327.77 411.23 C 336.91 416.97 340.51 418.40 351.93 424.07 C 363.35 429.74 365.21 413.45 361.98 403.02 C 358.74 392.60 358.43 383.69 355.32 373.68 C 352.22 363.66 350.81 353.94 348.00 344.00 C 345.19 334.07 344.34 321.62 344.67 311.67 C 345.00 301.72 350.53 293.61 356.75 286.75 C 362.97 279.90 369.47 274.61 375.75 268.75 C 382.03 262.89 389.37 257.68 395.25 252.25 C 401.13 246.81 409.45 239.68 414.25 234.25 C 419.05 228.82 432.16 218.26 423.69 213.31 C 415.23 208.35 403.05 208.58 393.00 207.00 C 382.95 205.42 368.27 206.13 358.01 204.99 C 347.74 203.85 335.80 202.86 326.22 200.78 C 316.65 198.69 309.95 193.74 303.77 186.23 C 297.59 178.72 295.86 169.67 291.77 161.23 C 287.68 152.79 284.69 143.37 281.31 134.69 C 277.92 126.02 274.58 116.59 270.77 108.23 C 266.96 99.87 263.22 92.84 257.00 86.00 Z"/>
</g>
</svg>