<svg xmlns="http://www.w3.org/2000/svg" xmlns:v="https://svgstorm.com"
viewBox = "0 0 512 512"
width="512"
height="512">
<g fill="None" fill-opacity="0.0" stroke="#000000" stroke-opacity="0.00" stroke-width="0.3"><path d="
M 0.00 512.00 
L 512.00 512.00
L 512.00 0.00
L 0.00 0.00
L 0.00 512.00
M 258.00 59.00 
C 404.35 54.04 506.64 238.51 422.25 359.25 C 353.02 482.81 154.11 480.97 87.08 355.92 C 5.49 233.38 110.64 50.83 258.00 59.00 Z"/>
</g>
<g fill="None" fill-opacity="0.0" stroke="#FEFFFF" stroke-opacity="0.98" stroke-width="0.3"><path d="
M 258.00 59.00 
C 110.64 50.83 5.49 233.38 87.08 355.92 C 154.11 480.97 353.02 482.81 422.25 359.25 C 506.64 238.51 404.35 54.04 258.00 59.00
M 247.00 164.00 
C 298.35 171.69 367.98 172.74 398.98 218.02 C 389.67 253.96 355.01 219.93 333.98 216.02 C 277.32 197.12 210.89 194.66 151.98 207.98 C 114.45 225.80 113.32 165.50 151.01 172.01 C 181.76 164.51 214.22 163.52 247.00 164.00
M 231.00 231.00 
C 260.69 233.06 290.78 237.14 318.68 247.32 C 336.56 255.63 385.29 266.18 364.77 292.77 C 339.79 298.38 316.95 270.72 290.33 269.67 C 260.35 261.56 227.91 259.51 196.00 262.00 C 176.40 266.48 118.34 282.12 140.70 244.70 C 168.67 233.39 199.98 231.64 231.00 231.00
M 236.00 295.00 
C 265.17 297.39 295.03 302.18 321.23 315.77 C 361.73 322.77 340.29 365.42 310.92 336.08 C 282.99 323.60 252.70 317.90 221.00 319.00 C 196.99 311.00 145.02 345.46 143.93 309.93 C 170.18 294.29 204.84 296.94 236.00 295.00 Z"/>
</g>
<g fill="None" fill-opacity="0.0" stroke="#000000" stroke-opacity="0.00" stroke-width="0.3"><path d="
M 247.00 164.00 
C 214.22 163.52 181.76 164.51 151.01 172.01 C 113.32 165.50 114.45 225.80 151.98 207.98 C 210.89 194.66 277.32 197.12 333.98 216.02 C 355.01 219.93 389.67 253.96 398.98 218.02 C 367.98 172.74 298.35 171.69 247.00 164.00 Z"/>
</g>
<g fill="None" fill-opacity="0.0" stroke="#000000" stroke-opacity="0.00" stroke-width="0.3"><path d="
M 231.00 231.00 
C 199.98 231.64 168.67 233.39 140.70 244.70 C 118.34 282.12 176.40 266.48 196.00 262.00 C 227.91 259.51 260.35 261.56 290.33 269.67 C 316.95 270.72 339.79 298.38 364.77 292.77 C 385.29 266.18 336.56 255.63 318.68 247.32 C 290.78 237.14 260.69 233.06 231.00 231.00 Z"/>
</g>
<g fill="None" fill-opacity="0.0" stroke="#000000" stroke-opacity="0.00" stroke-width="0.3"><path d="
M 236.00 295.00 
C 204.84 296.94 170.18 294.29 143.93 309.93 C 145.02 345.46 196.99 311.00 221.00 319.00 C 252.70 317.90 282.99 323.60 310.92 336.08 C 340.29 365.42 361.73 322.77 321.23 315.77 C 295.03 302.18 265.17 297.39 236.00 295.00 Z"/>
</g>
<g fill="#000000" fill-opacity="0.00" stroke="None">
<path d="
M 0.00 512.00 
L 512.00 512.00
L 512.00 0.00
L 0.00 0.00
L 0.00 512.00
M 258.00 59.00 
C 404.35 54.04 506.64 238.51 422.25 359.25 C 353.02 482.81 154.11 480.97 87.08 355.92 C 5.49 233.38 110.64 50.83 258.00 59.00 Z"/>
</g>
<g fill="#FEFFFF" fill-opacity="0.98" stroke="None">
<path d="
M 258.00 59.00 
C 110.64 50.83 5.49 233.38 87.08 355.92 C 154.11 480.97 353.02 482.81 422.25 359.25 C 506.64 238.51 404.35 54.04 258.00 59.00
M 247.00 164.00 
C 298.35 171.69 367.98 172.74 398.98 218.02 C 389.67 253.96 355.01 219.93 333.98 216.02 C 277.32 197.12 210.89 194.66 151.98 207.98 C 114.45 225.80 113.32 165.50 151.01 172.01 C 181.76 164.51 214.22 163.52 247.00 164.00
M 231.00 231.00 
C 260.69 233.06 290.78 237.14 318.68 247.32 C 336.56 255.63 385.29 266.18 364.77 292.77 C 339.79 298.38 316.95 270.72 290.33 269.67 C 260.35 261.56 227.91 259.51 196.00 262.00 C 176.40 266.48 118.34 282.12 140.70 244.70 C 168.67 233.39 199.98 231.64 231.00 231.00
M 236.00 295.00 
C 265.17 297.39 295.03 302.18 321.23 315.77 C 361.73 322.77 340.29 365.42 310.92 336.08 C 282.99 323.60 252.70 317.90 221.00 319.00 C 196.99 311.00 145.02 345.46 143.93 309.93 C 170.18 294.29 204.84 296.94 236.00 295.00 Z"/>
</g>
<g fill="#000000" fill-opacity="0.00" stroke="None">
<path d="
M 247.00 164.00 
C 214.22 163.52 181.76 164.51 151.01 172.01 C 113.32 165.50 114.45 225.80 151.98 207.98 C 210.89 194.66 277.32 197.12 333.98 216.02 C 355.01 219.93 389.67 253.96 398.98 218.02 C 367.98 172.74 298.35 171.69 247.00 164.00 Z"/>
</g>
<g fill="#000000" fill-opacity="0.00" stroke="None">
<path d="
M 231.00 231.00 
C 199.98 231.64 168.67 233.39 140.70 244.70 C 118.34 282.12 176.40 266.48 196.00 262.00 C 227.91 259.51 260.35 261.56 290.33 269.67 C 316.95 270.72 339.79 298.38 364.77 292.77 C 385.29 266.18 336.56 255.63 318.68 247.32 C 290.78 237.14 260.69 233.06 231.00 231.00 Z"/>
</g>
<g fill="#000000" fill-opacity="0.00" stroke="None">
<path d="
M 236.00 295.00 
C 204.84 296.94 170.18 294.29 143.93 309.93 C 145.02 345.46 196.99 311.00 221.00 319.00 C 252.70 317.90 282.99 323.60 310.92 336.08 C 340.29 365.42 361.73 322.77 321.23 315.77 C 295.03 302.18 265.17 297.39 236.00 295.00 Z"/>
</g>
</svg>