<svg xmlns="http://www.w3.org/2000/svg" xmlns:v="https://svgstorm.com"
viewBox = "0 0 512 512"
width="512"
height="512">
<g fill="None" fill-opacity="0.0" stroke="#000000" stroke-opacity="0.00" stroke-width="0.3"><path d="
M 0.00 512.00 
L 512.00 512.00
L 512.00 0.00
L 0.00 0.00
L 0.00 512.00
M 340.00 69.00 
C 356.12 70.56 371.45 79.29 379.30 95.70 C 387.16 112.10 383.50 136.96 384.00 157.00 C 384.50 177.04 383.87 202.11 384.00 223.00 C 384.13 243.89 384.15 267.99 384.00 289.00 C 383.85 310.01 384.53 334.53 384.00 355.00 C 383.47 375.47 387.25 398.84 379.23 416.23 C 371.21 433.62 356.23 440.20 339.00 442.00 C 321.77 443.80 306.36 433.91 291.77 425.23 C 277.19 416.55 263.49 411.49 248.92 402.08 C 234.36 392.66 221.12 389.85 206.30 378.70 C 191.49 367.54 169.02 367.71 150.00 368.00 C 130.98 368.29 105.19 371.81 88.92 363.08 C 72.66 354.34 64.35 340.77 64.00 322.00 C 63.65 303.23 64.04 275.62 64.00 256.00 C 63.96 236.38 63.75 208.88 64.00 190.00 C 64.25 171.12 72.85 157.78 89.08 149.08 C 105.31 140.38 131.04 143.67 150.00 144.00 C 168.96 144.33 190.85 144.52 205.70 133.69 C 220.54 122.87 233.53 119.33 248.23 110.23 C 262.93 101.13 276.26 95.36 291.08 87.08 C 305.89 78.79 321.92 67.25 340.00 69.00
M 425.00 184.00 
C 439.72 187.05 440.52 207.13 444.78 220.22 C 449.04 233.31 448.85 256.52 448.00 272.00 C 447.15 287.48 441.46 301.85 436.23 317.23 C 431.00 332.60 403.03 327.59 405.00 311.00 C 406.98 294.41 415.71 280.28 415.00 264.00 C 414.29 247.72 416.44 229.23 408.68 215.32 C 400.92 201.42 405.29 179.92 425.00 184.00 Z"/>
</g>
<g fill="None" fill-opacity="0.0" stroke="#FFFFFF" stroke-opacity="0.98" stroke-width="0.3"><path d="
M 340.00 69.00 
C 321.92 67.25 305.89 78.79 291.08 87.08 C 276.26 95.36 262.93 101.13 248.23 110.23 C 233.53 119.33 220.54 122.87 205.70 133.69 C 190.85 144.52 168.96 144.33 150.00 144.00 C 131.04 143.67 105.31 140.38 89.08 149.08 C 72.85 157.78 64.25 171.12 64.00 190.00 C 63.75 208.88 63.96 236.38 64.00 256.00 C 64.04 275.62 63.65 303.23 64.00 322.00 C 64.35 340.77 72.66 354.34 88.92 363.08 C 105.19 371.81 130.98 368.29 150.00 368.00 C 169.02 367.71 191.49 367.54 206.30 378.70 C 221.12 389.85 234.36 392.66 248.92 402.08 C 263.49 411.49 277.19 416.55 291.77 425.23 C 306.36 433.91 321.77 443.80 339.00 442.00 C 356.23 440.20 371.21 433.62 379.23 416.23 C 387.25 398.84 383.47 375.47 384.00 355.00 C 384.53 334.53 383.85 310.01 384.00 289.00 C 384.15 267.99 384.13 243.89 384.00 223.00 C 383.87 202.11 384.50 177.04 384.00 157.00 C 383.50 136.96 387.16 112.10 379.30 95.70 C 371.45 79.29 356.12 70.56 340.00 69.00
M 338.00 102.00 
C 354.81 104.37 351.95 124.77 352.00 139.00 C 352.05 153.23 351.98 174.22 352.00 190.00 C 352.02 205.78 351.99 224.47 352.00 241.00 C 352.01 257.53 352.00 276.19 352.00 293.00 C 352.00 309.81 352.00 327.14 352.00 344.00 C 352.00 360.86 352.36 377.69 351.22 394.22 C 350.08 410.76 332.63 411.82 321.92 404.08 C 311.22 396.33 299.36 392.49 288.31 385.70 C 277.25 378.90 266.67 374.09 255.31 367.70 C 243.94 361.30 234.07 356.23 222.31 349.70 C 210.54 343.16 199.00 334.33 184.00 336.00 C 169.00 337.67 147.68 334.77 133.00 336.00 C 118.32 337.23 99.16 337.45 97.00 321.00 C 94.85 304.54 96.12 287.18 96.00 271.00 C 95.88 254.82 95.65 234.03 96.00 219.00 C 96.35 203.97 91.69 184.79 106.08 178.08 C 120.46 171.36 140.01 178.27 155.00 176.00 C 169.99 173.73 190.41 179.57 203.08 173.08 C 215.74 166.58 224.87 160.60 236.70 154.69 C 248.52 148.79 258.22 141.85 269.70 136.69 C 281.17 131.54 291.32 122.66 302.70 118.69 C 314.07 114.73 325.52 100.24 338.00 102.00 Z"/>
</g>
<g fill="None" fill-opacity="0.0" stroke="#000000" stroke-opacity="0.00" stroke-width="0.3"><path d="
M 338.00 102.00 
C 325.52 100.24 314.07 114.73 302.70 118.69 C 291.32 122.66 281.17 131.54 269.70 136.69 C 258.22 141.85 248.52 148.79 236.70 154.69 C 224.87 160.60 215.74 166.58 203.08 173.08 C 190.41 179.57 169.99 173.73 155.00 176.00 C 140.01 178.27 120.46 171.36 106.08 178.08 C 91.69 184.79 96.35 203.97 96.00 219.00 C 95.65 234.03 95.88 254.82 96.00 271.00 C 96.12 287.18 94.85 304.54 97.00 321.00 C 99.16 337.45 118.32 337.23 133.00 336.00 C 147.68 334.77 169.00 337.67 184.00 336.00 C 199.00 334.33 210.54 343.16 222.31 349.70 C 234.07 356.23 243.94 361.30 255.31 367.70 C 266.67 374.09 277.25 378.90 288.31 385.70 C 299.36 392.49 311.22 396.33 321.92 404.08 C 332.63 411.82 350.08 410.76 351.22 394.22 C 352.36 377.69 352.00 360.86 352.00 344.00 C 352.00 327.14 352.00 309.81 352.00 293.00 C 352.00 276.19 352.01 257.53 352.00 241.00 C 351.99 224.47 352.02 205.78 352.00 190.00 C 351.98 174.22 352.05 153.23 352.00 139.00 C 351.95 124.77 354.81 104.37 338.00 102.00 Z"/>
</g>
<g fill="None" fill-opacity="0.0" stroke="#FFFFFF" stroke-opacity="0.96" stroke-width="0.3"><path d="
M 425.00 184.00 
C 405.29 179.92 400.92 201.42 408.68 215.32 C 416.44 229.23 414.29 247.72 415.00 264.00 C 415.71 280.28 406.98 294.41 405.00 311.00 C 403.03 327.59 431.00 332.60 436.23 317.23 C 441.46 301.85 447.15 287.48 448.00 272.00 C 448.85 256.52 449.04 233.31 444.78 220.22 C 440.52 207.13 439.72 187.05 425.00 184.00 Z"/>
</g>
<g fill="#000000" fill-opacity="0.00" stroke="None">
<path d="
M 0.00 512.00 
L 512.00 512.00
L 512.00 0.00
L 0.00 0.00
L 0.00 512.00
M 340.00 69.00 
C 356.12 70.56 371.45 79.29 379.30 95.70 C 387.16 112.10 383.50 136.96 384.00 157.00 C 384.50 177.04 383.87 202.11 384.00 223.00 C 384.13 243.89 384.15 267.99 384.00 289.00 C 383.85 310.01 384.53 334.53 384.00 355.00 C 383.47 375.47 387.25 398.84 379.23 416.23 C 371.21 433.62 356.23 440.20 339.00 442.00 C 321.77 443.80 306.36 433.91 291.77 425.23 C 277.19 416.55 263.49 411.49 248.92 402.08 C 234.36 392.66 221.12 389.85 206.30 378.70 C 191.49 367.54 169.02 367.71 150.00 368.00 C 130.98 368.29 105.19 371.81 88.92 363.08 C 72.66 354.34 64.35 340.77 64.00 322.00 C 63.65 303.23 64.04 275.62 64.00 256.00 C 63.96 236.38 63.75 208.88 64.00 190.00 C 64.25 171.12 72.85 157.78 89.08 149.08 C 105.31 140.38 131.04 143.67 150.00 144.00 C 168.96 144.33 190.85 144.52 205.70 133.69 C 220.54 122.87 233.53 119.33 248.23 110.23 C 262.93 101.13 276.26 95.36 291.08 87.08 C 305.89 78.79 321.92 67.25 340.00 69.00
M 425.00 184.00 
C 439.72 187.05 440.52 207.13 444.78 220.22 C 449.04 233.31 448.85 256.52 448.00 272.00 C 447.15 287.48 441.46 301.85 436.23 317.23 C 431.00 332.60 403.03 327.59 405.00 311.00 C 406.98 294.41 415.71 280.28 415.00 264.00 C 414.29 247.72 416.44 229.23 408.68 215.32 C 400.92 201.42 405.29 179.92 425.00 184.00 Z"/>
</g>
<g fill="#FFFFFF" fill-opacity="0.98" stroke="None">
<path d="
M 340.00 69.00 
C 321.92 67.25 305.89 78.79 291.08 87.08 C 276.26 95.36 262.93 101.13 248.23 110.23 C 233.53 119.33 220.54 122.87 205.70 133.69 C 190.85 144.52 168.96 144.33 150.00 144.00 C 131.04 143.67 105.31 140.38 89.08 149.08 C 72.85 157.78 64.25 171.12 64.00 190.00 C 63.75 208.88 63.96 236.38 64.00 256.00 C 64.04 275.62 63.65 303.23 64.00 322.00 C 64.35 340.77 72.66 354.34 88.92 363.08 C 105.19 371.81 130.98 368.29 150.00 368.00 C 169.02 367.71 191.49 367.54 206.30 378.70 C 221.12 389.85 234.36 392.66 248.92 402.08 C 263.49 411.49 277.19 416.55 291.77 425.23 C 306.36 433.91 321.77 443.80 339.00 442.00 C 356.23 440.20 371.21 433.62 379.23 416.23 C 387.25 398.84 383.47 375.47 384.00 355.00 C 384.53 334.53 383.85 310.01 384.00 289.00 C 384.15 267.99 384.13 243.89 384.00 223.00 C 383.87 202.11 384.50 177.04 384.00 157.00 C 383.50 136.96 387.16 112.10 379.30 95.70 C 371.45 79.29 356.12 70.56 340.00 69.00
M 338.00 102.00 
C 354.81 104.37 351.95 124.77 352.00 139.00 C 352.05 153.23 351.98 174.22 352.00 190.00 C 352.02 205.78 351.99 224.47 352.00 241.00 C 352.01 257.53 352.00 276.19 352.00 293.00 C 352.00 309.81 352.00 327.14 352.00 344.00 C 352.00 360.86 352.36 377.69 351.22 394.22 C 350.08 410.76 332.63 411.82 321.92 404.08 C 311.22 396.33 299.36 392.49 288.31 385.70 C 277.25 378.90 266.67 374.09 255.31 367.70 C 243.94 361.30 234.07 356.23 222.31 349.70 C 210.54 343.16 199.00 334.33 184.00 336.00 C 169.00 337.67 147.68 334.77 133.00 336.00 C 118.32 337.23 99.16 337.45 97.00 321.00 C 94.85 304.54 96.12 287.18 96.00 271.00 C 95.88 254.82 95.65 234.03 96.00 219.00 C 96.35 203.97 91.69 184.79 106.08 178.08 C 120.46 171.36 140.01 178.27 155.00 176.00 C 169.99 173.73 190.41 179.57 203.08 173.08 C 215.74 166.58 224.87 160.60 236.70 154.69 C 248.52 148.79 258.22 141.85 269.70 136.69 C 281.17 131.54 291.32 122.66 302.70 118.69 C 314.07 114.73 325.52 100.24 338.00 102.00 Z"/>
</g>
<g fill="#000000" fill-opacity="0.00" stroke="None">
<path d="
M 338.00 102.00 
C 325.52 100.24 314.07 114.73 302.70 118.69 C 291.32 122.66 281.17 131.54 269.70 136.69 C 258.22 141.85 248.52 148.79 236.70 154.69 C 224.87 160.60 215.74 166.58 203.08 173.08 C 190.41 179.57 169.99 173.73 155.00 176.00 C 140.01 178.27 120.46 171.36 106.08 178.08 C 91.69 184.79 96.35 203.97 96.00 219.00 C 95.65 234.03 95.88 254.82 96.00 271.00 C 96.12 287.18 94.85 304.54 97.00 321.00 C 99.16 337.45 118.32 337.23 133.00 336.00 C 147.68 334.77 169.00 337.67 184.00 336.00 C 199.00 334.33 210.54 343.16 222.31 349.70 C 234.07 356.23 243.94 361.30 255.31 367.70 C 266.67 374.09 277.25 378.90 288.31 385.70 C 299.36 392.49 311.22 396.33 321.92 404.08 C 332.63 411.82 350.08 410.76 351.22 394.22 C 352.36 377.69 352.00 360.86 352.00 344.00 C 352.00 327.14 352.00 309.81 352.00 293.00 C 352.00 276.19 352.01 257.53 352.00 241.00 C 351.99 224.47 352.02 205.78 352.00 190.00 C 351.98 174.22 352.05 153.23 352.00 139.00 C 351.95 124.77 354.81 104.37 338.00 102.00 Z"/>
</g>
<g fill="#FFFFFF" fill-opacity="0.96" stroke="None">
<path d="
M 425.00 184.00 
C 405.29 179.92 400.92 201.42 408.68 215.32 C 416.44 229.23 414.29 247.72 415.00 264.00 C 415.71 280.28 406.98 294.41 405.00 311.00 C 403.03 327.59 431.00 332.60 436.23 317.23 C 441.46 301.85 447.15 287.48 448.00 272.00 C 448.85 256.52 449.04 233.31 444.78 220.22 C 440.52 207.13 439.72 187.05 425.00 184.00 Z"/>
</g>
</svg>