<svg xmlns="http://www.w3.org/2000/svg" xmlns:v="https://svgstorm.com"
viewBox = "0 0 512 512"
width="512"
height="512">
<g fill="None" fill-opacity="0.0" stroke="#000000" stroke-opacity="0.00" stroke-width="0.3"><path d="
M 0.00 512.00 
L 512.00 512.00
L 512.00 0.00
L 0.00 0.00
L 0.00 512.00
M 289.00 64.00 
C 317.34 68.60 321.10 95.87 320.00 122.00 C 318.90 148.13 320.08 184.26 320.00 212.00 C 319.92 239.74 319.08 273.01 320.00 301.00 C 320.92 329.00 317.50 363.97 320.00 391.00 C 322.50 418.03 313.93 443.28 286.98 447.98 C 260.02 452.67 246.09 431.62 226.92 419.08 C 207.75 406.55 194.37 393.77 175.75 380.25 C 157.14 366.72 140.20 349.06 115.00 352.00 C 89.80 354.94 58.76 355.65 42.25 334.75 C 25.74 313.85 32.21 280.90 32.00 255.00 C 31.79 229.10 26.10 197.47 42.75 176.75 C 59.41 156.04 91.01 157.52 116.00 160.00 C 140.99 162.48 157.98 145.17 176.23 131.23 C 194.48 117.29 209.33 106.17 227.70 92.70 C 246.07 79.22 263.41 59.84 289.00 64.00
M 419.00 126.00 
C 433.82 127.12 441.81 147.18 450.92 158.08 C 460.03 168.98 466.93 186.35 471.93 201.07 C 476.92 215.80 481.45 240.33 480.99 257.01 C 480.53 273.68 477.64 296.86 471.68 311.68 C 465.71 326.49 461.36 343.24 450.70 354.70 C 440.03 366.16 435.87 385.31 416.99 385.99 C 398.12 386.67 398.30 358.99 412.30 349.30 C 426.31 339.62 428.97 324.09 436.92 309.92 C 444.88 295.76 447.04 271.82 447.00 255.00 C 446.96 238.18 444.32 215.56 436.68 201.32 C 429.03 187.08 424.96 172.17 412.08 161.92 C 399.21 151.66 395.42 124.22 419.00 126.00
M 376.00 171.00 
C 387.82 173.75 392.78 188.30 400.25 197.75 C 407.72 207.19 411.50 223.11 414.33 235.67 C 417.15 248.23 416.53 270.53 413.02 283.02 C 409.52 295.52 404.63 309.03 397.23 319.23 C 389.83 329.42 380.89 344.34 366.33 339.67 C 351.77 335.00 353.35 317.41 363.30 308.30 C 373.26 299.20 377.25 287.18 380.99 273.99 C 384.73 260.80 383.31 241.91 378.23 228.77 C 373.15 215.63 367.48 208.50 357.75 197.25 C 348.02 186.00 360.34 167.36 376.00 171.00 Z"/>
</g>
<g fill="None" fill-opacity="0.0" stroke="#FFFFFF" stroke-opacity="0.98" stroke-width="0.3"><path d="
M 289.00 64.00 
C 263.41 59.84 246.07 79.22 227.70 92.70 C 209.33 106.17 194.48 117.29 176.23 131.23 C 157.98 145.17 140.99 162.48 116.00 160.00 C 91.01 157.52 59.41 156.04 42.75 176.75 C 26.10 197.47 31.79 229.10 32.00 255.00 C 32.21 280.90 25.74 313.85 42.25 334.75 C 58.76 355.65 89.80 354.94 115.00 352.00 C 140.20 349.06 157.14 366.72 175.75 380.25 C 194.37 393.77 207.75 406.55 226.92 419.08 C 246.09 431.62 260.02 452.67 286.98 447.98 C 313.93 443.28 322.50 418.03 320.00 391.00 C 317.50 363.97 320.92 329.00 320.00 301.00 C 319.08 273.01 319.92 239.74 320.00 212.00 C 320.08 184.26 318.90 148.13 320.00 122.00 C 321.10 95.87 317.34 68.60 289.00 64.00
M 283.00 97.00 
C 291.77 99.94 287.12 114.82 288.00 123.00 C 288.88 131.18 287.61 145.46 288.00 155.00 C 288.39 164.54 287.83 176.84 288.00 187.00 C 288.17 197.16 287.93 208.57 288.00 219.00 C 288.07 229.43 287.99 240.45 288.00 251.00 C 288.01 261.55 288.04 272.40 288.00 283.00 C 287.96 293.60 288.12 304.40 288.00 315.00 C 287.88 325.60 288.27 336.44 288.00 347.00 C 287.73 357.56 288.63 367.45 288.00 378.00 C 287.37 388.55 289.79 398.78 287.07 409.07 C 284.36 419.37 273.09 413.14 267.77 408.23 C 262.45 403.32 255.49 399.04 249.75 394.25 C 244.02 389.46 237.11 385.66 231.25 380.75 C 225.40 375.83 218.96 371.86 212.92 367.08 C 206.88 362.31 200.88 358.15 194.75 353.25 C 188.63 348.35 182.59 344.88 176.30 339.70 C 170.01 334.51 164.77 331.75 158.25 325.75 C 151.73 319.75 142.54 319.66 133.00 320.00 C 123.46 320.34 110.71 320.29 101.00 320.00 C 91.29 319.71 80.34 322.12 71.92 317.08 C 63.50 312.03 63.94 302.37 64.00 293.00 C 64.06 283.63 63.81 270.90 64.00 261.00 C 64.19 251.10 63.54 238.93 64.00 229.00 C 64.46 219.07 61.98 208.56 66.92 199.92 C 71.87 191.28 82.07 192.34 91.00 192.00 C 99.93 191.66 112.96 192.62 122.00 192.00 C 131.04 191.38 144.66 194.07 152.23 190.23 C 159.79 186.39 164.09 181.18 170.75 176.75 C 177.41 172.31 182.70 167.50 189.08 163.08 C 195.46 158.66 201.04 153.67 207.25 149.25 C 213.45 144.82 219.52 139.97 225.70 135.70 C 231.88 131.42 237.61 125.79 243.75 121.75 C 249.89 117.71 256.12 111.76 262.23 108.23 C 268.34 104.70 275.03 94.32 283.00 97.00 Z"/>
</g>
<g fill="None" fill-opacity="0.0" stroke="#000000" stroke-opacity="0.00" stroke-width="0.3"><path d="
M 283.00 97.00 
C 275.03 94.32 268.34 104.70 262.23 108.23 C 256.12 111.76 249.89 117.71 243.75 121.75 C 237.61 125.79 231.88 131.42 225.70 135.70 C 219.52 139.97 213.45 144.82 207.25 149.25 C 201.04 153.67 195.46 158.66 189.08 163.08 C 182.70 167.50 177.41 172.31 170.75 176.75 C 164.09 181.18 159.79 186.39 152.23 190.23 C 144.66 194.07 131.04 191.38 122.00 192.00 C 112.96 192.62 99.93 191.66 91.00 192.00 C 82.07 192.34 71.87 191.28 66.92 199.92 C 61.98 208.56 64.46 219.07 64.00 229.00 C 63.54 238.93 64.19 251.10 64.00 261.00 C 63.81 270.90 64.06 283.63 64.00 293.00 C 63.94 302.37 63.50 312.03 71.92 317.08 C 80.34 322.12 91.29 319.71 101.00 320.00 C 110.71 320.29 123.46 320.34 133.00 320.00 C 142.54 319.66 151.73 319.75 158.25 325.75 C 164.77 331.75 170.01 334.51 176.30 339.70 C 182.59 344.88 188.63 348.35 194.75 353.25 C 200.88 358.15 206.88 362.31 212.92 367.08 C 218.96 371.86 225.40 375.83 231.25 380.75 C 237.11 385.66 244.02 389.46 249.75 394.25 C 255.49 399.04 262.45 403.32 267.77 408.23 C 273.09 413.14 284.36 419.37 287.07 409.07 C 289.79 398.78 287.37 388.55 288.00 378.00 C 288.63 367.45 287.73 357.56 288.00 347.00 C 288.27 336.44 287.88 325.60 288.00 315.00 C 288.12 304.40 287.96 293.60 288.00 283.00 C 288.04 272.40 288.01 261.55 288.00 251.00 C 287.99 240.45 288.07 229.43 288.00 219.00 C 287.93 208.57 288.17 197.16 288.00 187.00 C 287.83 176.84 288.39 164.54 288.00 155.00 C 287.61 145.46 288.88 131.18 288.00 123.00 C 287.12 114.82 291.77 99.94 283.00 97.00 Z"/>
</g>
<g fill="None" fill-opacity="0.0" stroke="#FFFFFF" stroke-opacity="0.96" stroke-width="0.3"><path d="
M 419.00 126.00 
C 395.42 124.22 399.21 151.66 412.08 161.92 C 424.96 172.17 429.03 187.08 436.68 201.32 C 444.32 215.56 446.96 238.18 447.00 255.00 C 447.04 271.82 444.88 295.76 436.92 309.92 C 428.97 324.09 426.31 339.62 412.30 349.30 C 398.30 358.99 398.12 386.67 416.99 385.99 C 435.87 385.31 440.03 366.16 450.70 354.70 C 461.36 343.24 465.71 326.49 471.68 311.68 C 477.64 296.86 480.53 273.68 480.99 257.01 C 481.45 240.33 476.92 215.80 471.93 201.07 C 466.93 186.35 460.03 168.98 450.92 158.08 C 441.81 147.18 433.82 127.12 419.00 126.00 Z"/>
</g>
<g fill="None" fill-opacity="0.0" stroke="#FFFFFF" stroke-opacity="0.96" stroke-width="0.3"><path d="
M 376.00 171.00 
C 360.34 167.36 348.02 186.00 357.75 197.25 C 367.48 208.50 373.15 215.63 378.23 228.77 C 383.31 241.91 384.73 260.80 380.99 273.99 C 377.25 287.18 373.26 299.20 363.30 308.30 C 353.35 317.41 351.77 335.00 366.33 339.67 C 380.89 344.34 389.83 329.42 397.23 319.23 C 404.63 309.03 409.52 295.52 413.02 283.02 C 416.53 270.53 417.15 248.23 414.33 235.67 C 411.50 223.11 407.72 207.19 400.25 197.75 C 392.78 188.30 387.82 173.75 376.00 171.00 Z"/>
</g>
<g fill="#000000" fill-opacity="0.00" stroke="None">
<path d="
M 0.00 512.00 
L 512.00 512.00
L 512.00 0.00
L 0.00 0.00
L 0.00 512.00
M 289.00 64.00 
C 317.34 68.60 321.10 95.87 320.00 122.00 C 318.90 148.13 320.08 184.26 320.00 212.00 C 319.92 239.74 319.08 273.01 320.00 301.00 C 320.92 329.00 317.50 363.97 320.00 391.00 C 322.50 418.03 313.93 443.28 286.98 447.98 C 260.02 452.67 246.09 431.62 226.92 419.08 C 207.75 406.55 194.37 393.77 175.75 380.25 C 157.14 366.72 140.20 349.06 115.00 352.00 C 89.80 354.94 58.76 355.65 42.25 334.75 C 25.74 313.85 32.21 280.90 32.00 255.00 C 31.79 229.10 26.10 197.47 42.75 176.75 C 59.41 156.04 91.01 157.52 116.00 160.00 C 140.99 162.48 157.98 145.17 176.23 131.23 C 194.48 117.29 209.33 106.17 227.70 92.70 C 246.07 79.22 263.41 59.84 289.00 64.00
M 419.00 126.00 
C 433.82 127.12 441.81 147.18 450.92 158.08 C 460.03 168.98 466.93 186.35 471.93 201.07 C 476.92 215.80 481.45 240.33 480.99 257.01 C 480.53 273.68 477.64 296.86 471.68 311.68 C 465.71 326.49 461.36 343.24 450.70 354.70 C 440.03 366.16 435.87 385.31 416.99 385.99 C 398.12 386.67 398.30 358.99 412.30 349.30 C 426.31 339.62 428.97 324.09 436.92 309.92 C 444.88 295.76 447.04 271.82 447.00 255.00 C 446.96 238.18 444.32 215.56 436.68 201.32 C 429.03 187.08 424.96 172.17 412.08 161.92 C 399.21 151.66 395.42 124.22 419.00 126.00
M 376.00 171.00 
C 387.82 173.75 392.78 188.30 400.25 197.75 C 407.72 207.19 411.50 223.11 414.33 235.67 C 417.15 248.23 416.53 270.53 413.02 283.02 C 409.52 295.52 404.63 309.03 397.23 319.23 C 389.83 329.42 380.89 344.34 366.33 339.67 C 351.77 335.00 353.35 317.41 363.30 308.30 C 373.26 299.20 377.25 287.18 380.99 273.99 C 384.73 260.80 383.31 241.91 378.23 228.77 C 373.15 215.63 367.48 208.50 357.75 197.25 C 348.02 186.00 360.34 167.36 376.00 171.00 Z"/>
</g>
<g fill="#FFFFFF" fill-opacity="0.98" stroke="None">
<path d="
M 289.00 64.00 
C 263.41 59.84 246.07 79.22 227.70 92.70 C 209.33 106.17 194.48 117.29 176.23 131.23 C 157.98 145.17 140.99 162.48 116.00 160.00 C 91.01 157.52 59.41 156.04 42.75 176.75 C 26.10 197.47 31.79 229.10 32.00 255.00 C 32.21 280.90 25.74 313.85 42.25 334.75 C 58.76 355.65 89.80 354.94 115.00 352.00 C 140.20 349.06 157.14 366.72 175.75 380.25 C 194.37 393.77 207.75 406.55 226.92 419.08 C 246.09 431.62 260.02 452.67 286.98 447.98 C 313.93 443.28 322.50 418.03 320.00 391.00 C 317.50 363.97 320.92 329.00 320.00 301.00 C 319.08 273.01 319.92 239.74 320.00 212.00 C 320.08 184.26 318.90 148.13 320.00 122.00 C 321.10 95.87 317.34 68.60 289.00 64.00
M 283.00 97.00 
C 291.77 99.94 287.12 114.82 288.00 123.00 C 288.88 131.18 287.61 145.46 288.00 155.00 C 288.39 164.54 287.83 176.84 288.00 187.00 C 288.17 197.16 287.93 208.57 288.00 219.00 C 288.07 229.43 287.99 240.45 288.00 251.00 C 288.01 261.55 288.04 272.40 288.00 283.00 C 287.96 293.60 288.12 304.40 288.00 315.00 C 287.88 325.60 288.27 336.44 288.00 347.00 C 287.73 357.56 288.63 367.45 288.00 378.00 C 287.37 388.55 289.79 398.78 287.07 409.07 C 284.36 419.37 273.09 413.14 267.77 408.23 C 262.45 403.32 255.49 399.04 249.75 394.25 C 244.02 389.46 237.11 385.66 231.25 380.75 C 225.40 375.83 218.96 371.86 212.92 367.08 C 206.88 362.31 200.88 358.15 194.75 353.25 C 188.63 348.35 182.59 344.88 176.30 339.70 C 170.01 334.51 164.77 331.75 158.25 325.75 C 151.73 319.75 142.54 319.66 133.00 320.00 C 123.46 320.34 110.71 320.29 101.00 320.00 C 91.29 319.71 80.34 322.12 71.92 317.08 C 63.50 312.03 63.94 302.37 64.00 293.00 C 64.06 283.63 63.81 270.90 64.00 261.00 C 64.19 251.10 63.54 238.93 64.00 229.00 C 64.46 219.07 61.98 208.56 66.92 199.92 C 71.87 191.28 82.07 192.34 91.00 192.00 C 99.93 191.66 112.96 192.62 122.00 192.00 C 131.04 191.38 144.66 194.07 152.23 190.23 C 159.79 186.39 164.09 181.18 170.75 176.75 C 177.41 172.31 182.70 167.50 189.08 163.08 C 195.46 158.66 201.04 153.67 207.25 149.25 C 213.45 144.82 219.52 139.97 225.70 135.70 C 231.88 131.42 237.61 125.79 243.75 121.75 C 249.89 117.71 256.12 111.76 262.23 108.23 C 268.34 104.70 275.03 94.32 283.00 97.00 Z"/>
</g>
<g fill="#000000" fill-opacity="0.00" stroke="None">
<path d="
M 283.00 97.00 
C 275.03 94.32 268.34 104.70 262.23 108.23 C 256.12 111.76 249.89 117.71 243.75 121.75 C 237.61 125.79 231.88 131.42 225.70 135.70 C 219.52 139.97 213.45 144.82 207.25 149.25 C 201.04 153.67 195.46 158.66 189.08 163.08 C 182.70 167.50 177.41 172.31 170.75 176.75 C 164.09 181.18 159.79 186.39 152.23 190.23 C 144.66 194.07 131.04 191.38 122.00 192.00 C 112.96 192.62 99.93 191.66 91.00 192.00 C 82.07 192.34 71.87 191.28 66.92 199.92 C 61.98 208.56 64.46 219.07 64.00 229.00 C 63.54 238.93 64.19 251.10 64.00 261.00 C 63.81 270.90 64.06 283.63 64.00 293.00 C 63.94 302.37 63.50 312.03 71.92 317.08 C 80.34 322.12 91.29 319.71 101.00 320.00 C 110.71 320.29 123.46 320.34 133.00 320.00 C 142.54 319.66 151.73 319.75 158.25 325.75 C 164.77 331.75 170.01 334.51 176.30 339.70 C 182.59 344.88 188.63 348.35 194.75 353.25 C 200.88 358.15 206.88 362.31 212.92 367.08 C 218.96 371.86 225.40 375.83 231.25 380.75 C 237.11 385.66 244.02 389.46 249.75 394.25 C 255.49 399.04 262.45 403.32 267.77 408.23 C 273.09 413.14 284.36 419.37 287.07 409.07 C 289.79 398.78 287.37 388.55 288.00 378.00 C 288.63 367.45 287.73 357.56 288.00 347.00 C 288.27 336.44 287.88 325.60 288.00 315.00 C 288.12 304.40 287.96 293.60 288.00 283.00 C 288.04 272.40 288.01 261.55 288.00 251.00 C 287.99 240.45 288.07 229.43 288.00 219.00 C 287.93 208.57 288.17 197.16 288.00 187.00 C 287.83 176.84 288.39 164.54 288.00 155.00 C 287.61 145.46 288.88 131.18 288.00 123.00 C 287.12 114.82 291.77 99.94 283.00 97.00 Z"/>
</g>
<g fill="#FFFFFF" fill-opacity="0.96" stroke="None">
<path d="
M 419.00 126.00 
C 395.42 124.22 399.21 151.66 412.08 161.92 C 424.96 172.17 429.03 187.08 436.68 201.32 C 444.32 215.56 446.96 238.18 447.00 255.00 C 447.04 271.82 444.88 295.76 436.92 309.92 C 428.97 324.09 426.31 339.62 412.30 349.30 C 398.30 358.99 398.12 386.67 416.99 385.99 C 435.87 385.31 440.03 366.16 450.70 354.70 C 461.36 343.24 465.71 326.49 471.68 311.68 C 477.64 296.86 480.53 273.68 480.99 257.01 C 481.45 240.33 476.92 215.80 471.93 201.07 C 466.93 186.35 460.03 168.98 450.92 158.08 C 441.81 147.18 433.82 127.12 419.00 126.00 Z"/>
</g>
<g fill="#FFFFFF" fill-opacity="0.96" stroke="None">
<path d="
M 376.00 171.00 
C 360.34 167.36 348.02 186.00 357.75 197.25 C 367.48 208.50 373.15 215.63 378.23 228.77 C 383.31 241.91 384.73 260.80 380.99 273.99 C 377.25 287.18 373.26 299.20 363.30 308.30 C 353.35 317.41 351.77 335.00 366.33 339.67 C 380.89 344.34 389.83 329.42 397.23 319.23 C 404.63 309.03 409.52 295.52 413.02 283.02 C 416.53 270.53 417.15 248.23 414.33 235.67 C 411.50 223.11 407.72 207.19 400.25 197.75 C 392.78 188.30 387.82 173.75 376.00 171.00 Z"/>
</g>
</svg>