<?xml version="1.0" encoding="UTF-8"?>
<!DOCTYPE svg PUBLIC "-//W3C//DTD SVG 1.1//EN" "http://www.w3.org/Graphics/SVG/1.1/DTD/svg11.dtd">
<svg xmlns="http://www.w3.org/2000/svg" version="1.1" width="512px" height="512px" style="shape-rendering:geometricPrecision; text-rendering:geometricPrecision; image-rendering:optimizeQuality; fill-rule:evenodd; clip-rule:evenodd" xmlns:xlink="http://www.w3.org/1999/xlink">
<g><path style="opacity:0.994" fill="#000000" d="M 61.5,-0.5 C 68.1667,-0.5 74.8333,-0.5 81.5,-0.5C 91.5554,2.02547 101.222,5.8588 110.5,11C 226.5,77.6667 342.5,144.333 458.5,211C 471.456,218.951 480.29,230.117 485,244.5C 488.421,259.818 485.087,273.484 475,285.5C 470.093,291.078 464.593,295.911 458.5,300C 338.826,369.172 218.826,437.839 98.5,506C 92.746,507.975 87.0793,509.808 81.5,511.5C 74.8333,511.5 68.1667,511.5 61.5,511.5C 41.3486,505.286 29.5153,491.619 26,470.5C 24.8445,398.859 24.3445,327.193 24.5,255.5C 24.3445,183.807 24.8445,112.141 26,40.5C 29.5153,19.3811 41.3486,5.71443 61.5,-0.5 Z"/></g>
</svg>
