<svg xmlns="http://www.w3.org/2000/svg" xmlns:v="https://svgstorm.com"
viewBox = "0 0 512 512"
width="512"
height="512">
<g fill="None" fill-opacity="0.0" stroke="#000000" stroke-opacity="0.00" stroke-width="0.3"><path d="
M 0.00 233.00 
C 8.29 114.01 114.00 8.19 233.00 0.00
L 0.00 0.00
L 0.00 233.00 Z"/>
</g>
<g fill="None" fill-opacity="0.0" stroke="#9C9C9C" stroke-opacity="0.96" stroke-width="0.3"><path d="
M 0.00 233.00 
L 0.00 279.00
C 8.30 398.04 114.05 503.69 233.00 512.00
L 240.00 512.00
C 241.96 510.48 247.11 510.28 249.00 512.00
L 279.00 512.00
C 398.03 503.68 503.69 397.96 512.00 279.00
L 512.00 275.00
C 510.43 272.06 510.29 265.87 512.00 263.00
L 512.00 249.00
C 510.20 244.58 511.00 238.18 511.00 233.00
C 511.00 173.01 477.94 117.96 437.25 74.75 C 396.55 31.54 336.32 5.97 279.00 0.00
L 274.00 0.00
C 272.04 1.52 266.89 1.72 265.00 0.00
L 247.00 0.00
C 244.39 1.56 238.54 1.72 236.00 0.00
L 233.00 0.00
C 114.00 8.19 8.29 114.01 0.00 233.00
M 275.00 35.00 
C 393.41 46.46 486.60 154.14 476.67 274.67 C 466.74 395.20 357.13 485.47 237.33 476.67 C 117.53 467.87 25.64 355.87 35.33 237.33 C 45.02 118.79 154.66 23.35 275.00 35.00 Z"/>
</g>
<g fill="None" fill-opacity="0.0" stroke="#9C9C9C" stroke-opacity="0.57" stroke-width="0.3"><path d="
M 247.00 0.00 
L 236.00 0.00
C 238.54 1.72 244.39 1.56 247.00 0.00 Z"/>
</g>
<g fill="None" fill-opacity="0.0" stroke="#9D9D9D" stroke-opacity="0.62" stroke-width="0.3"><path d="
M 274.00 0.00 
L 265.00 0.00
C 266.89 1.72 272.04 1.52 274.00 0.00 Z"/>
</g>
<g fill="None" fill-opacity="0.0" stroke="#000000" stroke-opacity="0.00" stroke-width="0.3"><path d="
M 511.00 233.00 
C 511.00 232.96 512.00 233.00 512.00 233.00
L 512.00 0.00
L 279.00 0.00
C 336.32 5.97 396.55 31.54 437.25 74.75 C 477.94 117.96 511.00 173.01 511.00 233.00 Z"/>
</g>
<g fill="None" fill-opacity="0.0" stroke="#000000" stroke-opacity="0.00" stroke-width="0.3"><path d="
M 275.00 35.00 
C 154.66 23.35 45.02 118.79 35.33 237.33 C 25.64 355.87 117.53 467.87 237.33 476.67 C 357.13 485.47 466.74 395.20 476.67 274.67 C 486.60 154.14 393.41 46.46 275.00 35.00
M 274.00 237.00 
C 291.08 236.47 310.11 237.71 327.00 237.00 C 343.89 236.29 364.91 238.34 381.00 237.00 C 397.09 235.66 407.03 256.31 394.75 266.75 C 382.47 277.19 362.41 270.65 346.00 272.00 C 329.59 273.35 309.17 271.30 292.00 272.00 C 274.83 272.70 255.38 271.47 238.00 272.00
C 237.54 253.66 238.61 234.23 238.00 216.00 C 237.39 197.77 239.17 177.82 238.00 160.00 C 236.83 142.18 240.46 119.78 238.00 103.00 C 235.54 86.22 247.40 67.66 264.22 76.78 C 281.05 85.90 272.31 107.34 274.00 124.00 C 275.69 140.66 273.13 162.26 274.00 180.00 C 274.87 197.74 273.35 218.94 274.00 237.00 Z"/>
</g>
<g fill="None" fill-opacity="0.0" stroke="#9D9D9D" stroke-opacity="0.96" stroke-width="0.3"><path d="
M 274.00 237.00 
C 273.35 218.94 274.87 197.74 274.00 180.00 C 273.13 162.26 275.69 140.66 274.00 124.00 C 272.31 107.34 281.05 85.90 264.22 76.78 C 247.40 67.66 235.54 86.22 238.00 103.00 C 240.46 119.78 236.83 142.18 238.00 160.00 C 239.17 177.82 237.39 197.77 238.00 216.00 C 238.61 234.23 237.54 253.66 238.00 272.00
C 255.38 271.47 274.83 272.70 292.00 272.00 C 309.17 271.30 329.59 273.35 346.00 272.00 C 362.41 270.65 382.47 277.19 394.75 266.75 C 407.03 256.31 397.09 235.66 381.00 237.00 C 364.91 238.34 343.89 236.29 327.00 237.00 C 310.11 237.71 291.08 236.47 274.00 237.00 Z"/>
</g>
<g fill="None" fill-opacity="0.0" stroke="#A3A3A3" stroke-opacity="0.50" stroke-width="0.3"><path d="
M 512.00 249.00 
L 512.00 233.00
C 512.00 233.00 511.00 232.96 511.00 233.00
C 511.00 238.18 510.20 244.58 512.00 249.00 Z"/>
</g>
<g fill="None" fill-opacity="0.0" stroke="#9D9D9D" stroke-opacity="0.62" stroke-width="0.3"><path d="
M 512.00 275.00 
L 512.00 263.00
C 510.29 265.87 510.43 272.06 512.00 275.00 Z"/>
</g>
<g fill="None" fill-opacity="0.0" stroke="#000000" stroke-opacity="0.00" stroke-width="0.3"><path d="
M 0.00 512.00 
L 233.00 512.00
C 114.05 503.69 8.30 398.04 0.00 279.00
L 0.00 512.00 Z"/>
</g>
<g fill="None" fill-opacity="0.0" stroke="#000000" stroke-opacity="0.00" stroke-width="0.3"><path d="
M 279.00 512.00 
L 512.00 512.00
L 512.00 279.00
C 503.69 397.96 398.03 503.68 279.00 512.00 Z"/>
</g>
<g fill="None" fill-opacity="0.0" stroke="#9D9D9D" stroke-opacity="0.71" stroke-width="0.3"><path d="
M 240.00 512.00 
L 249.00 512.00
C 247.11 510.28 241.96 510.48 240.00 512.00 Z"/>
</g>
<g fill="#000000" fill-opacity="0.00" stroke="None">
<path d="
M 0.00 233.00 
C 8.29 114.01 114.00 8.19 233.00 0.00
L 0.00 0.00
L 0.00 233.00 Z"/>
</g>
<g fill="#9C9C9C" fill-opacity="0.96" stroke="None">
<path d="
M 0.00 233.00 
L 0.00 279.00
C 8.30 398.04 114.05 503.69 233.00 512.00
L 240.00 512.00
C 241.96 510.48 247.11 510.28 249.00 512.00
L 279.00 512.00
C 398.03 503.68 503.69 397.96 512.00 279.00
L 512.00 275.00
C 510.43 272.06 510.29 265.87 512.00 263.00
L 512.00 249.00
C 510.20 244.58 511.00 238.18 511.00 233.00
C 511.00 173.01 477.94 117.96 437.25 74.75 C 396.55 31.54 336.32 5.97 279.00 0.00
L 274.00 0.00
C 272.04 1.52 266.89 1.72 265.00 0.00
L 247.00 0.00
C 244.39 1.56 238.54 1.72 236.00 0.00
L 233.00 0.00
C 114.00 8.19 8.29 114.01 0.00 233.00
M 275.00 35.00 
C 393.41 46.46 486.60 154.14 476.67 274.67 C 466.74 395.20 357.13 485.47 237.33 476.67 C 117.53 467.87 25.64 355.87 35.33 237.33 C 45.02 118.79 154.66 23.35 275.00 35.00 Z"/>
</g>
<g fill="#9C9C9C" fill-opacity="0.57" stroke="None">
<path d="
M 247.00 0.00 
L 236.00 0.00
C 238.54 1.72 244.39 1.56 247.00 0.00 Z"/>
</g>
<g fill="#9D9D9D" fill-opacity="0.62" stroke="None">
<path d="
M 274.00 0.00 
L 265.00 0.00
C 266.89 1.72 272.04 1.52 274.00 0.00 Z"/>
</g>
<g fill="#000000" fill-opacity="0.00" stroke="None">
<path d="
M 511.00 233.00 
C 511.00 232.96 512.00 233.00 512.00 233.00
L 512.00 0.00
L 279.00 0.00
C 336.32 5.97 396.55 31.54 437.25 74.75 C 477.94 117.96 511.00 173.01 511.00 233.00 Z"/>
</g>
<g fill="#000000" fill-opacity="0.00" stroke="None">
<path d="
M 275.00 35.00 
C 154.66 23.35 45.02 118.79 35.33 237.33 C 25.64 355.87 117.53 467.87 237.33 476.67 C 357.13 485.47 466.74 395.20 476.67 274.67 C 486.60 154.14 393.41 46.46 275.00 35.00
M 274.00 237.00 
C 291.08 236.47 310.11 237.71 327.00 237.00 C 343.89 236.29 364.91 238.34 381.00 237.00 C 397.09 235.66 407.03 256.31 394.75 266.75 C 382.47 277.19 362.41 270.65 346.00 272.00 C 329.59 273.35 309.17 271.30 292.00 272.00 C 274.83 272.70 255.38 271.47 238.00 272.00
C 237.54 253.66 238.61 234.23 238.00 216.00 C 237.39 197.77 239.17 177.82 238.00 160.00 C 236.83 142.18 240.46 119.78 238.00 103.00 C 235.54 86.22 247.40 67.66 264.22 76.78 C 281.05 85.90 272.31 107.34 274.00 124.00 C 275.69 140.66 273.13 162.26 274.00 180.00 C 274.87 197.74 273.35 218.94 274.00 237.00 Z"/>
</g>
<g fill="#9D9D9D" fill-opacity="0.96" stroke="None">
<path d="
M 274.00 237.00 
C 273.35 218.94 274.87 197.74 274.00 180.00 C 273.13 162.26 275.69 140.66 274.00 124.00 C 272.31 107.34 281.05 85.90 264.22 76.78 C 247.40 67.66 235.54 86.22 238.00 103.00 C 240.46 119.78 236.83 142.18 238.00 160.00 C 239.17 177.82 237.39 197.77 238.00 216.00 C 238.61 234.23 237.54 253.66 238.00 272.00
C 255.38 271.47 274.83 272.70 292.00 272.00 C 309.17 271.30 329.59 273.35 346.00 272.00 C 362.41 270.65 382.47 277.19 394.75 266.75 C 407.03 256.31 397.09 235.66 381.00 237.00 C 364.91 238.34 343.89 236.29 327.00 237.00 C 310.11 237.71 291.08 236.47 274.00 237.00 Z"/>
</g>
<g fill="#A3A3A3" fill-opacity="0.50" stroke="None">
<path d="
M 512.00 249.00 
L 512.00 233.00
C 512.00 233.00 511.00 232.96 511.00 233.00
C 511.00 238.18 510.20 244.58 512.00 249.00 Z"/>
</g>
<g fill="#9D9D9D" fill-opacity="0.62" stroke="None">
<path d="
M 512.00 275.00 
L 512.00 263.00
C 510.29 265.87 510.43 272.06 512.00 275.00 Z"/>
</g>
<g fill="#000000" fill-opacity="0.00" stroke="None">
<path d="
M 0.00 512.00 
L 233.00 512.00
C 114.05 503.69 8.30 398.04 0.00 279.00
L 0.00 512.00 Z"/>
</g>
<g fill="#000000" fill-opacity="0.00" stroke="None">
<path d="
M 279.00 512.00 
L 512.00 512.00
L 512.00 279.00
C 503.69 397.96 398.03 503.68 279.00 512.00 Z"/>
</g>
<g fill="#9D9D9D" fill-opacity="0.71" stroke="None">
<path d="
M 240.00 512.00 
L 249.00 512.00
C 247.11 510.28 241.96 510.48 240.00 512.00 Z"/>
</g>
</svg>