<svg xmlns="http://www.w3.org/2000/svg" xmlns:v="https://svgstorm.com"
viewBox = "0 0 512 512"
width="512"
height="512">
<g fill="None" fill-opacity="0.0" stroke="#000000" stroke-opacity="0.00" stroke-width="0.3"><path d="
M 0.00 512.00 
L 112.00 512.00
C 98.31 499.20 78.25 482.13 66.25 467.75 C 54.24 453.37 21.31 435.76 36.00 416.00
C 45.61 403.08 59.46 392.29 70.75 380.75 C 82.04 369.21 93.41 355.94 106.00 346.00
C 117.48 336.94 133.85 343.91 133.00 358.00 C 132.15 372.09 117.84 375.68 110.75 385.75 C 103.67 395.83 92.83 401.00 86.00 411.00
C 106.75 410.99 127.22 411.02 148.00 411.00 C 168.78 410.98 190.23 411.03 211.00 411.00 C 231.77 410.97 253.39 411.07 274.00 411.00 C 294.61 410.93 316.81 411.15 337.00 411.00 C 357.19 410.85 380.78 411.33 400.00 411.00 C 419.22 410.67 430.11 404.24 440.92 388.92 C 451.73 373.60 449.15 353.73 449.00 334.00 C 448.85 314.27 449.67 291.69 449.00 271.00 C 448.33 250.31 480.86 250.34 480.00 271.00 C 479.14 291.66 480.50 313.30 480.00 333.00 C 479.50 352.70 482.07 374.34 475.07 391.07 C 468.08 407.80 462.11 416.11 447.77 426.77 C 433.43 437.43 419.26 442.30 400.00 442.00 C 380.74 441.70 357.21 442.14 337.00 442.00 C 316.79 441.86 294.64 442.06 274.00 442.00 C 253.36 441.94 231.83 442.03 211.00 442.00 C 190.17 441.97 168.91 442.01 148.00 442.00 C 127.09 441.99 105.93 442.01 85.00 442.00
C 96.02 452.27 104.93 464.65 116.75 474.25 C 128.57 483.84 142.51 502.41 123.00 512.00
L 512.00 512.00
L 512.00 0.00
L 400.00 0.00
C 413.69 12.80 433.74 29.87 445.75 44.25 C 457.76 58.63 490.69 76.24 476.00 96.00
C 466.39 108.92 452.54 119.71 441.25 131.25 C 429.96 142.79 418.59 156.06 406.00 166.00
C 394.52 175.06 378.15 168.09 379.00 154.00 C 379.85 139.91 394.16 136.32 401.25 126.25 C 408.33 116.17 419.17 111.00 426.00 101.00
C 404.09 101.07 381.89 100.91 360.00 101.00 C 338.11 101.09 315.78 100.83 294.00 101.00 C 272.22 101.17 248.43 100.63 227.00 101.00 C 205.57 101.37 181.55 100.18 161.00 101.00 C 140.45 101.82 115.33 98.14 97.32 103.32 C 79.31 108.50 69.95 121.23 65.07 138.07 C 60.20 154.92 66.79 185.98 64.00 203.00 C 61.21 220.02 73.18 252.32 50.00 255.00 C 26.81 257.67 32.70 224.09 33.00 207.00 C 33.30 189.91 31.72 158.57 33.00 141.00 C 34.28 123.43 41.02 107.97 53.25 95.25 C 65.49 82.54 77.62 74.20 96.07 71.07 C 114.52 67.94 140.42 70.71 161.00 70.00 C 181.58 69.29 205.54 70.32 227.00 70.00 C 248.46 69.68 272.15 70.15 294.00 70.00 C 315.85 69.85 337.97 70.08 360.00 70.00 C 382.03 69.92 404.90 70.06 427.00 70.00
C 415.98 59.73 407.07 47.35 395.25 37.75 C 383.43 28.16 369.49 9.59 389.00 0.00
L 0.00 0.00
L 0.00 512.00 Z"/>
</g>
<g fill="None" fill-opacity="0.0" stroke="#9D9D9D" stroke-opacity="0.97" stroke-width="0.3"><path d="
M 406.00 166.00 
C 417.94 154.97 429.33 142.43 440.75 130.75 C 452.18 119.08 465.39 108.18 476.00 96.00
C 490.69 76.24 457.76 58.63 445.75 44.25 C 433.74 29.87 413.69 12.80 400.00 0.00
L 389.00 0.00
C 369.49 9.59 383.43 28.16 395.25 37.75 C 407.07 47.35 415.98 59.73 427.00 70.00
C 404.90 70.06 382.03 69.92 360.00 70.00 C 337.97 70.08 315.85 69.85 294.00 70.00 C 272.15 70.15 248.46 69.68 227.00 70.00 C 205.54 70.32 181.58 69.29 161.00 70.00 C 140.42 70.71 114.52 67.94 96.07 71.07 C 77.62 74.20 65.49 82.54 53.25 95.25 C 41.02 107.97 34.28 123.43 33.00 141.00 C 31.72 158.57 33.30 189.91 33.00 207.00 C 32.70 224.09 26.81 257.67 50.00 255.00 C 73.18 252.32 61.21 220.02 64.00 203.00 C 66.79 185.98 60.20 154.92 65.07 138.07 C 69.95 121.23 79.31 108.50 97.32 103.32 C 115.33 98.14 140.45 101.82 161.00 101.00 C 181.55 100.18 205.57 101.37 227.00 101.00 C 248.43 100.63 272.22 101.17 294.00 101.00 C 315.78 100.83 338.11 101.09 360.00 101.00 C 381.89 100.91 404.09 101.07 426.00 101.00
C 419.17 111.00 408.33 116.17 401.25 126.25 C 394.16 136.32 379.85 139.91 379.00 154.00 C 378.15 168.09 394.52 175.06 406.00 166.00 Z"/>
</g>
<g fill="None" fill-opacity="0.0" stroke="#FFFFFF" stroke-opacity="0.00" stroke-width="0.3"><path d="
M 406.00 166.00 
C 418.59 156.06 429.96 142.79 441.25 131.25 C 452.54 119.71 466.39 108.92 476.00 96.00
C 465.39 108.18 452.18 119.08 440.75 130.75 C 429.33 142.43 417.94 154.97 406.00 166.00 Z"/>
</g>
<g fill="None" fill-opacity="0.0" stroke="#9D9D9D" stroke-opacity="0.97" stroke-width="0.3"><path d="
M 106.00 346.00 
C 94.06 357.04 82.67 369.57 71.25 381.25 C 59.82 392.92 46.61 403.82 36.00 416.00
C 21.31 435.76 54.24 453.37 66.25 467.75 C 78.25 482.13 98.31 499.20 112.00 512.00
L 123.00 512.00
C 142.51 502.41 128.57 483.84 116.75 474.25 C 104.93 464.65 96.02 452.27 85.00 442.00
C 105.93 442.01 127.09 441.99 148.00 442.00 C 168.91 442.01 190.17 441.97 211.00 442.00 C 231.83 442.03 253.36 441.94 274.00 442.00 C 294.64 442.06 316.79 441.86 337.00 442.00 C 357.21 442.14 380.74 441.70 400.00 442.00 C 419.26 442.30 433.43 437.43 447.77 426.77 C 462.11 416.11 468.08 407.80 475.07 391.07 C 482.07 374.34 479.50 352.70 480.00 333.00 C 480.50 313.30 479.14 291.66 480.00 271.00 C 480.86 250.34 448.33 250.31 449.00 271.00 C 449.67 291.69 448.85 314.27 449.00 334.00 C 449.15 353.73 451.73 373.60 440.92 388.92 C 430.11 404.24 419.22 410.67 400.00 411.00 C 380.78 411.33 357.19 410.85 337.00 411.00 C 316.81 411.15 294.61 410.93 274.00 411.00 C 253.39 411.07 231.77 410.97 211.00 411.00 C 190.23 411.03 168.78 410.98 148.00 411.00 C 127.22 411.02 106.75 410.99 86.00 411.00
C 92.83 401.00 103.67 395.83 110.75 385.75 C 117.84 375.68 132.15 372.09 133.00 358.00 C 133.85 343.91 117.48 336.94 106.00 346.00 Z"/>
</g>
<g fill="None" fill-opacity="0.0" stroke="#FFFFFF" stroke-opacity="0.00" stroke-width="0.3"><path d="
M 36.00 416.00 
C 46.61 403.82 59.82 392.92 71.25 381.25 C 82.67 369.57 94.06 357.04 106.00 346.00
C 93.41 355.94 82.04 369.21 70.75 380.75 C 59.46 392.29 45.61 403.08 36.00 416.00 Z"/>
</g>
<g fill="#000000" fill-opacity="0.00" stroke="None">
<path d="
M 0.00 512.00 
L 112.00 512.00
C 98.31 499.20 78.25 482.13 66.25 467.75 C 54.24 453.37 21.31 435.76 36.00 416.00
C 45.61 403.08 59.46 392.29 70.75 380.75 C 82.04 369.21 93.41 355.94 106.00 346.00
C 117.48 336.94 133.85 343.91 133.00 358.00 C 132.15 372.09 117.84 375.68 110.75 385.75 C 103.67 395.83 92.83 401.00 86.00 411.00
C 106.75 410.99 127.22 411.02 148.00 411.00 C 168.78 410.98 190.23 411.03 211.00 411.00 C 231.77 410.97 253.39 411.07 274.00 411.00 C 294.61 410.93 316.81 411.15 337.00 411.00 C 357.19 410.85 380.78 411.33 400.00 411.00 C 419.22 410.67 430.11 404.24 440.92 388.92 C 451.73 373.60 449.15 353.73 449.00 334.00 C 448.85 314.27 449.67 291.69 449.00 271.00 C 448.33 250.31 480.86 250.34 480.00 271.00 C 479.14 291.66 480.50 313.30 480.00 333.00 C 479.50 352.70 482.07 374.34 475.07 391.07 C 468.08 407.80 462.11 416.11 447.77 426.77 C 433.43 437.43 419.26 442.30 400.00 442.00 C 380.74 441.70 357.21 442.14 337.00 442.00 C 316.79 441.86 294.64 442.06 274.00 442.00 C 253.36 441.94 231.83 442.03 211.00 442.00 C 190.17 441.97 168.91 442.01 148.00 442.00 C 127.09 441.99 105.93 442.01 85.00 442.00
C 96.02 452.27 104.93 464.65 116.75 474.25 C 128.57 483.84 142.51 502.41 123.00 512.00
L 512.00 512.00
L 512.00 0.00
L 400.00 0.00
C 413.69 12.80 433.74 29.87 445.75 44.25 C 457.76 58.63 490.69 76.24 476.00 96.00
C 466.39 108.92 452.54 119.71 441.25 131.25 C 429.96 142.79 418.59 156.06 406.00 166.00
C 394.52 175.06 378.15 168.09 379.00 154.00 C 379.85 139.91 394.16 136.32 401.25 126.25 C 408.33 116.17 419.17 111.00 426.00 101.00
C 404.09 101.07 381.89 100.91 360.00 101.00 C 338.11 101.09 315.78 100.83 294.00 101.00 C 272.22 101.17 248.43 100.63 227.00 101.00 C 205.57 101.37 181.55 100.18 161.00 101.00 C 140.45 101.82 115.33 98.14 97.32 103.32 C 79.31 108.50 69.95 121.23 65.07 138.07 C 60.20 154.92 66.79 185.98 64.00 203.00 C 61.21 220.02 73.18 252.32 50.00 255.00 C 26.81 257.67 32.70 224.09 33.00 207.00 C 33.30 189.91 31.72 158.57 33.00 141.00 C 34.28 123.43 41.02 107.97 53.25 95.25 C 65.49 82.54 77.62 74.20 96.07 71.07 C 114.52 67.94 140.42 70.71 161.00 70.00 C 181.58 69.29 205.54 70.32 227.00 70.00 C 248.46 69.68 272.15 70.15 294.00 70.00 C 315.85 69.85 337.97 70.08 360.00 70.00 C 382.03 69.92 404.90 70.06 427.00 70.00
C 415.98 59.73 407.07 47.35 395.25 37.75 C 383.43 28.16 369.49 9.59 389.00 0.00
L 0.00 0.00
L 0.00 512.00 Z"/>
</g>
<g fill="#9D9D9D" fill-opacity="0.97" stroke="None">
<path d="
M 406.00 166.00 
C 417.94 154.97 429.33 142.43 440.75 130.75 C 452.18 119.08 465.39 108.18 476.00 96.00
C 490.69 76.24 457.76 58.63 445.75 44.25 C 433.74 29.87 413.69 12.80 400.00 0.00
L 389.00 0.00
C 369.49 9.59 383.43 28.16 395.25 37.75 C 407.07 47.35 415.98 59.73 427.00 70.00
C 404.90 70.06 382.03 69.92 360.00 70.00 C 337.97 70.08 315.85 69.85 294.00 70.00 C 272.15 70.15 248.46 69.68 227.00 70.00 C 205.54 70.32 181.58 69.29 161.00 70.00 C 140.42 70.71 114.52 67.94 96.07 71.07 C 77.62 74.20 65.49 82.54 53.25 95.25 C 41.02 107.97 34.28 123.43 33.00 141.00 C 31.72 158.57 33.30 189.91 33.00 207.00 C 32.70 224.09 26.81 257.67 50.00 255.00 C 73.18 252.32 61.21 220.02 64.00 203.00 C 66.79 185.98 60.20 154.92 65.07 138.07 C 69.95 121.23 79.31 108.50 97.32 103.32 C 115.33 98.14 140.45 101.82 161.00 101.00 C 181.55 100.18 205.57 101.37 227.00 101.00 C 248.43 100.63 272.22 101.17 294.00 101.00 C 315.78 100.83 338.11 101.09 360.00 101.00 C 381.89 100.91 404.09 101.07 426.00 101.00
C 419.17 111.00 408.33 116.17 401.25 126.25 C 394.16 136.32 379.85 139.91 379.00 154.00 C 378.15 168.09 394.52 175.06 406.00 166.00 Z"/>
</g>
<g fill="#FFFFFF" fill-opacity="0.00" stroke="None">
<path d="
M 406.00 166.00 
C 418.59 156.06 429.96 142.79 441.25 131.25 C 452.54 119.71 466.39 108.92 476.00 96.00
C 465.39 108.18 452.18 119.08 440.75 130.75 C 429.33 142.43 417.94 154.97 406.00 166.00 Z"/>
</g>
<g fill="#9D9D9D" fill-opacity="0.97" stroke="None">
<path d="
M 106.00 346.00 
C 94.06 357.04 82.67 369.57 71.25 381.25 C 59.82 392.92 46.61 403.82 36.00 416.00
C 21.31 435.76 54.24 453.37 66.25 467.75 C 78.25 482.13 98.31 499.20 112.00 512.00
L 123.00 512.00
C 142.51 502.41 128.57 483.84 116.75 474.25 C 104.93 464.65 96.02 452.27 85.00 442.00
C 105.93 442.01 127.09 441.99 148.00 442.00 C 168.91 442.01 190.17 441.97 211.00 442.00 C 231.83 442.03 253.36 441.94 274.00 442.00 C 294.64 442.06 316.79 441.86 337.00 442.00 C 357.21 442.14 380.74 441.70 400.00 442.00 C 419.26 442.30 433.43 437.43 447.77 426.77 C 462.11 416.11 468.08 407.80 475.07 391.07 C 482.07 374.34 479.50 352.70 480.00 333.00 C 480.50 313.30 479.14 291.66 480.00 271.00 C 480.86 250.34 448.33 250.31 449.00 271.00 C 449.67 291.69 448.85 314.27 449.00 334.00 C 449.15 353.73 451.73 373.60 440.92 388.92 C 430.11 404.24 419.22 410.67 400.00 411.00 C 380.78 411.33 357.19 410.85 337.00 411.00 C 316.81 411.15 294.61 410.93 274.00 411.00 C 253.39 411.07 231.77 410.97 211.00 411.00 C 190.23 411.03 168.78 410.98 148.00 411.00 C 127.22 411.02 106.75 410.99 86.00 411.00
C 92.83 401.00 103.67 395.83 110.75 385.75 C 117.84 375.68 132.15 372.09 133.00 358.00 C 133.85 343.91 117.48 336.94 106.00 346.00 Z"/>
</g>
<g fill="#FFFFFF" fill-opacity="0.00" stroke="None">
<path d="
M 36.00 416.00 
C 46.61 403.82 59.82 392.92 71.25 381.25 C 82.67 369.57 94.06 357.04 106.00 346.00
C 93.41 355.94 82.04 369.21 70.75 380.75 C 59.46 392.29 45.61 403.08 36.00 416.00 Z"/>
</g>
</svg>