<svg xmlns="http://www.w3.org/2000/svg" xmlns:v="https://svgstorm.com"
viewBox = "0 0 512 512"
width="512"
height="512">
<g fill="None" fill-opacity="0.0" stroke="#000000" stroke-opacity="0.00" stroke-width="0.3"><path d="
M 0.00 168.00 
C 6.80 110.87 43.83 57.58 101.01 40.01 C 158.18 22.43 225.83 48.64 256.00 102.00
C 286.24 48.81 353.03 22.70 410.22 39.78 C 467.41 56.85 505.31 109.96 512.00 167.00
L 512.00 0.00
L 0.00 0.00
L 0.00 168.00 Z"/>
</g>
<g fill="None" fill-opacity="0.0" stroke="#A1C6FE" stroke-opacity="1.00" stroke-width="0.3"><path d="
M 0.00 168.00 
L 0.00 203.00
C 2.48 220.55 9.11 240.24 16.77 256.23 C 24.43 272.22 32.81 286.89 43.25 300.75 C 53.70 314.60 63.25 327.21 75.25 339.75 C 87.25 352.30 98.64 363.10 111.23 374.77 C 123.82 386.44 135.98 396.57 149.25 407.75 C 162.51 418.94 176.38 426.35 190.08 437.92 C 203.79 449.49 218.41 453.62 232.70 466.30 C 246.98 478.98 265.71 478.50 280.08 466.08 C 294.45 453.66 308.44 448.56 322.25 437.25 C 336.06 425.93 349.61 418.18 362.75 406.75 C 375.89 395.33 388.60 386.07 401.25 374.25 C 413.90 362.43 425.11 351.59 436.75 338.75 C 448.39 325.91 458.60 313.86 468.77 299.77 C 478.94 285.68 487.72 271.50 495.31 255.31 C 502.89 239.11 509.44 218.69 512.00 201.00
L 512.00 167.00
C 505.31 109.96 467.41 56.85 410.22 39.78 C 353.03 22.70 286.24 48.81 256.00 102.00
C 225.83 48.64 158.18 22.43 101.01 40.01 C 43.83 57.58 6.80 110.87 0.00 168.00 Z"/>
</g>
<g fill="None" fill-opacity="0.0" stroke="#000000" stroke-opacity="0.00" stroke-width="0.3"><path d="
M 0.00 203.00 
L 0.00 512.00
L 512.00 512.00
L 512.00 201.00
C 509.44 218.69 502.89 239.11 495.31 255.31 C 487.72 271.50 478.94 285.68 468.77 299.77 C 458.60 313.86 448.39 325.91 436.75 338.75 C 425.11 351.59 413.90 362.43 401.25 374.25 C 388.60 386.07 375.89 395.33 362.75 406.75 C 349.61 418.18 336.06 425.93 322.25 437.25 C 308.44 448.56 294.45 453.66 280.08 466.08 C 265.71 478.50 246.98 478.98 232.70 466.30 C 218.41 453.62 203.79 449.49 190.08 437.92 C 176.38 426.35 162.51 418.94 149.25 407.75 C 135.98 396.57 123.82 386.44 111.23 374.77 C 98.64 363.10 87.25 352.30 75.25 339.75 C 63.25 327.21 53.70 314.60 43.25 300.75 C 32.81 286.89 24.43 272.22 16.77 256.23 C 9.11 240.24 2.48 220.55 0.00 203.00 Z"/>
</g>
<g fill="#000000" fill-opacity="0.00" stroke="None">
<path d="
M 0.00 168.00 
C 6.80 110.87 43.83 57.58 101.01 40.01 C 158.18 22.43 225.83 48.64 256.00 102.00
C 286.24 48.81 353.03 22.70 410.22 39.78 C 467.41 56.85 505.31 109.96 512.00 167.00
L 512.00 0.00
L 0.00 0.00
L 0.00 168.00 Z"/>
</g>
<g fill="#A1C6FE" fill-opacity="1.00" stroke="None">
<path d="
M 0.00 168.00 
L 0.00 203.00
C 2.48 220.55 9.11 240.24 16.77 256.23 C 24.43 272.22 32.81 286.89 43.25 300.75 C 53.70 314.60 63.25 327.21 75.25 339.75 C 87.25 352.30 98.64 363.10 111.23 374.77 C 123.82 386.44 135.98 396.57 149.25 407.75 C 162.51 418.94 176.38 426.35 190.08 437.92 C 203.79 449.49 218.41 453.62 232.70 466.30 C 246.98 478.98 265.71 478.50 280.08 466.08 C 294.45 453.66 308.44 448.56 322.25 437.25 C 336.06 425.93 349.61 418.18 362.75 406.75 C 375.89 395.33 388.60 386.07 401.25 374.25 C 413.90 362.43 425.11 351.59 436.75 338.75 C 448.39 325.91 458.60 313.86 468.77 299.77 C 478.94 285.68 487.72 271.50 495.31 255.31 C 502.89 239.11 509.44 218.69 512.00 201.00
L 512.00 167.00
C 505.31 109.96 467.41 56.85 410.22 39.78 C 353.03 22.70 286.24 48.81 256.00 102.00
C 225.83 48.64 158.18 22.43 101.01 40.01 C 43.83 57.58 6.80 110.87 0.00 168.00 Z"/>
</g>
<g fill="#000000" fill-opacity="0.00" stroke="None">
<path d="
M 0.00 203.00 
L 0.00 512.00
L 512.00 512.00
L 512.00 201.00
C 509.44 218.69 502.89 239.11 495.31 255.31 C 487.72 271.50 478.94 285.68 468.77 299.77 C 458.60 313.86 448.39 325.91 436.75 338.75 C 425.11 351.59 413.90 362.43 401.25 374.25 C 388.60 386.07 375.89 395.33 362.75 406.75 C 349.61 418.18 336.06 425.93 322.25 437.25 C 308.44 448.56 294.45 453.66 280.08 466.08 C 265.71 478.50 246.98 478.98 232.70 466.30 C 218.41 453.62 203.79 449.49 190.08 437.92 C 176.38 426.35 162.51 418.94 149.25 407.75 C 135.98 396.57 123.82 386.44 111.23 374.77 C 98.64 363.10 87.25 352.30 75.25 339.75 C 63.25 327.21 53.70 314.60 43.25 300.75 C 32.81 286.89 24.43 272.22 16.77 256.23 C 9.11 240.24 2.48 220.55 0.00 203.00 Z"/>
</g>
</svg>