<svg xmlns="http://www.w3.org/2000/svg" xmlns:v="https://svgstorm.com"
viewBox = "0 0 512 512"
width="512"
height="512">
<g fill="None" fill-opacity="0.0" stroke="#000000" stroke-opacity="0.00" stroke-width="0.3"><path d="
M 0.00 512.00 
L 512.00 512.00
L 512.00 0.00
L 0.00 0.00
L 0.00 512.00
M 456.00 228.00 
C 465.31 235.11 467.34 250.00 455.77 256.77 C 444.20 263.54 433.58 248.86 423.92 256.92 C 414.26 264.98 403.38 267.61 391.98 270.98 C 380.58 274.34 364.51 278.40 352.00 276.00 C 339.49 273.60 331.87 283.40 323.25 291.25 C 314.63 299.10 307.05 305.19 298.75 312.75 C 290.46 320.32 282.37 326.81 274.25 334.25 C 266.13 341.69 258.38 347.98 250.25 355.25 C 242.13 362.53 233.99 369.65 225.77 376.77 C 217.55 383.89 209.73 391.52 201.30 398.30 C 192.87 405.08 185.64 413.36 177.25 420.25 C 168.85 427.14 161.52 433.80 153.25 441.25 C 144.98 448.70 137.17 454.79 128.75 462.75 C 120.33 470.72 110.76 476.54 98.99 478.99 C 87.22 481.45 70.74 479.85 60.31 473.70 C 49.87 467.54 44.01 461.33 38.08 450.92 C 32.14 440.52 30.26 423.67 32.98 411.98 C 35.69 400.28 41.95 391.21 49.75 382.75 C 57.56 374.30 63.84 366.53 71.25 358.25 C 78.65 349.96 85.16 342.56 92.25 334.25 C 99.35 325.95 107.17 318.36 113.92 309.92 C 120.67 301.47 128.87 294.08 135.75 285.75 C 142.63 277.43 150.03 269.39 157.25 261.25 C 164.47 253.11 170.74 245.33 178.25 237.25 C 185.75 229.16 191.95 220.94 199.75 212.75 C 207.55 204.57 212.95 196.69 221.25 188.25 C 229.54 179.81 238.32 171.25 236.22 158.78 C 234.12 146.31 237.54 130.41 240.98 118.98 C 244.41 107.54 247.84 97.21 255.31 87.30 C 262.77 77.40 247.76 68.26 254.26 56.26 C 260.75 44.26 277.09 45.72 284.00 56.00
C 331.40 19.59 402.57 25.01 444.75 67.25 C 486.93 109.48 492.12 180.49 456.00 228.00 Z"/>
</g>
<g fill="None" fill-opacity="0.0" stroke="#A2C7FF" stroke-opacity="0.97" stroke-width="0.3"><path d="
M 456.00 228.00 
C 492.12 180.49 486.93 109.48 444.75 67.25 C 402.57 25.01 331.40 19.59 284.00 56.00
C 277.09 45.72 260.75 44.26 254.26 56.26 C 247.76 68.26 262.77 77.40 255.31 87.30 C 247.84 97.21 244.41 107.54 240.98 118.98 C 237.54 130.41 234.12 146.31 236.22 158.78 C 238.32 171.25 229.54 179.81 221.25 188.25 C 212.95 196.69 207.55 204.57 199.75 212.75 C 191.95 220.94 185.75 229.16 178.25 237.25 C 170.74 245.33 164.47 253.11 157.25 261.25 C 150.03 269.39 142.63 277.43 135.75 285.75 C 128.87 294.08 120.67 301.47 113.92 309.92 C 107.17 318.36 99.35 325.95 92.25 334.25 C 85.16 342.56 78.65 349.96 71.25 358.25 C 63.84 366.53 57.56 374.30 49.75 382.75 C 41.95 391.21 35.69 400.28 32.98 411.98 C 30.26 423.67 32.14 440.52 38.08 450.92 C 44.01 461.33 49.87 467.54 60.31 473.70 C 70.74 479.85 87.22 481.45 98.99 478.99 C 110.76 476.54 120.33 470.72 128.75 462.75 C 137.17 454.79 144.98 448.70 153.25 441.25 C 161.52 433.80 168.85 427.14 177.25 420.25 C 185.64 413.36 192.87 405.08 201.30 398.30 C 209.73 391.52 217.55 383.89 225.77 376.77 C 233.99 369.65 242.13 362.53 250.25 355.25 C 258.38 347.98 266.13 341.69 274.25 334.25 C 282.37 326.81 290.46 320.32 298.75 312.75 C 307.05 305.19 314.63 299.10 323.25 291.25 C 331.87 283.40 339.49 273.60 352.00 276.00 C 364.51 278.40 380.58 274.34 391.98 270.98 C 403.38 267.61 414.26 264.98 423.92 256.92 C 433.58 248.86 444.20 263.54 455.77 256.77 C 467.34 250.00 465.31 235.11 456.00 228.00
M 432.00 203.00 
C 432.23 203.16 432.00 204.00 432.00 204.00
C 430.59 205.48 422.67 195.85 419.75 193.25 C 416.83 190.65 410.86 184.22 407.25 180.75 C 403.64 177.29 398.67 172.11 394.75 168.25 C 390.83 164.39 386.32 159.81 382.25 155.75 C 378.17 151.69 373.35 146.85 369.25 142.75 C 365.14 138.65 360.78 134.30 356.75 130.25 C 352.73 126.20 348.10 121.67 344.25 117.75 C 340.40 113.84 335.21 108.86 331.75 105.25 C 328.29 101.63 321.84 95.70 319.25 92.75 C 316.65 89.80 306.51 81.42 308.00 80.00
C 308.07 80.18 309.00 80.00 309.00 80.00
C 328.17 61.24 365.32 61.43 389.07 69.93 C 412.83 78.42 431.32 96.93 440.98 121.02 C 450.63 145.12 449.10 181.60 432.00 203.00
M 408.00 227.00 
C 407.48 231.44 397.38 232.68 393.32 235.32 C 389.26 237.97 380.85 239.79 374.99 240.99 C 369.13 242.19 360.03 243.65 353.00 243.00 C 345.97 242.35 343.03 240.08 337.75 234.25 C 332.47 228.42 332.58 229.15 325.75 222.25 C 318.92 215.35 309.09 205.63 302.25 198.75 C 295.41 191.88 295.71 192.09 290.25 186.75 C 284.79 181.42 283.30 179.43 278.25 174.75 C 273.19 170.07 269.51 166.61 269.07 159.93 C 268.63 153.25 269.45 143.49 270.78 137.78 C 272.11 132.07 273.54 123.32 276.31 119.31 C 279.07 115.29 280.26 104.55 285.00 104.00
C 289.02 103.53 293.33 113.46 297.25 115.75 C 301.17 118.04 305.74 125.00 309.75 128.25 C 313.76 131.50 317.70 136.51 321.75 140.25 C 325.81 143.99 330.18 148.80 334.25 152.75 C 338.32 156.70 342.73 161.23 346.75 165.25 C 350.77 169.27 354.83 173.20 358.75 177.25 C 362.67 181.30 367.53 185.70 371.25 189.75 C 374.96 193.80 380.03 197.72 383.25 201.75 C 386.47 205.79 393.51 210.27 395.75 214.25 C 397.99 218.23 408.48 222.93 408.00 227.00
M 257.00 200.00 
C 274.84 218.67 293.38 237.21 312.00 255.00
C 298.81 270.05 281.88 282.91 266.75 296.75 C 251.63 310.60 235.03 324.18 219.75 337.75 C 204.47 351.32 188.41 365.96 173.25 379.25 C 158.08 392.54 140.95 407.43 126.25 420.25 C 111.55 433.07 90.49 459.92 71.25 440.75 C 52.01 421.58 78.52 400.95 91.25 386.25 C 103.98 371.54 119.06 354.49 132.30 339.30 C 145.55 324.12 160.17 308.05 173.75 292.75 C 187.33 277.45 200.94 261.00 214.75 245.75 C 228.57 230.51 241.98 213.34 257.00 200.00 Z"/>
</g>
<g fill="None" fill-opacity="0.0" stroke="#000000" stroke-opacity="0.00" stroke-width="0.3"><path d="
M 309.00 80.00 
C 319.80 95.47 336.92 107.33 349.75 121.25 C 362.58 135.16 376.85 149.41 390.75 162.25 C 404.66 175.09 416.60 192.23 432.00 203.00
C 449.10 181.60 450.63 145.12 440.98 121.02 C 431.32 96.93 412.83 78.42 389.07 69.93 C 365.32 61.43 328.17 61.24 309.00 80.00 Z"/>
</g>
<g fill="None" fill-opacity="0.0" stroke="#A2C7FF" stroke-opacity="0.65" stroke-width="0.3"><path d="
M 432.00 204.00 
C 421.99 199.82 416.02 186.44 407.25 179.75 C 398.48 173.06 390.48 162.40 382.25 154.75 C 374.01 147.10 365.40 138.51 357.75 130.25 C 350.11 121.98 339.44 114.10 332.75 105.25 C 326.06 96.39 312.20 90.06 308.00 80.00
C 306.51 81.42 316.65 89.80 319.25 92.75 C 321.84 95.70 328.29 101.63 331.75 105.25 C 335.21 108.86 340.40 113.84 344.25 117.75 C 348.10 121.67 352.73 126.20 356.75 130.25 C 360.78 134.30 365.14 138.65 369.25 142.75 C 373.35 146.85 378.17 151.69 382.25 155.75 C 386.32 159.81 390.83 164.39 394.75 168.25 C 398.67 172.11 403.64 177.29 407.25 180.75 C 410.86 184.22 416.83 190.65 419.75 193.25 C 422.67 195.85 430.59 205.48 432.00 204.00 Z"/>
</g>
<g fill="None" fill-opacity="0.0" stroke="#B2B2FF" stroke-opacity="0.01" stroke-width="0.3"><path d="
M 432.00 204.00 
C 432.00 204.00 432.23 203.16 432.00 203.00
C 416.60 192.23 404.66 175.09 390.75 162.25 C 376.85 149.41 362.58 135.16 349.75 121.25 C 336.92 107.33 319.80 95.47 309.00 80.00
C 309.00 80.00 308.07 80.18 308.00 80.00
C 312.20 90.06 326.06 96.39 332.75 105.25 C 339.44 114.10 350.11 121.98 357.75 130.25 C 365.40 138.51 374.01 147.10 382.25 154.75 C 390.48 162.40 398.48 173.06 407.25 179.75 C 416.02 186.44 421.99 199.82 432.00 204.00 Z"/>
</g>
<g fill="None" fill-opacity="0.0" stroke="#000000" stroke-opacity="0.00" stroke-width="0.3"><path d="
M 408.00 227.00 
C 366.67 186.50 325.45 145.29 285.00 104.00
C 280.26 104.55 279.07 115.29 276.31 119.31 C 273.54 123.32 272.11 132.07 270.78 137.78 C 269.45 143.49 268.63 153.25 269.07 159.93 C 269.51 166.61 273.19 170.07 278.25 174.75 C 283.30 179.43 284.79 181.42 290.25 186.75 C 295.71 192.09 295.41 191.88 302.25 198.75 C 309.09 205.63 318.92 215.35 325.75 222.25 C 332.58 229.15 332.47 228.42 337.75 234.25 C 343.03 240.08 345.97 242.35 353.00 243.00 C 360.03 243.65 369.13 242.19 374.99 240.99 C 380.85 239.79 389.26 237.97 393.32 235.32 C 397.38 232.68 407.48 231.44 408.00 227.00 Z"/>
</g>
<g fill="None" fill-opacity="0.0" stroke="#FFFFFF" stroke-opacity="0.00" stroke-width="0.3"><path d="
M 408.00 227.00 
C 408.48 222.93 397.99 218.23 395.75 214.25 C 393.51 210.27 386.47 205.79 383.25 201.75 C 380.03 197.72 374.96 193.80 371.25 189.75 C 367.53 185.70 362.67 181.30 358.75 177.25 C 354.83 173.20 350.77 169.27 346.75 165.25 C 342.73 161.23 338.32 156.70 334.25 152.75 C 330.18 148.80 325.81 143.99 321.75 140.25 C 317.70 136.51 313.76 131.50 309.75 128.25 C 305.74 125.00 301.17 118.04 297.25 115.75 C 293.33 113.46 289.02 103.53 285.00 104.00
C 325.45 145.29 366.67 186.50 408.00 227.00 Z"/>
</g>
<g fill="None" fill-opacity="0.0" stroke="#000000" stroke-opacity="0.00" stroke-width="0.3"><path d="
M 257.00 200.00 
C 241.98 213.34 228.57 230.51 214.75 245.75 C 200.94 261.00 187.33 277.45 173.75 292.75 C 160.17 308.05 145.55 324.12 132.30 339.30 C 119.06 354.49 103.98 371.54 91.25 386.25 C 78.52 400.95 52.01 421.58 71.25 440.75 C 90.49 459.92 111.55 433.07 126.25 420.25 C 140.95 407.43 158.08 392.54 173.25 379.25 C 188.41 365.96 204.47 351.32 219.75 337.75 C 235.03 324.18 251.63 310.60 266.75 296.75 C 281.88 282.91 298.81 270.05 312.00 255.00
C 293.38 237.21 274.84 218.67 257.00 200.00 Z"/>
</g>
<g fill="#000000" fill-opacity="0.00" stroke="None">
<path d="
M 0.00 512.00 
L 512.00 512.00
L 512.00 0.00
L 0.00 0.00
L 0.00 512.00
M 456.00 228.00 
C 465.31 235.11 467.34 250.00 455.77 256.77 C 444.20 263.54 433.58 248.86 423.92 256.92 C 414.26 264.98 403.38 267.61 391.98 270.98 C 380.58 274.34 364.51 278.40 352.00 276.00 C 339.49 273.60 331.87 283.40 323.25 291.25 C 314.63 299.10 307.05 305.19 298.75 312.75 C 290.46 320.32 282.37 326.81 274.25 334.25 C 266.13 341.69 258.38 347.98 250.25 355.25 C 242.13 362.53 233.99 369.65 225.77 376.77 C 217.55 383.89 209.73 391.52 201.30 398.30 C 192.87 405.08 185.64 413.36 177.25 420.25 C 168.85 427.14 161.52 433.80 153.25 441.25 C 144.98 448.70 137.17 454.79 128.75 462.75 C 120.33 470.72 110.76 476.54 98.99 478.99 C 87.22 481.45 70.74 479.85 60.31 473.70 C 49.87 467.54 44.01 461.33 38.08 450.92 C 32.14 440.52 30.26 423.67 32.98 411.98 C 35.69 400.28 41.95 391.21 49.75 382.75 C 57.56 374.30 63.84 366.53 71.25 358.25 C 78.65 349.96 85.16 342.56 92.25 334.25 C 99.35 325.95 107.17 318.36 113.92 309.92 C 120.67 301.47 128.87 294.08 135.75 285.75 C 142.63 277.43 150.03 269.39 157.25 261.25 C 164.47 253.11 170.74 245.33 178.25 237.25 C 185.75 229.16 191.95 220.94 199.75 212.75 C 207.55 204.57 212.95 196.69 221.25 188.25 C 229.54 179.81 238.32 171.25 236.22 158.78 C 234.12 146.31 237.54 130.41 240.98 118.98 C 244.41 107.54 247.84 97.21 255.31 87.30 C 262.77 77.40 247.76 68.26 254.26 56.26 C 260.75 44.26 277.09 45.72 284.00 56.00
C 331.40 19.59 402.57 25.01 444.75 67.25 C 486.93 109.48 492.12 180.49 456.00 228.00 Z"/>
</g>
<g fill="#A2C7FF" fill-opacity="0.97" stroke="None">
<path d="
M 456.00 228.00 
C 492.12 180.49 486.93 109.48 444.75 67.25 C 402.57 25.01 331.40 19.59 284.00 56.00
C 277.09 45.72 260.75 44.26 254.26 56.26 C 247.76 68.26 262.77 77.40 255.31 87.30 C 247.84 97.21 244.41 107.54 240.98 118.98 C 237.54 130.41 234.12 146.31 236.22 158.78 C 238.32 171.25 229.54 179.81 221.25 188.25 C 212.95 196.69 207.55 204.57 199.75 212.75 C 191.95 220.94 185.75 229.16 178.25 237.25 C 170.74 245.33 164.47 253.11 157.25 261.25 C 150.03 269.39 142.63 277.43 135.75 285.75 C 128.87 294.08 120.67 301.47 113.92 309.92 C 107.17 318.36 99.35 325.95 92.25 334.25 C 85.16 342.56 78.65 349.96 71.25 358.25 C 63.84 366.53 57.56 374.30 49.75 382.75 C 41.95 391.21 35.69 400.28 32.98 411.98 C 30.26 423.67 32.14 440.52 38.08 450.92 C 44.01 461.33 49.87 467.54 60.31 473.70 C 70.74 479.85 87.22 481.45 98.99 478.99 C 110.76 476.54 120.33 470.72 128.75 462.75 C 137.17 454.79 144.98 448.70 153.25 441.25 C 161.52 433.80 168.85 427.14 177.25 420.25 C 185.64 413.36 192.87 405.08 201.30 398.30 C 209.73 391.52 217.55 383.89 225.77 376.77 C 233.99 369.65 242.13 362.53 250.25 355.25 C 258.38 347.98 266.13 341.69 274.25 334.25 C 282.37 326.81 290.46 320.32 298.75 312.75 C 307.05 305.19 314.63 299.10 323.25 291.25 C 331.87 283.40 339.49 273.60 352.00 276.00 C 364.51 278.40 380.58 274.34 391.98 270.98 C 403.38 267.61 414.26 264.98 423.92 256.92 C 433.58 248.86 444.20 263.54 455.77 256.77 C 467.34 250.00 465.31 235.11 456.00 228.00
M 432.00 203.00 
C 432.23 203.16 432.00 204.00 432.00 204.00
C 430.59 205.48 422.67 195.85 419.75 193.25 C 416.83 190.65 410.86 184.22 407.25 180.75 C 403.64 177.29 398.67 172.11 394.75 168.25 C 390.83 164.39 386.32 159.81 382.25 155.75 C 378.17 151.69 373.35 146.85 369.25 142.75 C 365.14 138.65 360.78 134.30 356.75 130.25 C 352.73 126.20 348.10 121.67 344.25 117.75 C 340.40 113.84 335.21 108.86 331.75 105.25 C 328.29 101.63 321.84 95.70 319.25 92.75 C 316.65 89.80 306.51 81.42 308.00 80.00
C 308.07 80.18 309.00 80.00 309.00 80.00
C 328.17 61.24 365.32 61.43 389.07 69.93 C 412.83 78.42 431.32 96.93 440.98 121.02 C 450.63 145.12 449.10 181.60 432.00 203.00
M 408.00 227.00 
C 407.48 231.44 397.38 232.68 393.32 235.32 C 389.26 237.97 380.85 239.79 374.99 240.99 C 369.13 242.19 360.03 243.65 353.00 243.00 C 345.97 242.35 343.03 240.08 337.75 234.25 C 332.47 228.42 332.58 229.15 325.75 222.25 C 318.92 215.35 309.09 205.63 302.25 198.75 C 295.41 191.88 295.71 192.09 290.25 186.75 C 284.79 181.42 283.30 179.43 278.25 174.75 C 273.19 170.07 269.51 166.61 269.07 159.93 C 268.63 153.25 269.45 143.49 270.78 137.78 C 272.11 132.07 273.54 123.32 276.31 119.31 C 279.07 115.29 280.26 104.55 285.00 104.00
C 289.02 103.53 293.33 113.46 297.25 115.75 C 301.17 118.04 305.74 125.00 309.75 128.25 C 313.76 131.50 317.70 136.51 321.75 140.25 C 325.81 143.99 330.18 148.80 334.25 152.75 C 338.32 156.70 342.73 161.23 346.75 165.25 C 350.77 169.27 354.83 173.20 358.75 177.25 C 362.67 181.30 367.53 185.70 371.25 189.75 C 374.96 193.80 380.03 197.72 383.25 201.75 C 386.47 205.79 393.51 210.27 395.75 214.25 C 397.99 218.23 408.48 222.93 408.00 227.00
M 257.00 200.00 
C 274.84 218.67 293.38 237.21 312.00 255.00
C 298.81 270.05 281.88 282.91 266.75 296.75 C 251.63 310.60 235.03 324.18 219.75 337.75 C 204.47 351.32 188.41 365.96 173.25 379.25 C 158.08 392.54 140.95 407.43 126.25 420.25 C 111.55 433.07 90.49 459.92 71.25 440.75 C 52.01 421.58 78.52 400.95 91.25 386.25 C 103.98 371.54 119.06 354.49 132.30 339.30 C 145.55 324.12 160.17 308.05 173.75 292.75 C 187.33 277.45 200.94 261.00 214.75 245.75 C 228.57 230.51 241.98 213.34 257.00 200.00 Z"/>
</g>
<g fill="#000000" fill-opacity="0.00" stroke="None">
<path d="
M 309.00 80.00 
C 319.80 95.47 336.92 107.33 349.75 121.25 C 362.58 135.16 376.85 149.41 390.75 162.25 C 404.66 175.09 416.60 192.23 432.00 203.00
C 449.10 181.60 450.63 145.12 440.98 121.02 C 431.32 96.93 412.83 78.42 389.07 69.93 C 365.32 61.43 328.17 61.24 309.00 80.00 Z"/>
</g>
<g fill="#A2C7FF" fill-opacity="0.65" stroke="None">
<path d="
M 432.00 204.00 
C 421.99 199.82 416.02 186.44 407.25 179.75 C 398.48 173.06 390.48 162.40 382.25 154.75 C 374.01 147.10 365.40 138.51 357.75 130.25 C 350.11 121.98 339.44 114.10 332.75 105.25 C 326.06 96.39 312.20 90.06 308.00 80.00
C 306.51 81.42 316.65 89.80 319.25 92.75 C 321.84 95.70 328.29 101.63 331.75 105.25 C 335.21 108.86 340.40 113.84 344.25 117.75 C 348.10 121.67 352.73 126.20 356.75 130.25 C 360.78 134.30 365.14 138.65 369.25 142.75 C 373.35 146.85 378.17 151.69 382.25 155.75 C 386.32 159.81 390.83 164.39 394.75 168.25 C 398.67 172.11 403.64 177.29 407.25 180.75 C 410.86 184.22 416.83 190.65 419.75 193.25 C 422.67 195.85 430.59 205.48 432.00 204.00 Z"/>
</g>
<g fill="#B2B2FF" fill-opacity="0.01" stroke="None">
<path d="
M 432.00 204.00 
C 432.00 204.00 432.23 203.16 432.00 203.00
C 416.60 192.23 404.66 175.09 390.75 162.25 C 376.85 149.41 362.58 135.16 349.75 121.25 C 336.92 107.33 319.80 95.47 309.00 80.00
C 309.00 80.00 308.07 80.18 308.00 80.00
C 312.20 90.06 326.06 96.39 332.75 105.25 C 339.44 114.10 350.11 121.98 357.75 130.25 C 365.40 138.51 374.01 147.10 382.25 154.75 C 390.48 162.40 398.48 173.06 407.25 179.75 C 416.02 186.44 421.99 199.82 432.00 204.00 Z"/>
</g>
<g fill="#000000" fill-opacity="0.00" stroke="None">
<path d="
M 408.00 227.00 
C 366.67 186.50 325.45 145.29 285.00 104.00
C 280.26 104.55 279.07 115.29 276.31 119.31 C 273.54 123.32 272.11 132.07 270.78 137.78 C 269.45 143.49 268.63 153.25 269.07 159.93 C 269.51 166.61 273.19 170.07 278.25 174.75 C 283.30 179.43 284.79 181.42 290.25 186.75 C 295.71 192.09 295.41 191.88 302.25 198.75 C 309.09 205.63 318.92 215.35 325.75 222.25 C 332.58 229.15 332.47 228.42 337.75 234.25 C 343.03 240.08 345.97 242.35 353.00 243.00 C 360.03 243.65 369.13 242.19 374.99 240.99 C 380.85 239.79 389.26 237.97 393.32 235.32 C 397.38 232.68 407.48 231.44 408.00 227.00 Z"/>
</g>
<g fill="#FFFFFF" fill-opacity="0.00" stroke="None">
<path d="
M 408.00 227.00 
C 408.48 222.93 397.99 218.23 395.75 214.25 C 393.51 210.27 386.47 205.79 383.25 201.75 C 380.03 197.72 374.96 193.80 371.25 189.75 C 367.53 185.70 362.67 181.30 358.75 177.25 C 354.83 173.20 350.77 169.27 346.75 165.25 C 342.73 161.23 338.32 156.70 334.25 152.75 C 330.18 148.80 325.81 143.99 321.75 140.25 C 317.70 136.51 313.76 131.50 309.75 128.25 C 305.74 125.00 301.17 118.04 297.25 115.75 C 293.33 113.46 289.02 103.53 285.00 104.00
C 325.45 145.29 366.67 186.50 408.00 227.00 Z"/>
</g>
<g fill="#000000" fill-opacity="0.00" stroke="None">
<path d="
M 257.00 200.00 
C 241.98 213.34 228.57 230.51 214.75 245.75 C 200.94 261.00 187.33 277.45 173.75 292.75 C 160.17 308.05 145.55 324.12 132.30 339.30 C 119.06 354.49 103.98 371.54 91.25 386.25 C 78.52 400.95 52.01 421.58 71.25 440.75 C 90.49 459.92 111.55 433.07 126.25 420.25 C 140.95 407.43 158.08 392.54 173.25 379.25 C 188.41 365.96 204.47 351.32 219.75 337.75 C 235.03 324.18 251.63 310.60 266.75 296.75 C 281.88 282.91 298.81 270.05 312.00 255.00
C 293.38 237.21 274.84 218.67 257.00 200.00 Z"/>
</g>
</svg>