<svg xmlns="http://www.w3.org/2000/svg" xmlns:v="https://svgstorm.com"
viewBox = "0 0 512 512"
width="512"
height="512">
<g fill="None" fill-opacity="0.0" stroke="#000000" stroke-opacity="0.00" stroke-width="0.3"><path d="
M 0.00 135.00 
C 0.50 135.00 1.00 135.00 1.00 135.00
C 1.00 71.99 61.28 2.29 126.00 1.00
C 125.99 1.00 126.00 0.00 126.00 0.00
L 0.00 0.00
L 0.00 135.00 Z"/>
</g>
<g fill="None" fill-opacity="0.0" stroke="#FFFFFF" stroke-opacity="0.55" stroke-width="0.3"><path d="
M 126.00 1.00 
C 130.18 0.92 135.65 1.88 139.00 0.00
L 126.00 0.00
C 126.00 0.00 125.99 1.00 126.00 1.00 Z"/>
</g>
<g fill="None" fill-opacity="0.0" stroke="#FFFFFF" stroke-opacity="0.96" stroke-width="0.3"><path d="
M 126.00 1.00 
C 61.28 2.29 1.00 71.99 1.00 135.00
C 1.00 138.17 1.80 142.65 0.00 145.00
L 0.00 162.00
C 1.52 163.96 1.72 169.11 0.00 171.00
L 0.00 172.00
C 3.11 198.25 14.77 228.76 29.30 250.70 C 43.84 272.63 59.68 291.40 78.25 309.75 C 96.82 328.10 115.11 345.52 134.70 361.30 C 154.28 377.09 172.52 397.65 192.75 411.25 C 212.97 424.86 230.36 456.14 256.00 456.00 C 281.64 455.86 299.17 425.24 319.25 411.25 C 339.33 397.26 358.11 377.52 377.70 361.70 C 397.29 345.88 415.01 327.79 433.75 309.75 C 452.49 291.71 468.06 272.49 482.75 250.75 C 497.45 229.02 508.72 198.05 512.00 172.00
L 512.00 171.00
C 510.48 169.04 510.28 163.89 512.00 162.00
L 512.00 145.00
C 510.26 142.57 511.00 138.18 511.00 135.00
C 511.00 68.60 450.04 6.60 386.00 0.00
L 362.00 0.00
C 359.56 1.83 355.20 0.88 352.00 1.00
C 313.82 2.46 278.95 29.77 257.00 60.00
C 232.84 30.00 198.51 4.68 160.00 0.00
L 159.00 0.00
C 157.04 1.52 151.89 1.72 150.00 0.00
L 139.00 0.00
C 135.65 1.88 130.18 0.92 126.00 1.00
M 145.00 30.00 
C 159.93 30.26 174.80 35.43 188.23 41.77 C 201.66 48.11 208.80 56.08 219.75 66.25 C 230.70 76.42 232.27 86.28 243.75 97.25 C 255.23 108.22 272.90 95.46 278.30 83.30 C 283.71 71.15 294.66 63.76 304.25 54.25 C 313.84 44.74 327.52 39.34 340.68 34.68 C 353.84 30.02 375.57 29.55 389.67 32.33 C 403.77 35.11 416.95 40.41 428.75 48.25 C 440.54 56.10 448.72 64.30 457.25 75.75 C 465.79 87.19 470.62 98.74 475.32 112.68 C 480.02 126.61 481.69 145.91 481.00 161.00 C 480.31 176.09 476.72 192.84 471.07 206.07 C 465.42 219.30 458.75 230.49 450.75 241.75 C 442.74 253.00 434.97 262.73 425.75 272.75 C 416.53 282.77 407.76 290.84 398.25 300.25 C 388.73 309.66 379.04 318.50 369.25 327.25 C 359.46 335.99 349.69 344.42 339.75 352.75 C 329.81 361.08 319.61 370.61 309.75 378.75 C 299.89 386.89 289.48 396.15 279.77 403.77 C 270.06 411.39 259.59 428.43 249.25 418.75 C 238.91 409.08 229.28 402.00 219.25 392.75 C 209.22 383.50 199.29 376.55 189.30 367.70 C 179.32 358.84 169.25 350.34 159.25 341.75 C 149.24 333.17 140.01 324.65 130.25 315.75 C 120.49 306.86 110.89 297.86 101.30 288.70 C 91.72 279.53 84.05 269.98 75.23 259.77 C 66.41 249.56 58.94 239.20 51.70 227.30 C 44.45 215.40 38.71 201.98 35.02 187.98 C 31.34 173.97 29.60 153.96 31.00 139.00 C 32.40 124.04 37.22 108.39 43.31 95.31 C 49.39 82.22 55.54 72.92 65.75 62.75 C 75.96 52.58 85.48 45.42 98.69 39.69 C 111.91 33.97 129.94 29.74 145.00 30.00 Z"/>
</g>
<g fill="None" fill-opacity="0.0" stroke="#FFFFFF" stroke-opacity="0.48" stroke-width="0.3"><path d="
M 159.00 0.00 
L 150.00 0.00
C 151.89 1.72 157.04 1.52 159.00 0.00 Z"/>
</g>
<g fill="None" fill-opacity="0.0" stroke="#000000" stroke-opacity="0.00" stroke-width="0.3"><path d="
M 352.00 1.00 
C 351.98 1.00 352.00 0.00 352.00 0.00
L 160.00 0.00
C 198.51 4.68 232.84 30.00 257.00 60.00
C 278.95 29.77 313.82 2.46 352.00 1.00 Z"/>
</g>
<g fill="None" fill-opacity="0.0" stroke="#FFFFFF" stroke-opacity="0.43" stroke-width="0.3"><path d="
M 352.00 1.00 
C 355.20 0.88 359.56 1.83 362.00 0.00
L 352.00 0.00
C 352.00 0.00 351.98 1.00 352.00 1.00 Z"/>
</g>
<g fill="None" fill-opacity="0.0" stroke="#000000" stroke-opacity="0.00" stroke-width="0.3"><path d="
M 511.00 135.00 
C 511.00 134.96 512.00 135.00 512.00 135.00
L 512.00 0.00
L 386.00 0.00
C 450.04 6.60 511.00 68.60 511.00 135.00 Z"/>
</g>
<g fill="None" fill-opacity="0.0" stroke="#000000" stroke-opacity="0.00" stroke-width="0.3"><path d="
M 145.00 30.00 
C 129.94 29.74 111.91 33.97 98.69 39.69 C 85.48 45.42 75.96 52.58 65.75 62.75 C 55.54 72.92 49.39 82.22 43.31 95.31 C 37.22 108.39 32.40 124.04 31.00 139.00 C 29.60 153.96 31.34 173.97 35.02 187.98 C 38.71 201.98 44.45 215.40 51.70 227.30 C 58.94 239.20 66.41 249.56 75.23 259.77 C 84.05 269.98 91.72 279.53 101.30 288.70 C 110.89 297.86 120.49 306.86 130.25 315.75 C 140.01 324.65 149.24 333.17 159.25 341.75 C 169.25 350.34 179.32 358.84 189.30 367.70 C 199.29 376.55 209.22 383.50 219.25 392.75 C 229.28 402.00 238.91 409.08 249.25 418.75 C 259.59 428.43 270.06 411.39 279.77 403.77 C 289.48 396.15 299.89 386.89 309.75 378.75 C 319.61 370.61 329.81 361.08 339.75 352.75 C 349.69 344.42 359.46 335.99 369.25 327.25 C 379.04 318.50 388.73 309.66 398.25 300.25 C 407.76 290.84 416.53 282.77 425.75 272.75 C 434.97 262.73 442.74 253.00 450.75 241.75 C 458.75 230.49 465.42 219.30 471.07 206.07 C 476.72 192.84 480.31 176.09 481.00 161.00 C 481.69 145.91 480.02 126.61 475.32 112.68 C 470.62 98.74 465.79 87.19 457.25 75.75 C 448.72 64.30 440.54 56.10 428.75 48.25 C 416.95 40.41 403.77 35.11 389.67 32.33 C 375.57 29.55 353.84 30.02 340.68 34.68 C 327.52 39.34 313.84 44.74 304.25 54.25 C 294.66 63.76 283.71 71.15 278.30 83.30 C 272.90 95.46 255.23 108.22 243.75 97.25 C 232.27 86.28 230.70 76.42 219.75 66.25 C 208.80 56.08 201.66 48.11 188.23 41.77 C 174.80 35.43 159.93 30.26 145.00 30.00 Z"/>
</g>
<g fill="None" fill-opacity="0.0" stroke="#FFFFFF" stroke-opacity="0.42" stroke-width="0.3"><path d="
M 0.00 145.00 
C 1.80 142.65 1.00 138.17 1.00 135.00
C 1.00 135.00 0.50 135.00 0.00 135.00
L 0.00 145.00 Z"/>
</g>
<g fill="None" fill-opacity="0.0" stroke="#FFFFFF" stroke-opacity="0.42" stroke-width="0.3"><path d="
M 512.00 145.00 
L 512.00 135.00
C 512.00 135.00 511.00 134.96 511.00 135.00
C 511.00 138.18 510.26 142.57 512.00 145.00 Z"/>
</g>
<g fill="None" fill-opacity="0.0" stroke="#FFFFFF" stroke-opacity="0.49" stroke-width="0.3"><path d="
M 0.00 171.00 
C 1.72 169.11 1.52 163.96 0.00 162.00
L 0.00 171.00 Z"/>
</g>
<g fill="None" fill-opacity="0.0" stroke="#FFFFFF" stroke-opacity="0.47" stroke-width="0.3"><path d="
M 512.00 171.00 
L 512.00 162.00
C 510.28 163.89 510.48 169.04 512.00 171.00 Z"/>
</g>
<g fill="None" fill-opacity="0.0" stroke="#000000" stroke-opacity="0.00" stroke-width="0.3"><path d="
M 0.00 512.00 
L 512.00 512.00
L 512.00 172.00
C 508.72 198.05 497.45 229.02 482.75 250.75 C 468.06 272.49 452.49 291.71 433.75 309.75 C 415.01 327.79 397.29 345.88 377.70 361.70 C 358.11 377.52 339.33 397.26 319.25 411.25 C 299.17 425.24 281.64 455.86 256.00 456.00 C 230.36 456.14 212.97 424.86 192.75 411.25 C 172.52 397.65 154.28 377.09 134.70 361.30 C 115.11 345.52 96.82 328.10 78.25 309.75 C 59.68 291.40 43.84 272.63 29.30 250.70 C 14.77 228.76 3.11 198.25 0.00 172.00
L 0.00 512.00 Z"/>
</g>
<g fill="#000000" fill-opacity="0.00" stroke="None">
<path d="
M 0.00 135.00 
C 0.50 135.00 1.00 135.00 1.00 135.00
C 1.00 71.99 61.28 2.29 126.00 1.00
C 125.99 1.00 126.00 0.00 126.00 0.00
L 0.00 0.00
L 0.00 135.00 Z"/>
</g>
<g fill="#FFFFFF" fill-opacity="0.55" stroke="None">
<path d="
M 126.00 1.00 
C 130.18 0.92 135.65 1.88 139.00 0.00
L 126.00 0.00
C 126.00 0.00 125.99 1.00 126.00 1.00 Z"/>
</g>
<g fill="#FFFFFF" fill-opacity="0.96" stroke="None">
<path d="
M 126.00 1.00 
C 61.28 2.29 1.00 71.99 1.00 135.00
C 1.00 138.17 1.80 142.65 0.00 145.00
L 0.00 162.00
C 1.52 163.96 1.72 169.11 0.00 171.00
L 0.00 172.00
C 3.11 198.25 14.77 228.76 29.30 250.70 C 43.84 272.63 59.68 291.40 78.25 309.75 C 96.82 328.10 115.11 345.52 134.70 361.30 C 154.28 377.09 172.52 397.65 192.75 411.25 C 212.97 424.86 230.36 456.14 256.00 456.00 C 281.64 455.86 299.17 425.24 319.25 411.25 C 339.33 397.26 358.11 377.52 377.70 361.70 C 397.29 345.88 415.01 327.79 433.75 309.75 C 452.49 291.71 468.06 272.49 482.75 250.75 C 497.45 229.02 508.72 198.05 512.00 172.00
L 512.00 171.00
C 510.48 169.04 510.28 163.89 512.00 162.00
L 512.00 145.00
C 510.26 142.57 511.00 138.18 511.00 135.00
C 511.00 68.60 450.04 6.60 386.00 0.00
L 362.00 0.00
C 359.56 1.83 355.20 0.88 352.00 1.00
C 313.82 2.46 278.95 29.77 257.00 60.00
C 232.84 30.00 198.51 4.68 160.00 0.00
L 159.00 0.00
C 157.04 1.52 151.89 1.72 150.00 0.00
L 139.00 0.00
C 135.65 1.88 130.18 0.92 126.00 1.00
M 145.00 30.00 
C 159.93 30.26 174.80 35.43 188.23 41.77 C 201.66 48.11 208.80 56.08 219.75 66.25 C 230.70 76.42 232.27 86.28 243.75 97.25 C 255.23 108.22 272.90 95.46 278.30 83.30 C 283.71 71.15 294.66 63.76 304.25 54.25 C 313.84 44.74 327.52 39.34 340.68 34.68 C 353.84 30.02 375.57 29.55 389.67 32.33 C 403.77 35.11 416.95 40.41 428.75 48.25 C 440.54 56.10 448.72 64.30 457.25 75.75 C 465.79 87.19 470.62 98.74 475.32 112.68 C 480.02 126.61 481.69 145.91 481.00 161.00 C 480.31 176.09 476.72 192.84 471.07 206.07 C 465.42 219.30 458.75 230.49 450.75 241.75 C 442.74 253.00 434.97 262.73 425.75 272.75 C 416.53 282.77 407.76 290.84 398.25 300.25 C 388.73 309.66 379.04 318.50 369.25 327.25 C 359.46 335.99 349.69 344.42 339.75 352.75 C 329.81 361.08 319.61 370.61 309.75 378.75 C 299.89 386.89 289.48 396.15 279.77 403.77 C 270.06 411.39 259.59 428.43 249.25 418.75 C 238.91 409.08 229.28 402.00 219.25 392.75 C 209.22 383.50 199.29 376.55 189.30 367.70 C 179.32 358.84 169.25 350.34 159.25 341.75 C 149.24 333.17 140.01 324.65 130.25 315.75 C 120.49 306.86 110.89 297.86 101.30 288.70 C 91.72 279.53 84.05 269.98 75.23 259.77 C 66.41 249.56 58.94 239.20 51.70 227.30 C 44.45 215.40 38.71 201.98 35.02 187.98 C 31.34 173.97 29.60 153.96 31.00 139.00 C 32.40 124.04 37.22 108.39 43.31 95.31 C 49.39 82.22 55.54 72.92 65.75 62.75 C 75.96 52.58 85.48 45.42 98.69 39.69 C 111.91 33.97 129.94 29.74 145.00 30.00 Z"/>
</g>
<g fill="#FFFFFF" fill-opacity="0.48" stroke="None">
<path d="
M 159.00 0.00 
L 150.00 0.00
C 151.89 1.72 157.04 1.52 159.00 0.00 Z"/>
</g>
<g fill="#000000" fill-opacity="0.00" stroke="None">
<path d="
M 352.00 1.00 
C 351.98 1.00 352.00 0.00 352.00 0.00
L 160.00 0.00
C 198.51 4.68 232.84 30.00 257.00 60.00
C 278.95 29.77 313.82 2.46 352.00 1.00 Z"/>
</g>
<g fill="#FFFFFF" fill-opacity="0.43" stroke="None">
<path d="
M 352.00 1.00 
C 355.20 0.88 359.56 1.83 362.00 0.00
L 352.00 0.00
C 352.00 0.00 351.98 1.00 352.00 1.00 Z"/>
</g>
<g fill="#000000" fill-opacity="0.00" stroke="None">
<path d="
M 511.00 135.00 
C 511.00 134.96 512.00 135.00 512.00 135.00
L 512.00 0.00
L 386.00 0.00
C 450.04 6.60 511.00 68.60 511.00 135.00 Z"/>
</g>
<g fill="#000000" fill-opacity="0.00" stroke="None">
<path d="
M 145.00 30.00 
C 129.94 29.74 111.91 33.97 98.69 39.69 C 85.48 45.42 75.96 52.58 65.75 62.75 C 55.54 72.92 49.39 82.22 43.31 95.31 C 37.22 108.39 32.40 124.04 31.00 139.00 C 29.60 153.96 31.34 173.97 35.02 187.98 C 38.71 201.98 44.45 215.40 51.70 227.30 C 58.94 239.20 66.41 249.56 75.23 259.77 C 84.05 269.98 91.72 279.53 101.30 288.70 C 110.89 297.86 120.49 306.86 130.25 315.75 C 140.01 324.65 149.24 333.17 159.25 341.75 C 169.25 350.34 179.32 358.84 189.30 367.70 C 199.29 376.55 209.22 383.50 219.25 392.75 C 229.28 402.00 238.91 409.08 249.25 418.75 C 259.59 428.43 270.06 411.39 279.77 403.77 C 289.48 396.15 299.89 386.89 309.75 378.75 C 319.61 370.61 329.81 361.08 339.75 352.75 C 349.69 344.42 359.46 335.99 369.25 327.25 C 379.04 318.50 388.73 309.66 398.25 300.25 C 407.76 290.84 416.53 282.77 425.75 272.75 C 434.97 262.73 442.74 253.00 450.75 241.75 C 458.75 230.49 465.42 219.30 471.07 206.07 C 476.72 192.84 480.31 176.09 481.00 161.00 C 481.69 145.91 480.02 126.61 475.32 112.68 C 470.62 98.74 465.79 87.19 457.25 75.75 C 448.72 64.30 440.54 56.10 428.75 48.25 C 416.95 40.41 403.77 35.11 389.67 32.33 C 375.57 29.55 353.84 30.02 340.68 34.68 C 327.52 39.34 313.84 44.74 304.25 54.25 C 294.66 63.76 283.71 71.15 278.30 83.30 C 272.90 95.46 255.23 108.22 243.75 97.25 C 232.27 86.28 230.70 76.42 219.75 66.25 C 208.80 56.08 201.66 48.11 188.23 41.77 C 174.80 35.43 159.93 30.26 145.00 30.00 Z"/>
</g>
<g fill="#FFFFFF" fill-opacity="0.42" stroke="None">
<path d="
M 0.00 145.00 
C 1.80 142.65 1.00 138.17 1.00 135.00
C 1.00 135.00 0.50 135.00 0.00 135.00
L 0.00 145.00 Z"/>
</g>
<g fill="#FFFFFF" fill-opacity="0.42" stroke="None">
<path d="
M 512.00 145.00 
L 512.00 135.00
C 512.00 135.00 511.00 134.96 511.00 135.00
C 511.00 138.18 510.26 142.57 512.00 145.00 Z"/>
</g>
<g fill="#FFFFFF" fill-opacity="0.49" stroke="None">
<path d="
M 0.00 171.00 
C 1.72 169.11 1.52 163.96 0.00 162.00
L 0.00 171.00 Z"/>
</g>
<g fill="#FFFFFF" fill-opacity="0.47" stroke="None">
<path d="
M 512.00 171.00 
L 512.00 162.00
C 510.28 163.89 510.48 169.04 512.00 171.00 Z"/>
</g>
<g fill="#000000" fill-opacity="0.00" stroke="None">
<path d="
M 0.00 512.00 
L 512.00 512.00
L 512.00 172.00
C 508.72 198.05 497.45 229.02 482.75 250.75 C 468.06 272.49 452.49 291.71 433.75 309.75 C 415.01 327.79 397.29 345.88 377.70 361.70 C 358.11 377.52 339.33 397.26 319.25 411.25 C 299.17 425.24 281.64 455.86 256.00 456.00 C 230.36 456.14 212.97 424.86 192.75 411.25 C 172.52 397.65 154.28 377.09 134.70 361.30 C 115.11 345.52 96.82 328.10 78.25 309.75 C 59.68 291.40 43.84 272.63 29.30 250.70 C 14.77 228.76 3.11 198.25 0.00 172.00
L 0.00 512.00 Z"/>
</g>
</svg>