<svg xmlns="http://www.w3.org/2000/svg" xmlns:v="https://svgstorm.com"
viewBox = "0 0 512 512"
width="512"
height="512">
<g fill="None" fill-opacity="0.0" stroke="#000000" stroke-opacity="0.00" stroke-width="0.3"><path d="
M 0.00 512.00 
L 512.00 512.00
L 512.00 0.00
L 0.00 0.00
L 0.00 512.00
M 264.00 42.00 
C 286.85 44.21 310.29 55.09 327.70 70.30 C 345.11 85.52 360.33 97.45 377.75 112.25 C 395.17 127.05 410.57 138.42 428.25 153.75 C 445.93 169.08 462.14 182.94 466.93 208.07 C 471.71 233.21 470.04 269.48 470.00 297.00 C 469.96 324.52 470.88 361.50 469.22 388.22 C 467.56 414.94 456.99 430.98 438.75 449.75 C 420.51 468.52 390.56 469.32 366.00 470.00 C 341.44 470.68 309.68 469.70 301.08 442.92 C 292.47 416.15 300.98 380.39 298.00 354.00 C 295.02 327.61 277.27 308.02 249.93 311.93 C 222.59 315.83 213.36 343.05 214.00 369.00 C 214.64 394.95 219.78 429.33 205.25 452.25 C 190.71 475.16 155.54 470.08 131.00 470.00 C 106.46 469.92 82.66 461.63 65.75 442.25 C 48.84 422.87 41.66 401.01 42.00 374.00 C 42.34 346.99 42.00 309.33 42.00 282.00 C 42.00 254.67 39.95 220.46 48.92 196.92 C 57.90 173.39 73.68 161.60 91.75 146.75 C 109.82 131.91 124.53 119.87 142.25 105.25 C 159.96 90.62 174.46 78.12 192.75 63.75 C 211.04 49.37 238.67 39.55 263.00 42.00 Z"/>
</g>
<g fill="None" fill-opacity="0.0" stroke="#FFFFFF" stroke-opacity="1.00" stroke-width="0.3"><path d="
M 263.00 42.00 
C 238.67 39.55 211.04 49.37 192.75 63.75 C 174.46 78.12 159.96 90.62 142.25 105.25 C 124.53 119.87 109.82 131.91 91.75 146.75 C 73.68 161.60 57.90 173.39 48.92 196.92 C 39.95 220.46 42.00 254.67 42.00 282.00 C 42.00 309.33 42.34 346.99 42.00 374.00 C 41.66 401.01 48.84 422.87 65.75 442.25 C 82.66 461.63 106.46 469.92 131.00 470.00 C 155.54 470.08 190.71 475.16 205.25 452.25 C 219.78 429.33 214.64 394.95 214.00 369.00 C 213.36 343.05 222.59 315.83 249.93 311.93 C 277.27 308.02 295.02 327.61 298.00 354.00 C 300.98 380.39 292.47 416.15 301.08 442.92 C 309.68 469.70 341.44 470.68 366.00 470.00 C 390.56 469.32 420.51 468.52 438.75 449.75 C 456.99 430.98 467.56 414.94 469.22 388.22 C 470.88 361.50 469.96 324.52 470.00 297.00 C 470.04 269.48 471.71 233.21 466.93 208.07 C 462.14 182.94 445.93 169.08 428.25 153.75 C 410.57 138.42 395.17 127.05 377.75 112.25 C 360.33 97.45 345.11 85.52 327.70 70.30 C 310.29 55.09 286.85 44.21 264.00 42.00 Z"/>
</g>
<g fill="#000000" fill-opacity="0.00" stroke="None">
<path d="
M 0.00 512.00 
L 512.00 512.00
L 512.00 0.00
L 0.00 0.00
L 0.00 512.00
M 264.00 42.00 
C 286.85 44.21 310.29 55.09 327.70 70.30 C 345.11 85.52 360.33 97.45 377.75 112.25 C 395.17 127.05 410.57 138.42 428.25 153.75 C 445.93 169.08 462.14 182.94 466.93 208.07 C 471.71 233.21 470.04 269.48 470.00 297.00 C 469.96 324.52 470.88 361.50 469.22 388.22 C 467.56 414.94 456.99 430.98 438.75 449.75 C 420.51 468.52 390.56 469.32 366.00 470.00 C 341.44 470.68 309.68 469.70 301.08 442.92 C 292.47 416.15 300.98 380.39 298.00 354.00 C 295.02 327.61 277.27 308.02 249.93 311.93 C 222.59 315.83 213.36 343.05 214.00 369.00 C 214.64 394.95 219.78 429.33 205.25 452.25 C 190.71 475.16 155.54 470.08 131.00 470.00 C 106.46 469.92 82.66 461.63 65.75 442.25 C 48.84 422.87 41.66 401.01 42.00 374.00 C 42.34 346.99 42.00 309.33 42.00 282.00 C 42.00 254.67 39.95 220.46 48.92 196.92 C 57.90 173.39 73.68 161.60 91.75 146.75 C 109.82 131.91 124.53 119.87 142.25 105.25 C 159.96 90.62 174.46 78.12 192.75 63.75 C 211.04 49.37 238.67 39.55 263.00 42.00 Z"/>
</g>
<g fill="#FFFFFF" fill-opacity="1.00" stroke="None">
<path d="
M 263.00 42.00 
C 238.67 39.55 211.04 49.37 192.75 63.75 C 174.46 78.12 159.96 90.62 142.25 105.25 C 124.53 119.87 109.82 131.91 91.75 146.75 C 73.68 161.60 57.90 173.39 48.92 196.92 C 39.95 220.46 42.00 254.67 42.00 282.00 C 42.00 309.33 42.34 346.99 42.00 374.00 C 41.66 401.01 48.84 422.87 65.75 442.25 C 82.66 461.63 106.46 469.92 131.00 470.00 C 155.54 470.08 190.71 475.16 205.25 452.25 C 219.78 429.33 214.64 394.95 214.00 369.00 C 213.36 343.05 222.59 315.83 249.93 311.93 C 277.27 308.02 295.02 327.61 298.00 354.00 C 300.98 380.39 292.47 416.15 301.08 442.92 C 309.68 469.70 341.44 470.68 366.00 470.00 C 390.56 469.32 420.51 468.52 438.75 449.75 C 456.99 430.98 467.56 414.94 469.22 388.22 C 470.88 361.50 469.96 324.52 470.00 297.00 C 470.04 269.48 471.71 233.21 466.93 208.07 C 462.14 182.94 445.93 169.08 428.25 153.75 C 410.57 138.42 395.17 127.05 377.75 112.25 C 360.33 97.45 345.11 85.52 327.70 70.30 C 310.29 55.09 286.85 44.21 264.00 42.00 Z"/>
</g>
</svg>