<svg xmlns="http://www.w3.org/2000/svg" xmlns:v="https://svgstorm.com"
viewBox = "0 0 512 512"
width="512"
height="512">
<g fill="None" fill-opacity="0.0" stroke="#000000" stroke-opacity="0.00" stroke-width="0.3"><path d="
M 0.00 512.00 
L 512.00 512.00
L 512.00 0.00
L 0.00 0.00
L 0.00 512.00
M 456.00 228.00 
C 465.31 235.11 467.34 250.00 455.77 256.77 C 444.20 263.54 433.58 248.86 423.92 256.92 C 414.26 264.98 403.38 267.61 391.98 270.98 C 380.58 274.34 364.51 278.40 352.00 276.00 C 339.49 273.60 331.87 283.40 323.25 291.25 C 314.63 299.10 307.05 305.19 298.75 312.75 C 290.46 320.32 282.37 326.81 274.25 334.25 C 266.13 341.69 258.38 347.98 250.25 355.25 C 242.13 362.53 233.99 369.65 225.77 376.77 C 217.55 383.89 209.73 391.52 201.30 398.30 C 192.87 405.08 185.64 413.36 177.25 420.25 C 168.85 427.14 161.52 433.80 153.25 441.25 C 144.98 448.70 137.17 454.79 128.75 462.75 C 120.33 470.72 110.76 476.54 98.99 478.99 C 87.22 481.45 70.74 479.85 60.31 473.70 C 49.87 467.54 44.01 461.33 38.08 450.92 C 32.14 440.52 30.26 423.67 32.98 411.98 C 35.69 400.28 41.95 391.21 49.75 382.75 C 57.56 374.30 63.84 366.53 71.25 358.25 C 78.65 349.96 85.16 342.56 92.25 334.25 C 99.35 325.95 107.17 318.36 113.92 309.92 C 120.67 301.47 128.87 294.08 135.75 285.75 C 142.63 277.43 150.03 269.39 157.25 261.25 C 164.47 253.11 170.74 245.33 178.25 237.25 C 185.75 229.16 191.95 220.94 199.75 212.75 C 207.55 204.57 212.95 196.69 221.25 188.25 C 229.54 179.81 238.32 171.25 236.22 158.78 C 234.12 146.31 237.54 130.41 240.98 118.98 C 244.41 107.54 247.84 97.21 255.31 87.30 C 262.77 77.40 247.76 68.26 254.26 56.26 C 260.75 44.26 277.09 45.72 284.00 56.00
C 331.40 19.59 402.57 25.01 444.75 67.25 C 486.93 109.48 492.12 180.49 456.00 228.00 Z"/>
</g>
<g fill="None" fill-opacity="0.0" stroke="#FFFFFF" stroke-opacity="0.96" stroke-width="0.3"><path d="
M 456.00 228.00 
C 492.12 180.49 486.93 109.48 444.75 67.25 C 402.57 25.01 331.40 19.59 284.00 56.00
C 277.09 45.72 260.75 44.26 254.26 56.26 C 247.76 68.26 262.77 77.40 255.31 87.30 C 247.84 97.21 244.41 107.54 240.98 118.98 C 237.54 130.41 234.12 146.31 236.22 158.78 C 238.32 171.25 229.54 179.81 221.25 188.25 C 212.95 196.69 207.55 204.57 199.75 212.75 C 191.95 220.94 185.75 229.16 178.25 237.25 C 170.74 245.33 164.47 253.11 157.25 261.25 C 150.03 269.39 142.63 277.43 135.75 285.75 C 128.87 294.08 120.67 301.47 113.92 309.92 C 107.17 318.36 99.35 325.95 92.25 334.25 C 85.16 342.56 78.65 349.96 71.25 358.25 C 63.84 366.53 57.56 374.30 49.75 382.75 C 41.95 391.21 35.69 400.28 32.98 411.98 C 30.26 423.67 32.14 440.52 38.08 450.92 C 44.01 461.33 49.87 467.54 60.31 473.70 C 70.74 479.85 87.22 481.45 98.99 478.99 C 110.76 476.54 120.33 470.72 128.75 462.75 C 137.17 454.79 144.98 448.70 153.25 441.25 C 161.52 433.80 168.85 427.14 177.25 420.25 C 185.64 413.36 192.87 405.08 201.30 398.30 C 209.73 391.52 217.55 383.89 225.77 376.77 C 233.99 369.65 242.13 362.53 250.25 355.25 C 258.38 347.98 266.13 341.69 274.25 334.25 C 282.37 326.81 290.46 320.32 298.75 312.75 C 307.05 305.19 314.63 299.10 323.25 291.25 C 331.87 283.40 339.49 273.60 352.00 276.00 C 364.51 278.40 380.58 274.34 391.98 270.98 C 403.38 267.61 414.26 264.98 423.92 256.92 C 433.58 248.86 444.20 263.54 455.77 256.77 C 467.34 250.00 465.31 235.11 456.00 228.00
M 432.00 203.00 
C 390.90 162.06 348.07 121.23 309.00 79.00
C 343.60 56.46 391.11 61.09 420.75 90.25 C 450.39 119.41 456.46 169.13 432.00 203.00
M 408.00 228.00 
C 393.65 237.58 379.07 240.10 362.00 243.00 C 344.92 245.89 334.12 230.83 323.25 219.75 C 312.37 208.67 303.63 200.32 292.75 189.25 C 281.87 178.17 266.56 168.13 269.00 151.00 C 271.44 133.87 274.22 118.36 284.00 104.00
C 325.67 144.84 367.21 186.38 408.00 228.00
M 257.00 200.00 
C 274.84 218.67 293.38 237.21 312.00 255.00
C 298.81 270.05 281.88 282.91 266.75 296.75 C 251.63 310.60 235.03 324.18 219.75 337.75 C 204.47 351.32 188.41 365.96 173.25 379.25 C 158.08 392.54 140.95 407.43 126.25 420.25 C 111.55 433.07 90.49 459.92 71.25 440.75 C 52.01 421.58 78.52 400.95 91.25 386.25 C 103.98 371.54 119.06 354.49 132.30 339.30 C 145.55 324.12 160.17 308.05 173.75 292.75 C 187.33 277.45 200.94 261.00 214.75 245.75 C 228.57 230.51 241.98 213.34 257.00 200.00 Z"/>
</g>
<g fill="None" fill-opacity="0.0" stroke="#000000" stroke-opacity="0.00" stroke-width="0.3"><path d="
M 432.00 203.00 
C 456.46 169.13 450.39 119.41 420.75 90.25 C 391.11 61.09 343.60 56.46 309.00 79.00
C 348.07 121.23 390.90 162.06 432.00 203.00 Z"/>
</g>
<g fill="None" fill-opacity="0.0" stroke="#000000" stroke-opacity="0.00" stroke-width="0.3"><path d="
M 408.00 228.00 
C 367.21 186.38 325.67 144.84 284.00 104.00
C 274.22 118.36 271.44 133.87 269.00 151.00 C 266.56 168.13 281.87 178.17 292.75 189.25 C 303.63 200.32 312.37 208.67 323.25 219.75 C 334.12 230.83 344.92 245.89 362.00 243.00 C 379.07 240.10 393.65 237.58 408.00 228.00 Z"/>
</g>
<g fill="None" fill-opacity="0.0" stroke="#000000" stroke-opacity="0.00" stroke-width="0.3"><path d="
M 257.00 200.00 
C 241.98 213.34 228.57 230.51 214.75 245.75 C 200.94 261.00 187.33 277.45 173.75 292.75 C 160.17 308.05 145.55 324.12 132.30 339.30 C 119.06 354.49 103.98 371.54 91.25 386.25 C 78.52 400.95 52.01 421.58 71.25 440.75 C 90.49 459.92 111.55 433.07 126.25 420.25 C 140.95 407.43 158.08 392.54 173.25 379.25 C 188.41 365.96 204.47 351.32 219.75 337.75 C 235.03 324.18 251.63 310.60 266.75 296.75 C 281.88 282.91 298.81 270.05 312.00 255.00
C 293.38 237.21 274.84 218.67 257.00 200.00 Z"/>
</g>
<g fill="#000000" fill-opacity="0.00" stroke="None">
<path d="
M 0.00 512.00 
L 512.00 512.00
L 512.00 0.00
L 0.00 0.00
L 0.00 512.00
M 456.00 228.00 
C 465.31 235.11 467.34 250.00 455.77 256.77 C 444.20 263.54 433.58 248.86 423.92 256.92 C 414.26 264.98 403.38 267.61 391.98 270.98 C 380.58 274.34 364.51 278.40 352.00 276.00 C 339.49 273.60 331.87 283.40 323.25 291.25 C 314.63 299.10 307.05 305.19 298.75 312.75 C 290.46 320.32 282.37 326.81 274.25 334.25 C 266.13 341.69 258.38 347.98 250.25 355.25 C 242.13 362.53 233.99 369.65 225.77 376.77 C 217.55 383.89 209.73 391.52 201.30 398.30 C 192.87 405.08 185.64 413.36 177.25 420.25 C 168.85 427.14 161.52 433.80 153.25 441.25 C 144.98 448.70 137.17 454.79 128.75 462.75 C 120.33 470.72 110.76 476.54 98.99 478.99 C 87.22 481.45 70.74 479.85 60.31 473.70 C 49.87 467.54 44.01 461.33 38.08 450.92 C 32.14 440.52 30.26 423.67 32.98 411.98 C 35.69 400.28 41.95 391.21 49.75 382.75 C 57.56 374.30 63.84 366.53 71.25 358.25 C 78.65 349.96 85.16 342.56 92.25 334.25 C 99.35 325.95 107.17 318.36 113.92 309.92 C 120.67 301.47 128.87 294.08 135.75 285.75 C 142.63 277.43 150.03 269.39 157.25 261.25 C 164.47 253.11 170.74 245.33 178.25 237.25 C 185.75 229.16 191.95 220.94 199.75 212.75 C 207.55 204.57 212.95 196.69 221.25 188.25 C 229.54 179.81 238.32 171.25 236.22 158.78 C 234.12 146.31 237.54 130.41 240.98 118.98 C 244.41 107.54 247.84 97.21 255.31 87.30 C 262.77 77.40 247.76 68.26 254.26 56.26 C 260.75 44.26 277.09 45.72 284.00 56.00
C 331.40 19.59 402.57 25.01 444.75 67.25 C 486.93 109.48 492.12 180.49 456.00 228.00 Z"/>
</g>
<g fill="#FFFFFF" fill-opacity="0.96" stroke="None">
<path d="
M 456.00 228.00 
C 492.12 180.49 486.93 109.48 444.75 67.25 C 402.57 25.01 331.40 19.59 284.00 56.00
C 277.09 45.72 260.75 44.26 254.26 56.26 C 247.76 68.26 262.77 77.40 255.31 87.30 C 247.84 97.21 244.41 107.54 240.98 118.98 C 237.54 130.41 234.12 146.31 236.22 158.78 C 238.32 171.25 229.54 179.81 221.25 188.25 C 212.95 196.69 207.55 204.57 199.75 212.75 C 191.95 220.94 185.75 229.16 178.25 237.25 C 170.74 245.33 164.47 253.11 157.25 261.25 C 150.03 269.39 142.63 277.43 135.75 285.75 C 128.87 294.08 120.67 301.47 113.92 309.92 C 107.17 318.36 99.35 325.95 92.25 334.25 C 85.16 342.56 78.65 349.96 71.25 358.25 C 63.84 366.53 57.56 374.30 49.75 382.75 C 41.95 391.21 35.69 400.28 32.98 411.98 C 30.26 423.67 32.14 440.52 38.08 450.92 C 44.01 461.33 49.87 467.54 60.31 473.70 C 70.74 479.85 87.22 481.45 98.99 478.99 C 110.76 476.54 120.33 470.72 128.75 462.75 C 137.17 454.79 144.98 448.70 153.25 441.25 C 161.52 433.80 168.85 427.14 177.25 420.25 C 185.64 413.36 192.87 405.08 201.30 398.30 C 209.73 391.52 217.55 383.89 225.77 376.77 C 233.99 369.65 242.13 362.53 250.25 355.25 C 258.38 347.98 266.13 341.69 274.25 334.25 C 282.37 326.81 290.46 320.32 298.75 312.75 C 307.05 305.19 314.63 299.10 323.25 291.25 C 331.87 283.40 339.49 273.60 352.00 276.00 C 364.51 278.40 380.58 274.34 391.98 270.98 C 403.38 267.61 414.26 264.98 423.92 256.92 C 433.58 248.86 444.20 263.54 455.77 256.77 C 467.34 250.00 465.31 235.11 456.00 228.00
M 432.00 203.00 
C 390.90 162.06 348.07 121.23 309.00 79.00
C 343.60 56.46 391.11 61.09 420.75 90.25 C 450.39 119.41 456.46 169.13 432.00 203.00
M 408.00 228.00 
C 393.65 237.58 379.07 240.10 362.00 243.00 C 344.92 245.89 334.12 230.83 323.25 219.75 C 312.37 208.67 303.63 200.32 292.75 189.25 C 281.87 178.17 266.56 168.13 269.00 151.00 C 271.44 133.87 274.22 118.36 284.00 104.00
C 325.67 144.84 367.21 186.38 408.00 228.00
M 257.00 200.00 
C 274.84 218.67 293.38 237.21 312.00 255.00
C 298.81 270.05 281.88 282.91 266.75 296.75 C 251.63 310.60 235.03 324.18 219.75 337.75 C 204.47 351.32 188.41 365.96 173.25 379.25 C 158.08 392.54 140.95 407.43 126.25 420.25 C 111.55 433.07 90.49 459.92 71.25 440.75 C 52.01 421.58 78.52 400.95 91.25 386.25 C 103.98 371.54 119.06 354.49 132.30 339.30 C 145.55 324.12 160.17 308.05 173.75 292.75 C 187.33 277.45 200.94 261.00 214.75 245.75 C 228.57 230.51 241.98 213.34 257.00 200.00 Z"/>
</g>
<g fill="#000000" fill-opacity="0.00" stroke="None">
<path d="
M 432.00 203.00 
C 456.46 169.13 450.39 119.41 420.75 90.25 C 391.11 61.09 343.60 56.46 309.00 79.00
C 348.07 121.23 390.90 162.06 432.00 203.00 Z"/>
</g>
<g fill="#000000" fill-opacity="0.00" stroke="None">
<path d="
M 408.00 228.00 
C 367.21 186.38 325.67 144.84 284.00 104.00
C 274.22 118.36 271.44 133.87 269.00 151.00 C 266.56 168.13 281.87 178.17 292.75 189.25 C 303.63 200.32 312.37 208.67 323.25 219.75 C 334.12 230.83 344.92 245.89 362.00 243.00 C 379.07 240.10 393.65 237.58 408.00 228.00 Z"/>
</g>
<g fill="#000000" fill-opacity="0.00" stroke="None">
<path d="
M 257.00 200.00 
C 241.98 213.34 228.57 230.51 214.75 245.75 C 200.94 261.00 187.33 277.45 173.75 292.75 C 160.17 308.05 145.55 324.12 132.30 339.30 C 119.06 354.49 103.98 371.54 91.25 386.25 C 78.52 400.95 52.01 421.58 71.25 440.75 C 90.49 459.92 111.55 433.07 126.25 420.25 C 140.95 407.43 158.08 392.54 173.25 379.25 C 188.41 365.96 204.47 351.32 219.75 337.75 C 235.03 324.18 251.63 310.60 266.75 296.75 C 281.88 282.91 298.81 270.05 312.00 255.00
C 293.38 237.21 274.84 218.67 257.00 200.00 Z"/>
</g>
</svg>