<svg xmlns="http://www.w3.org/2000/svg" xmlns:v="https://svgstorm.com"
viewBox = "0 0 512 512"
width="512"
height="512">
<g fill="None" fill-opacity="0.0" stroke="#000000" stroke-opacity="0.00" stroke-width="0.3"><path d="
M 0.00 512.00 
L 512.00 512.00
L 512.00 0.00
L 0.00 0.00
L 0.00 512.00
M 170.00 32.00 
C 192.38 35.63 208.43 55.55 208.00 80.00 C 207.57 104.45 208.09 139.49 208.00 166.00 C 207.91 192.51 207.80 224.87 208.00 252.00 C 208.20 279.13 207.39 311.28 208.00 338.00 C 208.61 364.72 206.57 398.99 208.00 424.00 C 209.43 449.01 199.52 471.21 175.93 477.93 C 152.34 484.64 124.13 483.31 107.25 463.75 C 90.37 444.19 96.60 415.37 96.00 389.00 C 95.40 362.63 96.09 330.35 96.00 303.00 C 95.91 275.65 95.65 244.47 96.00 217.00 C 96.35 189.53 94.98 157.78 96.00 131.00 C 97.02 104.22 90.42 74.88 103.77 52.77 C 117.12 30.66 146.60 28.20 170.00 32.00
M 378.00 32.00 
C 400.38 35.63 416.43 55.55 416.00 80.00 C 415.57 104.45 416.09 139.49 416.00 166.00 C 415.91 192.51 415.80 224.87 416.00 252.00 C 416.20 279.13 415.39 311.28 416.00 338.00 C 416.61 364.72 414.57 398.99 416.00 424.00 C 417.43 449.01 407.52 471.21 383.93 477.93 C 360.33 484.64 332.13 483.31 315.25 463.75 C 298.37 444.19 304.59 415.37 304.00 389.00 C 303.41 362.63 304.09 330.35 304.00 303.00 C 303.91 275.65 303.65 244.47 304.00 217.00 C 304.35 189.53 302.98 157.78 304.00 131.00 C 305.02 104.22 298.42 74.88 311.77 52.77 C 325.12 30.66 354.60 28.20 378.00 32.00 Z"/>
</g>
<g fill="None" fill-opacity="0.0" stroke="#FFFFFF" stroke-opacity="1.00" stroke-width="0.3"><path d="
M 170.00 32.00 
C 146.60 28.20 117.12 30.66 103.77 52.77 C 90.42 74.88 97.02 104.22 96.00 131.00 C 94.98 157.78 96.35 189.53 96.00 217.00 C 95.65 244.47 95.91 275.65 96.00 303.00 C 96.09 330.35 95.40 362.63 96.00 389.00 C 96.60 415.37 90.37 444.19 107.25 463.75 C 124.13 483.31 152.34 484.64 175.93 477.93 C 199.52 471.21 209.43 449.01 208.00 424.00 C 206.57 398.99 208.61 364.72 208.00 338.00 C 207.39 311.28 208.20 279.13 208.00 252.00 C 207.80 224.87 207.91 192.51 208.00 166.00 C 208.09 139.49 207.57 104.45 208.00 80.00 C 208.43 55.55 192.38 35.63 170.00 32.00 Z"/>
</g>
<g fill="None" fill-opacity="0.0" stroke="#FFFFFF" stroke-opacity="1.00" stroke-width="0.3"><path d="
M 378.00 32.00 
C 354.60 28.20 325.12 30.66 311.77 52.77 C 298.42 74.88 305.02 104.22 304.00 131.00 C 302.98 157.78 304.35 189.53 304.00 217.00 C 303.65 244.47 303.91 275.65 304.00 303.00 C 304.09 330.35 303.41 362.63 304.00 389.00 C 304.59 415.37 298.37 444.19 315.25 463.75 C 332.13 483.31 360.33 484.64 383.93 477.93 C 407.52 471.21 417.43 449.01 416.00 424.00 C 414.57 398.99 416.61 364.72 416.00 338.00 C 415.39 311.28 416.20 279.13 416.00 252.00 C 415.80 224.87 415.91 192.51 416.00 166.00 C 416.09 139.49 415.57 104.45 416.00 80.00 C 416.43 55.55 400.38 35.63 378.00 32.00 Z"/>
</g>
<g fill="#000000" fill-opacity="0.00" stroke="None">
<path d="
M 0.00 512.00 
L 512.00 512.00
L 512.00 0.00
L 0.00 0.00
L 0.00 512.00
M 170.00 32.00 
C 192.38 35.63 208.43 55.55 208.00 80.00 C 207.57 104.45 208.09 139.49 208.00 166.00 C 207.91 192.51 207.80 224.87 208.00 252.00 C 208.20 279.13 207.39 311.28 208.00 338.00 C 208.61 364.72 206.57 398.99 208.00 424.00 C 209.43 449.01 199.52 471.21 175.93 477.93 C 152.34 484.64 124.13 483.31 107.25 463.75 C 90.37 444.19 96.60 415.37 96.00 389.00 C 95.40 362.63 96.09 330.35 96.00 303.00 C 95.91 275.65 95.65 244.47 96.00 217.00 C 96.35 189.53 94.98 157.78 96.00 131.00 C 97.02 104.22 90.42 74.88 103.77 52.77 C 117.12 30.66 146.60 28.20 170.00 32.00
M 378.00 32.00 
C 400.38 35.63 416.43 55.55 416.00 80.00 C 415.57 104.45 416.09 139.49 416.00 166.00 C 415.91 192.51 415.80 224.87 416.00 252.00 C 416.20 279.13 415.39 311.28 416.00 338.00 C 416.61 364.72 414.57 398.99 416.00 424.00 C 417.43 449.01 407.52 471.21 383.93 477.93 C 360.33 484.64 332.13 483.31 315.25 463.75 C 298.37 444.19 304.59 415.37 304.00 389.00 C 303.41 362.63 304.09 330.35 304.00 303.00 C 303.91 275.65 303.65 244.47 304.00 217.00 C 304.35 189.53 302.98 157.78 304.00 131.00 C 305.02 104.22 298.42 74.88 311.77 52.77 C 325.12 30.66 354.60 28.20 378.00 32.00 Z"/>
</g>
<g fill="#FFFFFF" fill-opacity="1.00" stroke="None">
<path d="
M 170.00 32.00 
C 146.60 28.20 117.12 30.66 103.77 52.77 C 90.42 74.88 97.02 104.22 96.00 131.00 C 94.98 157.78 96.35 189.53 96.00 217.00 C 95.65 244.47 95.91 275.65 96.00 303.00 C 96.09 330.35 95.40 362.63 96.00 389.00 C 96.60 415.37 90.37 444.19 107.25 463.75 C 124.13 483.31 152.34 484.64 175.93 477.93 C 199.52 471.21 209.43 449.01 208.00 424.00 C 206.57 398.99 208.61 364.72 208.00 338.00 C 207.39 311.28 208.20 279.13 208.00 252.00 C 207.80 224.87 207.91 192.51 208.00 166.00 C 208.09 139.49 207.57 104.45 208.00 80.00 C 208.43 55.55 192.38 35.63 170.00 32.00 Z"/>
</g>
<g fill="#FFFFFF" fill-opacity="1.00" stroke="None">
<path d="
M 378.00 32.00 
C 354.60 28.20 325.12 30.66 311.77 52.77 C 298.42 74.88 305.02 104.22 304.00 131.00 C 302.98 157.78 304.35 189.53 304.00 217.00 C 303.65 244.47 303.91 275.65 304.00 303.00 C 304.09 330.35 303.41 362.63 304.00 389.00 C 304.59 415.37 298.37 444.19 315.25 463.75 C 332.13 483.31 360.33 484.64 383.93 477.93 C 407.52 471.21 417.43 449.01 416.00 424.00 C 414.57 398.99 416.61 364.72 416.00 338.00 C 415.39 311.28 416.20 279.13 416.00 252.00 C 415.80 224.87 415.91 192.51 416.00 166.00 C 416.09 139.49 415.57 104.45 416.00 80.00 C 416.43 55.55 400.38 35.63 378.00 32.00 Z"/>
</g>
</svg>