<svg xmlns="http://www.w3.org/2000/svg" xmlns:v="https://svgstorm.com"
viewBox = "0 0 512 512"
width="512"
height="512">
<g fill="None" fill-opacity="0.0" stroke="#000000" stroke-opacity="0.00" stroke-width="0.3"><path d="
M 0.00 512.00 
L 62.00 512.00
C 62.00 511.50 62.00 511.00 62.00 511.00
C 42.52 509.14 30.63 492.50 27.02 472.98 C 23.42 453.45 25.31 424.36 25.00 402.00 C 24.69 379.64 25.11 352.30 25.00 329.00 C 24.89 305.70 25.00 279.54 25.00 256.00 C 25.00 232.46 24.87 206.25 25.00 183.00 C 25.13 159.75 24.67 132.24 25.00 110.00 C 25.33 87.76 23.39 58.24 26.98 38.98 C 30.56 19.71 42.64 2.32 62.00 1.00
C 62.06 0.99 62.00 0.00 62.00 0.00
L 0.00 0.00
L 0.00 512.00 Z"/>
</g>
<g fill="None" fill-opacity="0.0" stroke="#FFFFFF" stroke-opacity="0.64" stroke-width="0.3"><path d="
M 62.00 1.00 
C 64.87 0.80 68.96 1.94 71.00 0.00
L 62.00 0.00
C 62.00 0.00 62.06 0.99 62.00 1.00 Z"/>
</g>
<g fill="None" fill-opacity="0.0" stroke="#FFFFFF" stroke-opacity="1.00" stroke-width="0.3"><path d="
M 62.00 1.00 
C 42.64 2.32 30.56 19.71 26.98 38.98 C 23.39 58.24 25.33 87.76 25.00 110.00 C 24.67 132.24 25.13 159.75 25.00 183.00 C 24.87 206.25 25.00 232.46 25.00 256.00 C 25.00 279.54 24.89 305.70 25.00 329.00 C 25.11 352.30 24.69 379.64 25.00 402.00 C 25.31 424.36 23.42 453.45 27.02 472.98 C 30.63 492.50 42.52 509.14 62.00 511.00
C 63.91 511.18 66.91 510.15 68.00 512.00
L 76.00 512.00
C 76.74 510.61 80.32 510.35 81.00 512.00
L 82.00 512.00
C 116.24 501.06 146.10 479.27 178.08 462.08 C 210.05 444.88 238.99 425.64 271.23 408.23 C 303.47 390.82 331.63 372.42 364.70 354.70 C 397.77 336.98 422.95 319.02 458.08 301.08 C 493.22 283.14 493.91 229.52 458.75 211.25 C 423.60 192.97 398.40 175.57 365.30 157.70 C 332.21 139.82 304.23 121.55 271.92 104.08 C 239.62 86.60 210.76 67.59 178.75 50.25 C 146.75 32.90 116.22 11.13 82.00 0.00
L 81.00 0.00
C 80.26 1.39 76.68 1.65 76.00 0.00
L 71.00 0.00
C 68.96 1.94 64.87 0.80 62.00 1.00 Z"/>
</g>
<g fill="None" fill-opacity="0.0" stroke="#FFFFFF" stroke-opacity="0.54" stroke-width="0.3"><path d="
M 81.00 0.00 
L 76.00 0.00
C 76.68 1.65 80.26 1.39 81.00 0.00 Z"/>
</g>
<g fill="None" fill-opacity="0.0" stroke="#000000" stroke-opacity="0.00" stroke-width="0.3"><path d="
M 82.00 512.00 
L 512.00 512.00
L 512.00 0.00
L 82.00 0.00
C 116.22 11.13 146.75 32.90 178.75 50.25 C 210.76 67.59 239.62 86.60 271.92 104.08 C 304.23 121.55 332.21 139.82 365.30 157.70 C 398.40 175.57 423.60 192.97 458.75 211.25 C 493.91 229.52 493.22 283.14 458.08 301.08 C 422.95 319.02 397.77 336.98 364.70 354.70 C 331.63 372.42 303.47 390.82 271.23 408.23 C 238.99 425.64 210.05 444.88 178.08 462.08 C 146.10 479.27 116.24 501.06 82.00 512.00 Z"/>
</g>
<g fill="None" fill-opacity="0.0" stroke="#FFFFFF" stroke-opacity="0.48" stroke-width="0.3"><path d="
M 62.00 512.00 
L 68.00 512.00
C 66.91 510.15 63.91 511.18 62.00 511.00
C 62.00 511.00 62.00 511.50 62.00 512.00 Z"/>
</g>
<g fill="None" fill-opacity="0.0" stroke="#FFFFFF" stroke-opacity="0.53" stroke-width="0.3"><path d="
M 76.00 512.00 
L 81.00 512.00
C 80.32 510.35 76.74 510.61 76.00 512.00 Z"/>
</g>
<g fill="#000000" fill-opacity="0.00" stroke="None">
<path d="
M 0.00 512.00 
L 62.00 512.00
C 62.00 511.50 62.00 511.00 62.00 511.00
C 42.52 509.14 30.63 492.50 27.02 472.98 C 23.42 453.45 25.31 424.36 25.00 402.00 C 24.69 379.64 25.11 352.30 25.00 329.00 C 24.89 305.70 25.00 279.54 25.00 256.00 C 25.00 232.46 24.87 206.25 25.00 183.00 C 25.13 159.75 24.67 132.24 25.00 110.00 C 25.33 87.76 23.39 58.24 26.98 38.98 C 30.56 19.71 42.64 2.32 62.00 1.00
C 62.06 0.99 62.00 0.00 62.00 0.00
L 0.00 0.00
L 0.00 512.00 Z"/>
</g>
<g fill="#FFFFFF" fill-opacity="0.64" stroke="None">
<path d="
M 62.00 1.00 
C 64.87 0.80 68.96 1.94 71.00 0.00
L 62.00 0.00
C 62.00 0.00 62.06 0.99 62.00 1.00 Z"/>
</g>
<g fill="#FFFFFF" fill-opacity="1.00" stroke="None">
<path d="
M 62.00 1.00 
C 42.64 2.32 30.56 19.71 26.98 38.98 C 23.39 58.24 25.33 87.76 25.00 110.00 C 24.67 132.24 25.13 159.75 25.00 183.00 C 24.87 206.25 25.00 232.46 25.00 256.00 C 25.00 279.54 24.89 305.70 25.00 329.00 C 25.11 352.30 24.69 379.64 25.00 402.00 C 25.31 424.36 23.42 453.45 27.02 472.98 C 30.63 492.50 42.52 509.14 62.00 511.00
C 63.91 511.18 66.91 510.15 68.00 512.00
L 76.00 512.00
C 76.74 510.61 80.32 510.35 81.00 512.00
L 82.00 512.00
C 116.24 501.06 146.10 479.27 178.08 462.08 C 210.05 444.88 238.99 425.64 271.23 408.23 C 303.47 390.82 331.63 372.42 364.70 354.70 C 397.77 336.98 422.95 319.02 458.08 301.08 C 493.22 283.14 493.91 229.52 458.75 211.25 C 423.60 192.97 398.40 175.57 365.30 157.70 C 332.21 139.82 304.23 121.55 271.92 104.08 C 239.62 86.60 210.76 67.59 178.75 50.25 C 146.75 32.90 116.22 11.13 82.00 0.00
L 81.00 0.00
C 80.26 1.39 76.68 1.65 76.00 0.00
L 71.00 0.00
C 68.96 1.94 64.87 0.80 62.00 1.00 Z"/>
</g>
<g fill="#FFFFFF" fill-opacity="0.54" stroke="None">
<path d="
M 81.00 0.00 
L 76.00 0.00
C 76.68 1.65 80.26 1.39 81.00 0.00 Z"/>
</g>
<g fill="#000000" fill-opacity="0.00" stroke="None">
<path d="
M 82.00 512.00 
L 512.00 512.00
L 512.00 0.00
L 82.00 0.00
C 116.22 11.13 146.75 32.90 178.75 50.25 C 210.76 67.59 239.62 86.60 271.92 104.08 C 304.23 121.55 332.21 139.82 365.30 157.70 C 398.40 175.57 423.60 192.97 458.75 211.25 C 493.91 229.52 493.22 283.14 458.08 301.08 C 422.95 319.02 397.77 336.98 364.70 354.70 C 331.63 372.42 303.47 390.82 271.23 408.23 C 238.99 425.64 210.05 444.88 178.08 462.08 C 146.10 479.27 116.24 501.06 82.00 512.00 Z"/>
</g>
<g fill="#FFFFFF" fill-opacity="0.48" stroke="None">
<path d="
M 62.00 512.00 
L 68.00 512.00
C 66.91 510.15 63.91 511.18 62.00 511.00
C 62.00 511.00 62.00 511.50 62.00 512.00 Z"/>
</g>
<g fill="#FFFFFF" fill-opacity="0.53" stroke="None">
<path d="
M 76.00 512.00 
L 81.00 512.00
C 80.32 510.35 76.74 510.61 76.00 512.00 Z"/>
</g>
</svg>