<svg xmlns="http://www.w3.org/2000/svg" xmlns:v="https://svgstorm.com"
viewBox = "0 0 512 512"
width="512"
height="512">
<g fill="None" fill-opacity="0.0" stroke="#000000" stroke-opacity="0.00" stroke-width="0.3"><path d="
M 0.00 512.00 
L 512.00 512.00
L 512.00 0.00
L 0.00 0.00
L 0.00 512.00
M 281.00 231.00 
C 303.79 231.87 331.72 229.83 354.00 231.00 C 376.28 232.17 406.35 227.93 426.07 232.93 C 445.79 237.93 446.38 273.18 426.77 278.77 C 407.16 284.36 377.38 279.77 355.00 281.00 C 332.62 282.23 303.95 280.08 281.00 281.00
C 280.13 303.79 282.17 331.72 281.00 354.00 C 279.83 376.28 284.07 406.35 279.07 426.07 C 274.07 445.79 238.82 446.38 233.23 426.77 C 227.64 407.16 232.23 377.38 231.00 355.00 C 229.77 332.62 231.92 303.95 231.00 281.00
C 208.21 280.13 180.28 282.17 158.00 281.00 C 135.72 279.83 105.65 284.07 85.93 279.07 C 66.21 274.07 65.62 238.82 85.23 233.23 C 104.84 227.64 134.62 232.23 157.00 231.00 C 179.38 229.77 208.05 231.92 231.00 231.00
C 231.87 208.21 229.83 180.28 231.00 158.00 C 232.17 135.72 227.93 105.65 232.93 85.93 C 237.93 66.21 273.18 65.62 278.77 85.23 C 284.36 104.84 279.77 134.62 281.00 157.00 C 282.23 179.38 280.08 208.05 281.00 231.00 Z"/>
</g>
<g fill="None" fill-opacity="0.0" stroke="#FFFFFF" stroke-opacity="1.00" stroke-width="0.3"><path d="
M 281.00 231.00 
C 280.08 208.05 282.23 179.38 281.00 157.00 C 279.77 134.62 284.36 104.84 278.77 85.23 C 273.18 65.62 237.93 66.21 232.93 85.93 C 227.93 105.65 232.17 135.72 231.00 158.00 C 229.83 180.28 231.87 208.21 231.00 231.00
C 208.05 231.92 179.38 229.77 157.00 231.00 C 134.62 232.23 104.84 227.64 85.23 233.23 C 65.62 238.82 66.21 274.07 85.93 279.07 C 105.65 284.07 135.72 279.83 158.00 281.00 C 180.28 282.17 208.21 280.13 231.00 281.00
C 231.92 303.95 229.77 332.62 231.00 355.00 C 232.23 377.38 227.64 407.16 233.23 426.77 C 238.82 446.38 274.07 445.79 279.07 426.07 C 284.07 406.35 279.83 376.28 281.00 354.00 C 282.17 331.72 280.13 303.79 281.00 281.00
C 303.95 280.08 332.62 282.23 355.00 281.00 C 377.38 279.77 407.16 284.36 426.77 278.77 C 446.38 273.18 445.79 237.93 426.07 232.93 C 406.35 227.93 376.28 232.17 354.00 231.00 C 331.72 229.83 303.79 231.87 281.00 231.00 Z"/>
</g>
<g fill="#000000" fill-opacity="0.00" stroke="None">
<path d="
M 0.00 512.00 
L 512.00 512.00
L 512.00 0.00
L 0.00 0.00
L 0.00 512.00
M 281.00 231.00 
C 303.79 231.87 331.72 229.83 354.00 231.00 C 376.28 232.17 406.35 227.93 426.07 232.93 C 445.79 237.93 446.38 273.18 426.77 278.77 C 407.16 284.36 377.38 279.77 355.00 281.00 C 332.62 282.23 303.95 280.08 281.00 281.00
C 280.13 303.79 282.17 331.72 281.00 354.00 C 279.83 376.28 284.07 406.35 279.07 426.07 C 274.07 445.79 238.82 446.38 233.23 426.77 C 227.64 407.16 232.23 377.38 231.00 355.00 C 229.77 332.62 231.92 303.95 231.00 281.00
C 208.21 280.13 180.28 282.17 158.00 281.00 C 135.72 279.83 105.65 284.07 85.93 279.07 C 66.21 274.07 65.62 238.82 85.23 233.23 C 104.84 227.64 134.62 232.23 157.00 231.00 C 179.38 229.77 208.05 231.92 231.00 231.00
C 231.87 208.21 229.83 180.28 231.00 158.00 C 232.17 135.72 227.93 105.65 232.93 85.93 C 237.93 66.21 273.18 65.62 278.77 85.23 C 284.36 104.84 279.77 134.62 281.00 157.00 C 282.23 179.38 280.08 208.05 281.00 231.00 Z"/>
</g>
<g fill="#FFFFFF" fill-opacity="1.00" stroke="None">
<path d="
M 281.00 231.00 
C 280.08 208.05 282.23 179.38 281.00 157.00 C 279.77 134.62 284.36 104.84 278.77 85.23 C 273.18 65.62 237.93 66.21 232.93 85.93 C 227.93 105.65 232.17 135.72 231.00 158.00 C 229.83 180.28 231.87 208.21 231.00 231.00
C 208.05 231.92 179.38 229.77 157.00 231.00 C 134.62 232.23 104.84 227.64 85.23 233.23 C 65.62 238.82 66.21 274.07 85.93 279.07 C 105.65 284.07 135.72 279.83 158.00 281.00 C 180.28 282.17 208.21 280.13 231.00 281.00
C 231.92 303.95 229.77 332.62 231.00 355.00 C 232.23 377.38 227.64 407.16 233.23 426.77 C 238.82 446.38 274.07 445.79 279.07 426.07 C 284.07 406.35 279.83 376.28 281.00 354.00 C 282.17 331.72 280.13 303.79 281.00 281.00
C 303.95 280.08 332.62 282.23 355.00 281.00 C 377.38 279.77 407.16 284.36 426.77 278.77 C 446.38 273.18 445.79 237.93 426.07 232.93 C 406.35 227.93 376.28 232.17 354.00 231.00 C 331.72 229.83 303.79 231.87 281.00 231.00 Z"/>
</g>
</svg>