<svg xmlns="http://www.w3.org/2000/svg" xmlns:v="https://svgstorm.com"
viewBox = "0 0 512 512"
width="512"
height="512">
<g fill="None" fill-opacity="0.0" stroke="#000000" stroke-opacity="0.00" stroke-width="0.3"><path d="
M 0.00 512.00 
L 512.00 512.00
L 512.00 0.00
L 0.00 0.00
L 0.00 512.00
M 118.00 192.00 
C 135.29 196.28 125.49 221.35 128.00 235.00 C 130.51 248.65 124.98 273.54 128.00 288.00 C 131.02 302.46 125.18 326.52 106.33 319.67 C 87.48 312.82 98.63 292.27 96.00 277.00 C 93.37 261.73 98.31 239.66 96.00 224.00 C 93.69 208.34 97.01 186.80 118.00 192.00
M 191.00 240.00 
C 214.00 239.62 235.89 240.51 259.00 240.00 C 282.11 239.49 304.61 240.96 328.00 240.00 C 351.39 239.04 373.07 242.05 397.00 240.00 C 420.93 237.95 422.00 273.17 398.00 272.00 C 374.00 270.83 352.47 272.54 329.00 272.00 C 305.53 271.46 283.24 272.28 260.00 272.00 C 236.76 271.72 214.18 272.21 191.00 272.00
C 196.02 284.79 218.24 300.29 204.25 315.25 C 190.25 330.20 173.18 310.53 167.70 297.30 C 162.21 284.07 143.95 271.35 144.00 256.00 C 144.05 240.65 161.61 228.30 167.25 215.25 C 172.89 202.21 189.14 181.89 203.75 196.25 C 218.36 210.61 196.39 227.47 191.00 240.00 Z"/>
</g>
<g fill="None" fill-opacity="0.0" stroke="#FFFFFF" stroke-opacity="0.99" stroke-width="0.3"><path d="
M 118.00 192.00 
C 97.01 186.80 93.69 208.34 96.00 224.00 C 98.31 239.66 93.37 261.73 96.00 277.00 C 98.63 292.27 87.48 312.82 106.33 319.67 C 125.18 326.52 131.02 302.46 128.00 288.00 C 124.98 273.54 130.51 248.65 128.00 235.00 C 125.49 221.35 135.29 196.28 118.00 192.00 Z"/>
</g>
<g fill="None" fill-opacity="0.0" stroke="#FFFFFF" stroke-opacity="0.98" stroke-width="0.3"><path d="
M 191.00 240.00 
C 196.39 227.47 218.36 210.61 203.75 196.25 C 189.14 181.89 172.89 202.21 167.25 215.25 C 161.61 228.30 144.05 240.65 144.00 256.00 C 143.95 271.35 162.21 284.07 167.70 297.30 C 173.18 310.53 190.25 330.20 204.25 315.25 C 218.24 300.29 196.02 284.79 191.00 272.00
C 214.18 272.21 236.76 271.72 260.00 272.00 C 283.24 272.28 305.53 271.46 329.00 272.00 C 352.47 272.54 374.00 270.83 398.00 272.00 C 422.00 273.17 420.93 237.95 397.00 240.00 C 373.07 242.05 351.39 239.04 328.00 240.00 C 304.61 240.96 282.11 239.49 259.00 240.00 C 235.89 240.51 214.00 239.62 191.00 240.00 Z"/>
</g>
<g fill="#000000" fill-opacity="0.00" stroke="None">
<path d="
M 0.00 512.00 
L 512.00 512.00
L 512.00 0.00
L 0.00 0.00
L 0.00 512.00
M 118.00 192.00 
C 135.29 196.28 125.49 221.35 128.00 235.00 C 130.51 248.65 124.98 273.54 128.00 288.00 C 131.02 302.46 125.18 326.52 106.33 319.67 C 87.48 312.82 98.63 292.27 96.00 277.00 C 93.37 261.73 98.31 239.66 96.00 224.00 C 93.69 208.34 97.01 186.80 118.00 192.00
M 191.00 240.00 
C 214.00 239.62 235.89 240.51 259.00 240.00 C 282.11 239.49 304.61 240.96 328.00 240.00 C 351.39 239.04 373.07 242.05 397.00 240.00 C 420.93 237.95 422.00 273.17 398.00 272.00 C 374.00 270.83 352.47 272.54 329.00 272.00 C 305.53 271.46 283.24 272.28 260.00 272.00 C 236.76 271.72 214.18 272.21 191.00 272.00
C 196.02 284.79 218.24 300.29 204.25 315.25 C 190.25 330.20 173.18 310.53 167.70 297.30 C 162.21 284.07 143.95 271.35 144.00 256.00 C 144.05 240.65 161.61 228.30 167.25 215.25 C 172.89 202.21 189.14 181.89 203.75 196.25 C 218.36 210.61 196.39 227.47 191.00 240.00 Z"/>
</g>
<g fill="#FFFFFF" fill-opacity="0.99" stroke="None">
<path d="
M 118.00 192.00 
C 97.01 186.80 93.69 208.34 96.00 224.00 C 98.31 239.66 93.37 261.73 96.00 277.00 C 98.63 292.27 87.48 312.82 106.33 319.67 C 125.18 326.52 131.02 302.46 128.00 288.00 C 124.98 273.54 130.51 248.65 128.00 235.00 C 125.49 221.35 135.29 196.28 118.00 192.00 Z"/>
</g>
<g fill="#FFFFFF" fill-opacity="0.98" stroke="None">
<path d="
M 191.00 240.00 
C 196.39 227.47 218.36 210.61 203.75 196.25 C 189.14 181.89 172.89 202.21 167.25 215.25 C 161.61 228.30 144.05 240.65 144.00 256.00 C 143.95 271.35 162.21 284.07 167.70 297.30 C 173.18 310.53 190.25 330.20 204.25 315.25 C 218.24 300.29 196.02 284.79 191.00 272.00
C 214.18 272.21 236.76 271.72 260.00 272.00 C 283.24 272.28 305.53 271.46 329.00 272.00 C 352.47 272.54 374.00 270.83 398.00 272.00 C 422.00 273.17 420.93 237.95 397.00 240.00 C 373.07 242.05 351.39 239.04 328.00 240.00 C 304.61 240.96 282.11 239.49 259.00 240.00 C 235.89 240.51 214.00 239.62 191.00 240.00 Z"/>
</g>
</svg>