<svg xmlns="http://www.w3.org/2000/svg" xmlns:v="https://svgstorm.com"
viewBox = "0 0 512 512"
width="512"
height="512">
<g fill="None" fill-opacity="0.0" stroke="#000000" stroke-opacity="0.00" stroke-width="0.3"><path d="
M 0.00 512.00 
L 512.00 512.00
L 512.00 0.00
L 0.00 0.00
L 0.00 512.00
M 424.00 160.00 
C 404.86 159.42 381.46 163.81 364.92 170.92 C 348.39 178.04 335.52 186.66 323.25 199.25 C 310.98 211.84 300.91 222.88 289.25 235.25 C 277.59 247.62 267.25 259.52 255.75 271.75 C 244.26 283.98 232.89 296.23 221.25 308.25 C 209.60 320.27 200.17 333.10 187.25 344.25 C 174.33 355.39 160.09 364.66 144.31 371.31 C 128.52 377.95 104.41 385.22 87.00 384.00 C 69.59 382.78 32.14 392.63 32.00 368.00 C 31.86 343.36 68.18 352.97 85.00 351.00 C 101.83 349.03 125.85 345.84 140.69 336.69 C 155.54 327.55 168.23 318.92 179.75 305.75 C 191.27 292.59 201.88 281.98 213.25 269.25 C 224.61 256.52 236.31 245.30 247.75 232.75 C 259.19 220.20 269.46 208.75 281.25 196.25 C 293.04 183.75 302.72 172.43 316.70 161.70 C 330.68 150.96 344.48 143.02 362.02 137.02 C 379.57 131.03 403.78 125.77 424.00 128.00
C 415.37 115.26 385.96 100.49 399.77 82.77 C 413.58 65.06 435.97 89.38 445.25 101.75 C 454.53 114.12 481.15 127.36 481.00 144.00 C 480.84 160.64 455.94 174.31 446.25 186.25 C 436.56 198.19 414.21 223.52 399.75 206.25 C 385.29 188.97 415.10 172.43 424.00 160.00
M 98.00 128.00 
C 111.35 129.29 127.52 134.09 140.07 138.93 C 152.63 143.76 164.47 149.94 175.08 157.92 C 185.69 165.89 194.41 172.61 202.75 183.25 C 211.09 193.89 224.50 199.16 224.20 214.25 C 223.90 229.33 202.47 233.99 193.75 222.25 C 185.03 210.50 178.14 204.91 168.25 194.75 C 158.35 184.60 148.55 179.51 135.92 173.08 C 123.30 166.64 108.76 162.92 93.99 161.01 C 79.23 159.09 57.23 161.40 42.33 159.67 C 27.43 157.94 27.90 127.68 44.02 128.02 C 60.15 128.37 81.54 126.41 98.00 128.00
M 424.00 352.00 
C 415.37 339.26 385.96 324.49 399.77 306.77 C 413.58 289.06 435.97 313.38 445.25 325.75 C 454.53 338.12 481.15 351.36 481.00 368.00 C 480.84 384.64 455.94 398.31 446.25 410.25 C 436.56 422.19 414.21 447.52 399.75 430.25 C 385.29 412.97 415.10 396.43 424.00 384.00
C 407.10 385.10 385.67 383.02 370.78 378.22 C 355.89 373.42 341.26 368.54 328.92 360.08 C 316.59 351.61 306.00 345.25 296.75 333.25 C 287.50 321.25 272.05 316.02 271.35 299.31 C 270.66 282.59 296.37 278.50 304.75 292.25 C 313.14 306.00 323.05 312.07 334.25 322.75 C 345.45 333.44 357.60 337.92 372.07 343.93 C 386.55 349.93 407.59 351.58 424.00 352.00 Z"/>
</g>
<g fill="None" fill-opacity="0.0" stroke="#FFFFFF" stroke-opacity="0.96" stroke-width="0.3"><path d="
M 424.00 160.00 
C 415.10 172.43 385.29 188.97 399.75 206.25 C 414.21 223.52 436.56 198.19 446.25 186.25 C 455.94 174.31 480.84 160.64 481.00 144.00 C 481.15 127.36 454.53 114.12 445.25 101.75 C 435.97 89.38 413.58 65.06 399.77 82.77 C 385.96 100.49 415.37 115.26 424.00 128.00
C 403.78 125.77 379.57 131.03 362.02 137.02 C 344.48 143.02 330.68 150.96 316.70 161.70 C 302.72 172.43 293.04 183.75 281.25 196.25 C 269.46 208.75 259.19 220.20 247.75 232.75 C 236.31 245.30 224.61 256.52 213.25 269.25 C 201.88 281.98 191.27 292.59 179.75 305.75 C 168.23 318.92 155.54 327.55 140.69 336.69 C 125.85 345.84 101.83 349.03 85.00 351.00 C 68.18 352.97 31.86 343.36 32.00 368.00 C 32.14 392.63 69.59 382.78 87.00 384.00 C 104.41 385.22 128.52 377.95 144.31 371.31 C 160.09 364.66 174.33 355.39 187.25 344.25 C 200.17 333.10 209.60 320.27 221.25 308.25 C 232.89 296.23 244.26 283.98 255.75 271.75 C 267.25 259.52 277.59 247.62 289.25 235.25 C 300.91 222.88 310.98 211.84 323.25 199.25 C 335.52 186.66 348.39 178.04 364.92 170.92 C 381.46 163.81 404.86 159.42 424.00 160.00 Z"/>
</g>
<g fill="None" fill-opacity="0.0" stroke="#FFFFFF" stroke-opacity="0.96" stroke-width="0.3"><path d="
M 98.00 128.00 
C 81.54 126.41 60.15 128.37 44.02 128.02 C 27.90 127.68 27.43 157.94 42.33 159.67 C 57.23 161.40 79.23 159.09 93.99 161.01 C 108.76 162.92 123.30 166.64 135.92 173.08 C 148.55 179.51 158.35 184.60 168.25 194.75 C 178.14 204.91 185.03 210.50 193.75 222.25 C 202.47 233.99 223.90 229.33 224.20 214.25 C 224.50 199.16 211.09 193.89 202.75 183.25 C 194.41 172.61 185.69 165.89 175.08 157.92 C 164.47 149.94 152.63 143.76 140.07 138.93 C 127.52 134.09 111.35 129.29 98.00 128.00 Z"/>
</g>
<g fill="None" fill-opacity="0.0" stroke="#FFFFFF" stroke-opacity="0.96" stroke-width="0.3"><path d="
M 424.00 352.00 
C 407.59 351.58 386.55 349.93 372.07 343.93 C 357.60 337.92 345.45 333.44 334.25 322.75 C 323.05 312.07 313.14 306.00 304.75 292.25 C 296.37 278.50 270.66 282.59 271.35 299.31 C 272.05 316.02 287.50 321.25 296.75 333.25 C 306.00 345.25 316.59 351.61 328.92 360.08 C 341.26 368.54 355.89 373.42 370.78 378.22 C 385.67 383.02 407.10 385.10 424.00 384.00
C 415.10 396.43 385.29 412.97 399.75 430.25 C 414.21 447.52 436.56 422.19 446.25 410.25 C 455.94 398.31 480.84 384.64 481.00 368.00 C 481.15 351.36 454.53 338.12 445.25 325.75 C 435.97 313.38 413.58 289.06 399.77 306.77 C 385.96 324.49 415.37 339.26 424.00 352.00 Z"/>
</g>
<g fill="#000000" fill-opacity="0.00" stroke="None">
<path d="
M 0.00 512.00 
L 512.00 512.00
L 512.00 0.00
L 0.00 0.00
L 0.00 512.00
M 424.00 160.00 
C 404.86 159.42 381.46 163.81 364.92 170.92 C 348.39 178.04 335.52 186.66 323.25 199.25 C 310.98 211.84 300.91 222.88 289.25 235.25 C 277.59 247.62 267.25 259.52 255.75 271.75 C 244.26 283.98 232.89 296.23 221.25 308.25 C 209.60 320.27 200.17 333.10 187.25 344.25 C 174.33 355.39 160.09 364.66 144.31 371.31 C 128.52 377.95 104.41 385.22 87.00 384.00 C 69.59 382.78 32.14 392.63 32.00 368.00 C 31.86 343.36 68.18 352.97 85.00 351.00 C 101.83 349.03 125.85 345.84 140.69 336.69 C 155.54 327.55 168.23 318.92 179.75 305.75 C 191.27 292.59 201.88 281.98 213.25 269.25 C 224.61 256.52 236.31 245.30 247.75 232.75 C 259.19 220.20 269.46 208.75 281.25 196.25 C 293.04 183.75 302.72 172.43 316.70 161.70 C 330.68 150.96 344.48 143.02 362.02 137.02 C 379.57 131.03 403.78 125.77 424.00 128.00
C 415.37 115.26 385.96 100.49 399.77 82.77 C 413.58 65.06 435.97 89.38 445.25 101.75 C 454.53 114.12 481.15 127.36 481.00 144.00 C 480.84 160.64 455.94 174.31 446.25 186.25 C 436.56 198.19 414.21 223.52 399.75 206.25 C 385.29 188.97 415.10 172.43 424.00 160.00
M 98.00 128.00 
C 111.35 129.29 127.52 134.09 140.07 138.93 C 152.63 143.76 164.47 149.94 175.08 157.92 C 185.69 165.89 194.41 172.61 202.75 183.25 C 211.09 193.89 224.50 199.16 224.20 214.25 C 223.90 229.33 202.47 233.99 193.75 222.25 C 185.03 210.50 178.14 204.91 168.25 194.75 C 158.35 184.60 148.55 179.51 135.92 173.08 C 123.30 166.64 108.76 162.92 93.99 161.01 C 79.23 159.09 57.23 161.40 42.33 159.67 C 27.43 157.94 27.90 127.68 44.02 128.02 C 60.15 128.37 81.54 126.41 98.00 128.00
M 424.00 352.00 
C 415.37 339.26 385.96 324.49 399.77 306.77 C 413.58 289.06 435.97 313.38 445.25 325.75 C 454.53 338.12 481.15 351.36 481.00 368.00 C 480.84 384.64 455.94 398.31 446.25 410.25 C 436.56 422.19 414.21 447.52 399.75 430.25 C 385.29 412.97 415.10 396.43 424.00 384.00
C 407.10 385.10 385.67 383.02 370.78 378.22 C 355.89 373.42 341.26 368.54 328.92 360.08 C 316.59 351.61 306.00 345.25 296.75 333.25 C 287.50 321.25 272.05 316.02 271.35 299.31 C 270.66 282.59 296.37 278.50 304.75 292.25 C 313.14 306.00 323.05 312.07 334.25 322.75 C 345.45 333.44 357.60 337.92 372.07 343.93 C 386.55 349.93 407.59 351.58 424.00 352.00 Z"/>
</g>
<g fill="#FFFFFF" fill-opacity="0.96" stroke="None">
<path d="
M 424.00 160.00 
C 415.10 172.43 385.29 188.97 399.75 206.25 C 414.21 223.52 436.56 198.19 446.25 186.25 C 455.94 174.31 480.84 160.64 481.00 144.00 C 481.15 127.36 454.53 114.12 445.25 101.75 C 435.97 89.38 413.58 65.06 399.77 82.77 C 385.96 100.49 415.37 115.26 424.00 128.00
C 403.78 125.77 379.57 131.03 362.02 137.02 C 344.48 143.02 330.68 150.96 316.70 161.70 C 302.72 172.43 293.04 183.75 281.25 196.25 C 269.46 208.75 259.19 220.20 247.75 232.75 C 236.31 245.30 224.61 256.52 213.25 269.25 C 201.88 281.98 191.27 292.59 179.75 305.75 C 168.23 318.92 155.54 327.55 140.69 336.69 C 125.85 345.84 101.83 349.03 85.00 351.00 C 68.18 352.97 31.86 343.36 32.00 368.00 C 32.14 392.63 69.59 382.78 87.00 384.00 C 104.41 385.22 128.52 377.95 144.31 371.31 C 160.09 364.66 174.33 355.39 187.25 344.25 C 200.17 333.10 209.60 320.27 221.25 308.25 C 232.89 296.23 244.26 283.98 255.75 271.75 C 267.25 259.52 277.59 247.62 289.25 235.25 C 300.91 222.88 310.98 211.84 323.25 199.25 C 335.52 186.66 348.39 178.04 364.92 170.92 C 381.46 163.81 404.86 159.42 424.00 160.00 Z"/>
</g>
<g fill="#FFFFFF" fill-opacity="0.96" stroke="None">
<path d="
M 98.00 128.00 
C 81.54 126.41 60.15 128.37 44.02 128.02 C 27.90 127.68 27.43 157.94 42.33 159.67 C 57.23 161.40 79.23 159.09 93.99 161.01 C 108.76 162.92 123.30 166.64 135.92 173.08 C 148.55 179.51 158.35 184.60 168.25 194.75 C 178.14 204.91 185.03 210.50 193.75 222.25 C 202.47 233.99 223.90 229.33 224.20 214.25 C 224.50 199.16 211.09 193.89 202.75 183.25 C 194.41 172.61 185.69 165.89 175.08 157.92 C 164.47 149.94 152.63 143.76 140.07 138.93 C 127.52 134.09 111.35 129.29 98.00 128.00 Z"/>
</g>
<g fill="#FFFFFF" fill-opacity="0.96" stroke="None">
<path d="
M 424.00 352.00 
C 407.59 351.58 386.55 349.93 372.07 343.93 C 357.60 337.92 345.45 333.44 334.25 322.75 C 323.05 312.07 313.14 306.00 304.75 292.25 C 296.37 278.50 270.66 282.59 271.35 299.31 C 272.05 316.02 287.50 321.25 296.75 333.25 C 306.00 345.25 316.59 351.61 328.92 360.08 C 341.26 368.54 355.89 373.42 370.78 378.22 C 385.67 383.02 407.10 385.10 424.00 384.00
C 415.10 396.43 385.29 412.97 399.75 430.25 C 414.21 447.52 436.56 422.19 446.25 410.25 C 455.94 398.31 480.84 384.64 481.00 368.00 C 481.15 351.36 454.53 338.12 445.25 325.75 C 435.97 313.38 413.58 289.06 399.77 306.77 C 385.96 324.49 415.37 339.26 424.00 352.00 Z"/>
</g>
</svg>