<svg xmlns="http://www.w3.org/2000/svg" xmlns:v="https://svgstorm.com"
viewBox = "0 0 641 627"
width="641"
height="627">
<g fill="None" fill-opacity="0.0" stroke="#000000" stroke-opacity="0.00" stroke-width="0.3"><path d="
M 0.00 627.00 
L 641.00 627.00
L 641.00 279.00
C 640.50 279.00 640.00 279.00 640.00 279.00
C 640.00 297.17 634.32 317.77 629.22 334.22 C 624.13 350.68 617.31 367.25 609.10 381.10 C 600.88 394.94 592.71 409.60 581.90 420.90 C 571.09 432.20 560.76 446.01 548.30 454.30 C 535.84 462.58 522.99 477.95 508.00 481.00
C 514.88 481.98 519.67 485.76 517.00 493.00
C 514.28 500.38 505.33 504.99 500.25 511.25 C 495.17 517.51 487.65 523.35 482.00 529.00
C 479.13 531.87 477.57 535.93 474.00 538.00
C 477.90 555.60 480.94 574.77 485.00 593.00
C 487.17 604.88 481.04 607.44 471.00 603.00
C 454.31 595.63 437.60 587.17 422.00 578.00
C 404.88 587.04 388.07 597.49 371.00 606.00
C 366.24 608.08 360.32 610.20 358.00 604.00
C 354.44 594.50 362.05 582.07 361.60 572.26 C 361.15 562.44 366.45 551.15 366.00 541.00
C 364.79 535.87 354.74 530.54 350.75 526.25 C 346.77 521.96 339.55 515.20 335.00 511.00
C 333.18 509.83 331.60 508.07 330.00 507.00
C 329.51 506.67 328.38 506.35 328.00 506.00
C 321.06 503.65 305.54 503.92 301.00 498.00
C 300.95 514.88 298.54 526.33 296.22 544.22 C 293.90 562.11 271.27 549.97 263.25 539.75 C 255.24 529.52 241.49 521.68 232.25 511.75 C 223.02 501.81 210.13 493.09 201.00 483.00
C 189.01 486.54 173.82 489.83 161.98 492.98 C 150.13 496.12 133.89 499.33 122.98 501.98 C 112.06 504.63 94.42 512.76 88.08 500.92 C 81.75 489.08 95.53 477.72 98.31 466.31 C 101.08 454.89 109.90 443.40 113.92 431.92 C 117.94 420.43 124.61 408.59 129.00 397.00
C 120.07 386.74 115.20 371.94 106.75 361.25 C 98.30 350.57 93.41 335.51 84.25 325.75 C 75.08 315.99 68.20 293.01 86.01 292.01 C 103.82 291.01 114.54 296.63 132.00 297.00
C 127.64 293.01 131.02 282.06 129.01 275.99 C 126.99 269.92 130.05 259.05 129.00 252.00 C 127.95 244.95 129.52 235.00 130.00 228.00 C 130.48 221.00 131.88 213.78 132.99 206.99 C 134.10 200.21 136.38 193.45 137.93 186.93 C 139.47 180.40 141.78 175.01 143.78 168.78 C 145.78 162.55 148.14 157.79 150.77 151.77 C 153.41 145.75 155.23 140.70 158.77 134.77 C 162.32 128.84 163.30 126.20 167.75 119.75 C 172.21 113.31 171.71 112.57 177.75 104.75 C 183.80 96.94 192.18 85.08 199.75 78.75 C 207.33 72.42 206.28 71.00 211.92 65.92 C 217.56 60.84 220.10 59.13 224.92 54.92 C 229.73 50.70 234.68 48.39 239.70 44.70 C 244.72 41.01 248.87 37.93 253.90 34.90 C 258.93 31.86 264.32 29.73 269.70 26.69 C 275.07 23.66 281.21 21.20 287.03 19.02 C 292.84 16.85 298.09 13.72 304.22 12.22 C 310.36 10.73 316.30 8.13 321.75 6.74 C 327.19 5.35 333.87 4.95 340.22 3.22 C 346.58 1.50 356.01 2.09 362.00 0.00
L 0.00 0.00
L 0.00 627.00 Z"/>
</g>
<g fill="None" fill-opacity="0.0" stroke="#FEFEFE" stroke-opacity="0.99" stroke-width="0.3"><path d="
M 132.00 297.00 
C 150.80 299.99 170.20 300.00 189.00 303.00
C 196.13 293.54 202.69 285.80 210.75 276.75 C 218.82 267.70 224.74 260.08 232.75 250.75 C 240.77 241.42 245.19 234.48 254.75 224.75 C 264.31 215.03 281.71 229.34 278.00 243.00
C 297.84 239.27 318.53 237.74 339.00 237.00 C 359.47 236.26 385.23 238.77 403.67 241.33 C 422.11 243.89 437.89 249.81 456.02 253.98 C 474.16 258.14 486.96 268.94 503.23 273.77 C 519.50 278.60 537.11 301.32 518.75 312.75 C 500.38 324.17 487.01 301.99 469.32 297.68 C 451.64 293.37 435.43 282.85 415.78 280.22 C 396.12 277.60 373.30 273.00 352.00 273.00 C 330.70 273.00 306.68 274.31 286.00 278.00
C 288.02 291.85 292.03 305.38 295.00 319.00
C 309.17 317.48 326.39 314.95 341.00 315.00 C 355.61 315.05 372.82 315.03 387.00 317.00 C 401.18 318.97 419.15 322.20 431.22 326.78 C 443.30 331.35 459.62 333.98 469.03 340.98 C 478.43 347.97 491.64 346.02 496.32 361.68 C 501.00 377.34 477.94 382.93 467.31 372.69 C 456.67 362.46 443.12 362.39 429.93 356.07 C 416.73 349.76 401.06 349.70 385.99 346.01 C 370.92 342.32 349.12 345.80 333.00 344.00
C 341.87 348.29 350.75 352.12 361.02 355.98 C 371.30 359.83 378.80 364.29 390.02 367.98 C 401.25 371.66 399.79 388.46 389.25 392.25 C 378.72 396.05 373.02 402.54 363.30 407.30 C 353.58 412.07 347.35 417.18 337.90 421.90 C 328.45 426.63 322.64 432.73 311.92 436.92 C 301.21 441.11 303.85 454.27 302.60 464.75 C 301.36 475.23 301.03 487.62 301.00 498.00
C 305.54 503.92 321.06 503.65 328.00 506.00
C 322.12 500.52 314.95 493.15 324.00 488.00
C 333.54 482.57 347.51 486.23 356.07 482.93 C 364.63 479.62 375.65 480.51 384.00 477.00
C 391.30 471.64 394.80 455.11 399.00 447.00
C 399.17 446.67 399.74 446.25 400.00 446.00
C 403.51 438.87 406.17 422.87 414.00 419.00
C 421.11 415.49 424.38 423.66 427.00 428.00
C 430.50 433.80 433.44 439.81 436.00 446.00
C 437.28 448.22 437.76 449.02 439.00 451.00
C 444.93 460.47 446.98 474.09 459.00 476.00
C 475.25 478.58 491.56 478.65 508.00 481.00
C 522.99 477.95 535.84 462.58 548.30 454.30 C 560.76 446.01 571.09 432.20 581.90 420.90 C 592.71 409.60 600.88 394.94 609.10 381.10 C 617.31 367.25 624.13 350.68 629.22 334.22 C 634.32 317.77 640.00 297.17 640.00 279.00
C 640.00 273.84 639.17 267.34 641.00 263.00
L 641.00 249.00
C 639.42 245.73 639.29 239.20 641.00 236.00
L 641.00 233.00
C 634.83 174.68 609.69 116.38 567.25 75.75 C 524.80 35.13 468.22 1.00 408.00 1.00
C 403.50 1.00 397.67 1.82 394.00 0.00
L 376.00 0.00
C 373.06 1.57 366.87 1.71 364.00 0.00
L 362.00 0.00
C 356.01 2.09 346.58 1.50 340.22 3.22 C 333.87 4.95 327.19 5.35 321.75 6.74 C 316.30 8.13 310.36 10.73 304.22 12.22 C 298.09 13.72 292.84 16.85 287.03 19.02 C 281.21 21.20 275.07 23.66 269.70 26.69 C 264.32 29.73 258.93 31.86 253.90 34.90 C 248.87 37.93 244.72 41.01 239.70 44.70 C 234.68 48.39 229.73 50.70 224.92 54.92 C 220.10 59.13 217.56 60.84 211.92 65.92 C 206.28 71.00 207.33 72.42 199.75 78.75 C 192.18 85.08 183.80 96.94 177.75 104.75 C 171.71 112.57 172.21 113.31 167.75 119.75 C 163.30 126.20 162.32 128.84 158.77 134.77 C 155.23 140.70 153.41 145.75 150.77 151.77 C 148.14 157.79 145.78 162.55 143.78 168.78 C 141.78 175.01 139.47 180.40 137.93 186.93 C 136.38 193.45 134.10 200.21 132.99 206.99 C 131.88 213.78 130.48 221.00 130.00 228.00 C 129.52 235.00 127.95 244.95 129.00 252.00 C 130.05 259.05 126.99 269.92 129.01 275.99 C 131.02 282.06 127.64 293.01 132.00 297.00
M 366.00 154.00 
C 388.23 157.18 412.86 156.61 434.00 161.00 C 455.14 165.39 477.16 169.98 497.02 176.98 C 516.89 183.97 529.75 190.16 550.75 202.25 C 571.75 214.35 551.27 252.19 529.32 239.68 C 507.37 227.17 494.35 221.90 471.32 214.68 C 448.29 207.46 426.61 203.55 402.00 201.00 C 377.39 198.45 348.40 195.93 322.98 198.98 C 297.56 202.03 274.44 200.39 250.33 210.33 C 226.22 220.26 209.33 182.39 230.70 171.70 C 252.06 161.00 270.94 161.16 292.74 158.60 C 314.55 156.03 340.81 150.40 365.00 154.00 Z"/>
</g>
<g fill="None" fill-opacity="0.0" stroke="#FFFFFF" stroke-opacity="0.54" stroke-width="0.3"><path d="
M 376.00 0.00 
L 364.00 0.00
C 366.87 1.71 373.06 1.57 376.00 0.00 Z"/>
</g>
<g fill="None" fill-opacity="0.0" stroke="#FFFFFF" stroke-opacity="0.47" stroke-width="0.3"><path d="
M 408.00 1.00 
C 407.96 1.00 408.00 0.00 408.00 0.00
L 394.00 0.00
C 397.67 1.82 403.50 1.00 408.00 1.00 Z"/>
</g>
<g fill="None" fill-opacity="0.0" stroke="#000000" stroke-opacity="0.00" stroke-width="0.3"><path d="
M 408.00 1.00 
C 468.22 1.00 524.80 35.13 567.25 75.75 C 609.69 116.38 634.83 174.68 641.00 233.00
L 641.00 0.00
L 408.00 0.00
C 408.00 0.00 407.96 1.00 408.00 1.00 Z"/>
</g>
<g fill="None" fill-opacity="0.0" stroke="#000000" stroke-opacity="0.00" stroke-width="0.3"><path d="
M 365.00 154.00 
C 340.81 150.40 314.55 156.03 292.74 158.60 C 270.94 161.16 252.06 161.00 230.70 171.70 C 209.33 182.39 226.22 220.26 250.33 210.33 C 274.44 200.39 297.56 202.03 322.98 198.98 C 348.40 195.93 377.39 198.45 402.00 201.00 C 426.61 203.55 448.29 207.46 471.32 214.68 C 494.35 221.90 507.37 227.17 529.32 239.68 C 551.27 252.19 571.75 214.35 550.75 202.25 C 529.75 190.16 516.89 183.97 497.02 176.98 C 477.16 169.98 455.14 165.39 434.00 161.00 C 412.86 156.61 388.23 157.18 366.00 154.00 Z"/>
</g>
<g fill="None" fill-opacity="0.0" stroke="#A2C7FE" stroke-opacity="1.00" stroke-width="0.3"><path d="
M 132.00 297.00 
C 114.54 296.63 103.82 291.01 86.01 292.01 C 68.20 293.01 75.08 315.99 84.25 325.75 C 93.41 335.51 98.30 350.57 106.75 361.25 C 115.20 371.94 120.07 386.74 129.00 397.00
C 124.61 408.59 117.94 420.43 113.92 431.92 C 109.90 443.40 101.08 454.89 98.31 466.31 C 95.53 477.72 81.75 489.08 88.08 500.92 C 94.42 512.76 112.06 504.63 122.98 501.98 C 133.89 499.33 150.13 496.12 161.98 492.98 C 173.82 489.83 189.01 486.54 201.00 483.00
C 210.13 493.09 223.02 501.81 232.25 511.75 C 241.49 521.68 255.24 529.52 263.25 539.75 C 271.27 549.97 293.90 562.11 296.22 544.22 C 298.54 526.33 300.95 514.88 301.00 498.00
C 301.03 487.62 301.36 475.23 302.60 464.75 C 303.85 454.27 301.21 441.11 311.92 436.92 C 322.64 432.73 328.45 426.63 337.90 421.90 C 347.35 417.18 353.58 412.07 363.30 407.30 C 373.02 402.54 378.72 396.05 389.25 392.25 C 399.79 388.46 401.25 371.66 390.02 367.98 C 378.80 364.29 371.30 359.83 361.02 355.98 C 350.75 352.12 341.87 348.29 333.00 344.00
C 323.05 342.89 320.98 337.09 310.92 335.08 C 300.86 333.08 297.22 329.19 295.00 319.00
C 292.03 305.38 288.02 291.85 286.00 278.00
C 284.26 266.12 281.08 254.53 278.00 243.00
C 281.71 229.34 264.31 215.03 254.75 224.75 C 245.19 234.48 240.77 241.42 232.75 250.75 C 224.74 260.08 218.82 267.70 210.75 276.75 C 202.69 285.80 196.13 293.54 189.00 303.00
C 170.20 300.00 150.80 299.99 132.00 297.00 Z"/>
</g>
<g fill="None" fill-opacity="0.0" stroke="#FFFFFF" stroke-opacity="0.61" stroke-width="0.3"><path d="
M 641.00 249.00 
L 641.00 236.00
C 639.29 239.20 639.42 245.73 641.00 249.00 Z"/>
</g>
<g fill="None" fill-opacity="0.0" stroke="#000000" stroke-opacity="0.00" stroke-width="0.3"><path d="
M 278.00 243.00 
C 281.08 254.53 284.26 266.12 286.00 278.00
C 306.68 274.31 330.70 273.00 352.00 273.00 C 373.30 273.00 396.12 277.60 415.78 280.22 C 435.43 282.85 451.64 293.37 469.32 297.68 C 487.01 301.99 500.38 324.17 518.75 312.75 C 537.11 301.32 519.50 278.60 503.23 273.77 C 486.96 268.94 474.16 258.14 456.02 253.98 C 437.89 249.81 422.11 243.89 403.67 241.33 C 385.23 238.77 359.47 236.26 339.00 237.00 C 318.53 237.74 297.84 239.27 278.00 243.00 Z"/>
</g>
<g fill="None" fill-opacity="0.0" stroke="#FFFFFF" stroke-opacity="0.51" stroke-width="0.3"><path d="
M 640.00 279.00 
C 640.00 279.00 640.50 279.00 641.00 279.00
L 641.00 263.00
C 639.17 267.34 640.00 273.84 640.00 279.00 Z"/>
</g>
<g fill="None" fill-opacity="0.0" stroke="#000000" stroke-opacity="0.00" stroke-width="0.3"><path d="
M 295.00 319.00 
C 297.22 329.19 300.86 333.08 310.92 335.08 C 320.98 337.09 323.05 342.89 333.00 344.00
C 349.12 345.80 370.92 342.32 385.99 346.01 C 401.06 349.70 416.73 349.76 429.93 356.07 C 443.12 362.39 456.67 362.46 467.31 372.69 C 477.94 382.93 501.00 377.34 496.32 361.68 C 491.64 346.02 478.43 347.97 469.03 340.98 C 459.62 333.98 443.30 331.35 431.22 326.78 C 419.15 322.20 401.18 318.97 387.00 317.00 C 372.82 315.03 355.61 315.05 341.00 315.00 C 326.39 314.95 309.17 317.48 295.00 319.00 Z"/>
</g>
<g fill="None" fill-opacity="0.0" stroke="#A2C7FE" stroke-opacity="1.00" stroke-width="0.3"><path d="
M 414.00 419.00 
C 407.66 422.90 406.37 439.90 400.00 446.00
C 399.74 446.25 399.17 446.67 399.00 447.00
C 400.11 451.28 394.49 458.16 393.02 463.02 C 391.56 467.89 387.16 475.67 384.00 477.00
C 375.65 480.51 364.63 479.62 356.07 482.93 C 347.51 486.23 333.54 482.57 324.00 488.00
C 316.32 494.31 326.97 503.10 330.00 507.00
C 331.60 508.07 333.18 509.83 335.00 511.00
C 340.05 514.26 347.64 520.87 351.75 525.25 C 355.86 529.62 365.80 536.49 366.00 541.00
C 366.45 551.15 361.15 562.44 361.60 572.26 C 362.05 582.07 354.44 594.50 358.00 604.00
C 360.62 608.51 368.30 606.80 371.00 606.00
C 388.07 597.49 404.88 587.04 422.00 578.00
C 437.60 587.17 454.31 595.63 471.00 603.00
C 479.48 605.03 484.91 603.36 485.00 593.00
C 480.94 574.77 477.90 555.60 474.00 538.00
C 477.57 535.93 479.13 531.87 482.00 529.00
C 485.52 523.55 493.34 517.52 498.25 511.25 C 503.15 504.98 513.26 499.71 517.00 493.00
C 519.67 485.76 514.88 481.98 508.00 481.00
C 491.56 478.65 475.25 478.58 459.00 476.00
C 447.25 476.24 442.48 460.71 439.00 451.00
C 437.76 449.02 437.28 448.22 436.00 446.00
C 432.70 440.28 429.10 433.08 427.00 428.00
C 424.38 423.66 421.11 415.49 414.00 419.00 Z"/>
</g>
<g fill="None" fill-opacity="0.0" stroke="#C2E5FA" stroke-opacity="1.00" stroke-width="0.3"><path d="
M 400.00 446.00 
C 406.37 439.90 407.66 422.90 414.00 419.00
C 406.17 422.87 403.51 438.87 400.00 446.00 Z"/>
</g>
<g fill="None" fill-opacity="0.0" stroke="#C5E7FA" stroke-opacity="1.00" stroke-width="0.3"><path d="
M 436.00 446.00 
C 433.44 439.81 430.50 433.80 427.00 428.00
C 429.10 433.08 432.70 440.28 436.00 446.00 Z"/>
</g>
<g fill="None" fill-opacity="0.0" stroke="#C0E2F8" stroke-opacity="1.00" stroke-width="0.3"><path d="
M 384.00 477.00 
C 387.16 475.67 391.56 467.89 393.02 463.02 C 394.49 458.16 400.11 451.28 399.00 447.00
C 394.80 455.11 391.30 471.64 384.00 477.00 Z"/>
</g>
<g fill="None" fill-opacity="0.0" stroke="#C2E0F5" stroke-opacity="1.00" stroke-width="0.3"><path d="
M 459.00 476.00 
C 446.98 474.09 444.93 460.47 439.00 451.00
C 442.48 460.71 447.25 476.24 459.00 476.00 Z"/>
</g>
<g fill="None" fill-opacity="0.0" stroke="#C5E4F8" stroke-opacity="0.97" stroke-width="0.3"><path d="
M 328.00 506.00 
C 328.38 506.35 329.51 506.67 330.00 507.00
C 326.97 503.10 316.32 494.31 324.00 488.00
C 314.95 493.15 322.12 500.52 328.00 506.00 Z"/>
</g>
<g fill="None" fill-opacity="0.0" stroke="#A7CEE9" stroke-opacity="0.69" stroke-width="0.3"><path d="
M 482.00 529.00 
C 487.65 523.35 495.17 517.51 500.25 511.25 C 505.33 504.99 514.28 500.38 517.00 493.00
C 513.26 499.71 503.15 504.98 498.25 511.25 C 493.34 517.52 485.52 523.55 482.00 529.00 Z"/>
</g>
<g fill="None" fill-opacity="0.0" stroke="#ABD2EB" stroke-opacity="0.67" stroke-width="0.3"><path d="
M 366.00 541.00 
C 365.80 536.49 355.86 529.62 351.75 525.25 C 347.64 520.87 340.05 514.26 335.00 511.00
C 339.55 515.20 346.77 521.96 350.75 526.25 C 354.74 530.54 364.79 535.87 366.00 541.00 Z"/>
</g>
<g fill="None" fill-opacity="0.0" stroke="#9FC3E3" stroke-opacity="0.76" stroke-width="0.3"><path d="
M 471.00 603.00 
C 481.04 607.44 487.17 604.88 485.00 593.00
C 484.91 603.36 479.48 605.03 471.00 603.00 Z"/>
</g>
<g fill="None" fill-opacity="0.0" stroke="#AED6EE" stroke-opacity="0.78" stroke-width="0.3"><path d="
M 371.00 606.00 
C 368.30 606.80 360.62 608.51 358.00 604.00
C 360.32 610.20 366.24 608.08 371.00 606.00 Z"/>
</g>
<g fill="#000000" fill-opacity="0.00" stroke="None">
<path d="
M 0.00 627.00 
L 641.00 627.00
L 641.00 279.00
C 640.50 279.00 640.00 279.00 640.00 279.00
C 640.00 297.17 634.32 317.77 629.22 334.22 C 624.13 350.68 617.31 367.25 609.10 381.10 C 600.88 394.94 592.71 409.60 581.90 420.90 C 571.09 432.20 560.76 446.01 548.30 454.30 C 535.84 462.58 522.99 477.95 508.00 481.00
C 514.88 481.98 519.67 485.76 517.00 493.00
C 514.28 500.38 505.33 504.99 500.25 511.25 C 495.17 517.51 487.65 523.35 482.00 529.00
C 479.13 531.87 477.57 535.93 474.00 538.00
C 477.90 555.60 480.94 574.77 485.00 593.00
C 487.17 604.88 481.04 607.44 471.00 603.00
C 454.31 595.63 437.60 587.17 422.00 578.00
C 404.88 587.04 388.07 597.49 371.00 606.00
C 366.24 608.08 360.32 610.20 358.00 604.00
C 354.44 594.50 362.05 582.07 361.60 572.26 C 361.15 562.44 366.45 551.15 366.00 541.00
C 364.79 535.87 354.74 530.54 350.75 526.25 C 346.77 521.96 339.55 515.20 335.00 511.00
C 333.18 509.83 331.60 508.07 330.00 507.00
C 329.51 506.67 328.38 506.35 328.00 506.00
C 321.06 503.65 305.54 503.92 301.00 498.00
C 300.95 514.88 298.54 526.33 296.22 544.22 C 293.90 562.11 271.27 549.97 263.25 539.75 C 255.24 529.52 241.49 521.68 232.25 511.75 C 223.02 501.81 210.13 493.09 201.00 483.00
C 189.01 486.54 173.82 489.83 161.98 492.98 C 150.13 496.12 133.89 499.33 122.98 501.98 C 112.06 504.63 94.42 512.76 88.08 500.92 C 81.75 489.08 95.53 477.72 98.31 466.31 C 101.08 454.89 109.90 443.40 113.92 431.92 C 117.94 420.43 124.61 408.59 129.00 397.00
C 120.07 386.74 115.20 371.94 106.75 361.25 C 98.30 350.57 93.41 335.51 84.25 325.75 C 75.08 315.99 68.20 293.01 86.01 292.01 C 103.82 291.01 114.54 296.63 132.00 297.00
C 127.64 293.01 131.02 282.06 129.01 275.99 C 126.99 269.92 130.05 259.05 129.00 252.00 C 127.95 244.95 129.52 235.00 130.00 228.00 C 130.48 221.00 131.88 213.78 132.99 206.99 C 134.10 200.21 136.38 193.45 137.93 186.93 C 139.47 180.40 141.78 175.01 143.78 168.78 C 145.78 162.55 148.14 157.79 150.77 151.77 C 153.41 145.75 155.23 140.70 158.77 134.77 C 162.32 128.84 163.30 126.20 167.75 119.75 C 172.21 113.31 171.71 112.57 177.75 104.75 C 183.80 96.94 192.18 85.08 199.75 78.75 C 207.33 72.42 206.28 71.00 211.92 65.92 C 217.56 60.84 220.10 59.13 224.92 54.92 C 229.73 50.70 234.68 48.39 239.70 44.70 C 244.72 41.01 248.87 37.93 253.90 34.90 C 258.93 31.86 264.32 29.73 269.70 26.69 C 275.07 23.66 281.21 21.20 287.03 19.02 C 292.84 16.85 298.09 13.72 304.22 12.22 C 310.36 10.73 316.30 8.13 321.75 6.74 C 327.19 5.35 333.87 4.95 340.22 3.22 C 346.58 1.50 356.01 2.09 362.00 0.00
L 0.00 0.00
L 0.00 627.00 Z"/>
</g>
<g fill="#FEFEFE" fill-opacity="0.99" stroke="None">
<path d="
M 132.00 297.00 
C 150.80 299.99 170.20 300.00 189.00 303.00
C 196.13 293.54 202.69 285.80 210.75 276.75 C 218.82 267.70 224.74 260.08 232.75 250.75 C 240.77 241.42 245.19 234.48 254.75 224.75 C 264.31 215.03 281.71 229.34 278.00 243.00
C 297.84 239.27 318.53 237.74 339.00 237.00 C 359.47 236.26 385.23 238.77 403.67 241.33 C 422.11 243.89 437.89 249.81 456.02 253.98 C 474.16 258.14 486.96 268.94 503.23 273.77 C 519.50 278.60 537.11 301.32 518.75 312.75 C 500.38 324.17 487.01 301.99 469.32 297.68 C 451.64 293.37 435.43 282.85 415.78 280.22 C 396.12 277.60 373.30 273.00 352.00 273.00 C 330.70 273.00 306.68 274.31 286.00 278.00
C 288.02 291.85 292.03 305.38 295.00 319.00
C 309.17 317.48 326.39 314.95 341.00 315.00 C 355.61 315.05 372.82 315.03 387.00 317.00 C 401.18 318.97 419.15 322.20 431.22 326.78 C 443.30 331.35 459.62 333.98 469.03 340.98 C 478.43 347.97 491.64 346.02 496.32 361.68 C 501.00 377.34 477.94 382.93 467.31 372.69 C 456.67 362.46 443.12 362.39 429.93 356.07 C 416.73 349.76 401.06 349.70 385.99 346.01 C 370.92 342.32 349.12 345.80 333.00 344.00
C 341.87 348.29 350.75 352.12 361.02 355.98 C 371.30 359.83 378.80 364.29 390.02 367.98 C 401.25 371.66 399.79 388.46 389.25 392.25 C 378.72 396.05 373.02 402.54 363.30 407.30 C 353.58 412.07 347.35 417.18 337.90 421.90 C 328.45 426.63 322.64 432.73 311.92 436.92 C 301.21 441.11 303.85 454.27 302.60 464.75 C 301.36 475.23 301.03 487.62 301.00 498.00
C 305.54 503.92 321.06 503.65 328.00 506.00
C 322.12 500.52 314.95 493.15 324.00 488.00
C 333.54 482.57 347.51 486.23 356.07 482.93 C 364.63 479.62 375.65 480.51 384.00 477.00
C 391.30 471.64 394.80 455.11 399.00 447.00
C 399.17 446.67 399.74 446.25 400.00 446.00
C 403.51 438.87 406.17 422.87 414.00 419.00
C 421.11 415.49 424.38 423.66 427.00 428.00
C 430.50 433.80 433.44 439.81 436.00 446.00
C 437.28 448.22 437.76 449.02 439.00 451.00
C 444.93 460.47 446.98 474.09 459.00 476.00
C 475.25 478.58 491.56 478.65 508.00 481.00
C 522.99 477.95 535.84 462.58 548.30 454.30 C 560.76 446.01 571.09 432.20 581.90 420.90 C 592.71 409.60 600.88 394.94 609.10 381.10 C 617.31 367.25 624.13 350.68 629.22 334.22 C 634.32 317.77 640.00 297.17 640.00 279.00
C 640.00 273.84 639.17 267.34 641.00 263.00
L 641.00 249.00
C 639.42 245.73 639.29 239.20 641.00 236.00
L 641.00 233.00
C 634.83 174.68 609.69 116.38 567.25 75.75 C 524.80 35.13 468.22 1.00 408.00 1.00
C 403.50 1.00 397.67 1.82 394.00 0.00
L 376.00 0.00
C 373.06 1.57 366.87 1.71 364.00 0.00
L 362.00 0.00
C 356.01 2.09 346.58 1.50 340.22 3.22 C 333.87 4.95 327.19 5.35 321.75 6.74 C 316.30 8.13 310.36 10.73 304.22 12.22 C 298.09 13.72 292.84 16.85 287.03 19.02 C 281.21 21.20 275.07 23.66 269.70 26.69 C 264.32 29.73 258.93 31.86 253.90 34.90 C 248.87 37.93 244.72 41.01 239.70 44.70 C 234.68 48.39 229.73 50.70 224.92 54.92 C 220.10 59.13 217.56 60.84 211.92 65.92 C 206.28 71.00 207.33 72.42 199.75 78.75 C 192.18 85.08 183.80 96.94 177.75 104.75 C 171.71 112.57 172.21 113.31 167.75 119.75 C 163.30 126.20 162.32 128.84 158.77 134.77 C 155.23 140.70 153.41 145.75 150.77 151.77 C 148.14 157.79 145.78 162.55 143.78 168.78 C 141.78 175.01 139.47 180.40 137.93 186.93 C 136.38 193.45 134.10 200.21 132.99 206.99 C 131.88 213.78 130.48 221.00 130.00 228.00 C 129.52 235.00 127.95 244.95 129.00 252.00 C 130.05 259.05 126.99 269.92 129.01 275.99 C 131.02 282.06 127.64 293.01 132.00 297.00
M 366.00 154.00 
C 388.23 157.18 412.86 156.61 434.00 161.00 C 455.14 165.39 477.16 169.98 497.02 176.98 C 516.89 183.97 529.75 190.16 550.75 202.25 C 571.75 214.35 551.27 252.19 529.32 239.68 C 507.37 227.17 494.35 221.90 471.32 214.68 C 448.29 207.46 426.61 203.55 402.00 201.00 C 377.39 198.45 348.40 195.93 322.98 198.98 C 297.56 202.03 274.44 200.39 250.33 210.33 C 226.22 220.26 209.33 182.39 230.70 171.70 C 252.06 161.00 270.94 161.16 292.74 158.60 C 314.55 156.03 340.81 150.40 365.00 154.00 Z"/>
</g>
<g fill="#FFFFFF" fill-opacity="0.54" stroke="None">
<path d="
M 376.00 0.00 
L 364.00 0.00
C 366.87 1.71 373.06 1.57 376.00 0.00 Z"/>
</g>
<g fill="#FFFFFF" fill-opacity="0.47" stroke="None">
<path d="
M 408.00 1.00 
C 407.96 1.00 408.00 0.00 408.00 0.00
L 394.00 0.00
C 397.67 1.82 403.50 1.00 408.00 1.00 Z"/>
</g>
<g fill="#000000" fill-opacity="0.00" stroke="None">
<path d="
M 408.00 1.00 
C 468.22 1.00 524.80 35.13 567.25 75.75 C 609.69 116.38 634.83 174.68 641.00 233.00
L 641.00 0.00
L 408.00 0.00
C 408.00 0.00 407.96 1.00 408.00 1.00 Z"/>
</g>
<g fill="#000000" fill-opacity="0.00" stroke="None">
<path d="
M 365.00 154.00 
C 340.81 150.40 314.55 156.03 292.74 158.60 C 270.94 161.16 252.06 161.00 230.70 171.70 C 209.33 182.39 226.22 220.26 250.33 210.33 C 274.44 200.39 297.56 202.03 322.98 198.98 C 348.40 195.93 377.39 198.45 402.00 201.00 C 426.61 203.55 448.29 207.46 471.32 214.68 C 494.35 221.90 507.37 227.17 529.32 239.68 C 551.27 252.19 571.75 214.35 550.75 202.25 C 529.75 190.16 516.89 183.97 497.02 176.98 C 477.16 169.98 455.14 165.39 434.00 161.00 C 412.86 156.61 388.23 157.18 366.00 154.00 Z"/>
</g>
<g fill="#A2C7FE" fill-opacity="1.00" stroke="None">
<path d="
M 132.00 297.00 
C 114.54 296.63 103.82 291.01 86.01 292.01 C 68.20 293.01 75.08 315.99 84.25 325.75 C 93.41 335.51 98.30 350.57 106.75 361.25 C 115.20 371.94 120.07 386.74 129.00 397.00
C 124.61 408.59 117.94 420.43 113.92 431.92 C 109.90 443.40 101.08 454.89 98.31 466.31 C 95.53 477.72 81.75 489.08 88.08 500.92 C 94.42 512.76 112.06 504.63 122.98 501.98 C 133.89 499.33 150.13 496.12 161.98 492.98 C 173.82 489.83 189.01 486.54 201.00 483.00
C 210.13 493.09 223.02 501.81 232.25 511.75 C 241.49 521.68 255.24 529.52 263.25 539.75 C 271.27 549.97 293.90 562.11 296.22 544.22 C 298.54 526.33 300.95 514.88 301.00 498.00
C 301.03 487.62 301.36 475.23 302.60 464.75 C 303.85 454.27 301.21 441.11 311.92 436.92 C 322.64 432.73 328.45 426.63 337.90 421.90 C 347.35 417.18 353.58 412.07 363.30 407.30 C 373.02 402.54 378.72 396.05 389.25 392.25 C 399.79 388.46 401.25 371.66 390.02 367.98 C 378.80 364.29 371.30 359.83 361.02 355.98 C 350.75 352.12 341.87 348.29 333.00 344.00
C 323.05 342.89 320.98 337.09 310.92 335.08 C 300.86 333.08 297.22 329.19 295.00 319.00
C 292.03 305.38 288.02 291.85 286.00 278.00
C 284.26 266.12 281.08 254.53 278.00 243.00
C 281.71 229.34 264.31 215.03 254.75 224.75 C 245.19 234.48 240.77 241.42 232.75 250.75 C 224.74 260.08 218.82 267.70 210.75 276.75 C 202.69 285.80 196.13 293.54 189.00 303.00
C 170.20 300.00 150.80 299.99 132.00 297.00 Z"/>
</g>
<g fill="#FFFFFF" fill-opacity="0.61" stroke="None">
<path d="
M 641.00 249.00 
L 641.00 236.00
C 639.29 239.20 639.42 245.73 641.00 249.00 Z"/>
</g>
<g fill="#000000" fill-opacity="0.00" stroke="None">
<path d="
M 278.00 243.00 
C 281.08 254.53 284.26 266.12 286.00 278.00
C 306.68 274.31 330.70 273.00 352.00 273.00 C 373.30 273.00 396.12 277.60 415.78 280.22 C 435.43 282.85 451.64 293.37 469.32 297.68 C 487.01 301.99 500.38 324.17 518.75 312.75 C 537.11 301.32 519.50 278.60 503.23 273.77 C 486.96 268.94 474.16 258.14 456.02 253.98 C 437.89 249.81 422.11 243.89 403.67 241.33 C 385.23 238.77 359.47 236.26 339.00 237.00 C 318.53 237.74 297.84 239.27 278.00 243.00 Z"/>
</g>
<g fill="#FFFFFF" fill-opacity="0.51" stroke="None">
<path d="
M 640.00 279.00 
C 640.00 279.00 640.50 279.00 641.00 279.00
L 641.00 263.00
C 639.17 267.34 640.00 273.84 640.00 279.00 Z"/>
</g>
<g fill="#000000" fill-opacity="0.00" stroke="None">
<path d="
M 295.00 319.00 
C 297.22 329.19 300.86 333.08 310.92 335.08 C 320.98 337.09 323.05 342.89 333.00 344.00
C 349.12 345.80 370.92 342.32 385.99 346.01 C 401.06 349.70 416.73 349.76 429.93 356.07 C 443.12 362.39 456.67 362.46 467.31 372.69 C 477.94 382.93 501.00 377.34 496.32 361.68 C 491.64 346.02 478.43 347.97 469.03 340.98 C 459.62 333.98 443.30 331.35 431.22 326.78 C 419.15 322.20 401.18 318.97 387.00 317.00 C 372.82 315.03 355.61 315.05 341.00 315.00 C 326.39 314.95 309.17 317.48 295.00 319.00 Z"/>
</g>
<g fill="#A2C7FE" fill-opacity="1.00" stroke="None">
<path d="
M 414.00 419.00 
C 407.66 422.90 406.37 439.90 400.00 446.00
C 399.74 446.25 399.17 446.67 399.00 447.00
C 400.11 451.28 394.49 458.16 393.02 463.02 C 391.56 467.89 387.16 475.67 384.00 477.00
C 375.65 480.51 364.63 479.62 356.07 482.93 C 347.51 486.23 333.54 482.57 324.00 488.00
C 316.32 494.31 326.97 503.10 330.00 507.00
C 331.60 508.07 333.18 509.83 335.00 511.00
C 340.05 514.26 347.64 520.87 351.75 525.25 C 355.86 529.62 365.80 536.49 366.00 541.00
C 366.45 551.15 361.15 562.44 361.60 572.26 C 362.05 582.07 354.44 594.50 358.00 604.00
C 360.62 608.51 368.30 606.80 371.00 606.00
C 388.07 597.49 404.88 587.04 422.00 578.00
C 437.60 587.17 454.31 595.63 471.00 603.00
C 479.48 605.03 484.91 603.36 485.00 593.00
C 480.94 574.77 477.90 555.60 474.00 538.00
C 477.57 535.93 479.13 531.87 482.00 529.00
C 485.52 523.55 493.34 517.52 498.25 511.25 C 503.15 504.98 513.26 499.71 517.00 493.00
C 519.67 485.76 514.88 481.98 508.00 481.00
C 491.56 478.65 475.25 478.58 459.00 476.00
C 447.25 476.24 442.48 460.71 439.00 451.00
C 437.76 449.02 437.28 448.22 436.00 446.00
C 432.70 440.28 429.10 433.08 427.00 428.00
C 424.38 423.66 421.11 415.49 414.00 419.00 Z"/>
</g>
<g fill="#C2E5FA" fill-opacity="1.00" stroke="None">
<path d="
M 400.00 446.00 
C 406.37 439.90 407.66 422.90 414.00 419.00
C 406.17 422.87 403.51 438.87 400.00 446.00 Z"/>
</g>
<g fill="#C5E7FA" fill-opacity="1.00" stroke="None">
<path d="
M 436.00 446.00 
C 433.44 439.81 430.50 433.80 427.00 428.00
C 429.10 433.08 432.70 440.28 436.00 446.00 Z"/>
</g>
<g fill="#C0E2F8" fill-opacity="1.00" stroke="None">
<path d="
M 384.00 477.00 
C 387.16 475.67 391.56 467.89 393.02 463.02 C 394.49 458.16 400.11 451.28 399.00 447.00
C 394.80 455.11 391.30 471.64 384.00 477.00 Z"/>
</g>
<g fill="#C2E0F5" fill-opacity="1.00" stroke="None">
<path d="
M 459.00 476.00 
C 446.98 474.09 444.93 460.47 439.00 451.00
C 442.48 460.71 447.25 476.24 459.00 476.00 Z"/>
</g>
<g fill="#C5E4F8" fill-opacity="0.97" stroke="None">
<path d="
M 328.00 506.00 
C 328.38 506.35 329.51 506.67 330.00 507.00
C 326.97 503.10 316.32 494.31 324.00 488.00
C 314.95 493.15 322.12 500.52 328.00 506.00 Z"/>
</g>
<g fill="#A7CEE9" fill-opacity="0.69" stroke="None">
<path d="
M 482.00 529.00 
C 487.65 523.35 495.17 517.51 500.25 511.25 C 505.33 504.99 514.28 500.38 517.00 493.00
C 513.26 499.71 503.15 504.98 498.25 511.25 C 493.34 517.52 485.52 523.55 482.00 529.00 Z"/>
</g>
<g fill="#ABD2EB" fill-opacity="0.67" stroke="None">
<path d="
M 366.00 541.00 
C 365.80 536.49 355.86 529.62 351.75 525.25 C 347.64 520.87 340.05 514.26 335.00 511.00
C 339.55 515.20 346.77 521.96 350.75 526.25 C 354.74 530.54 364.79 535.87 366.00 541.00 Z"/>
</g>
<g fill="#9FC3E3" fill-opacity="0.76" stroke="None">
<path d="
M 471.00 603.00 
C 481.04 607.44 487.17 604.88 485.00 593.00
C 484.91 603.36 479.48 605.03 471.00 603.00 Z"/>
</g>
<g fill="#AED6EE" fill-opacity="0.78" stroke="None">
<path d="
M 371.00 606.00 
C 368.30 606.80 360.62 608.51 358.00 604.00
C 360.32 610.20 366.24 608.08 371.00 606.00 Z"/>
</g>
</svg>